<svg width="512" height="512" viewBox="0 0 512 512" fill="none" xmlns="http://www.w3.org/2000/svg">
<path d="M86 163L79.5 243.5H115.5V200.5L133 143L159 111L201.5 80.5L252.5 71L293 77.5L331 92.5L367 124.5L387.5 162L398 213V247H430V187.5L420 138.5L362 67L295.5 39.5L246.5 36L180 49.5L117.5 100L86 163Z" fill="#FFF0CE" stroke="black"/>
<path d="M372 262.5L366.5 304V372V398.5L382 417L407.5 423H433L448 411L470 390.5L484.5 356V316L475.5 286.5L457.5 262.5H444L429.5 246.5H394L372 262.5Z" fill="#FFD571" stroke="black"/>
<path d="M238 445L261 438.5L290 449.5L292.5 471.5L266.5 474.5L238 462V445Z" fill="#3D3D3D" stroke="black"/>
<path d="M32 370.5L63 411L75.5 418.5L105.5 426L135 411L141.5 390L143.5 345.5V270L124 248.5L83 244L54.5 262.5L29 303L32 370.5Z" fill="#FFD571" stroke="black"/>
<path fill-rule="evenodd" clip-rule="evenodd" d="M231.414 28.578C161.612 38.075 103.014 86.837 81.0599 153.694C74.0099 175.165 72.7549 183.879 72.2399 214.958C71.7999 241.481 71.7079 242.519 69.5399 245.458C68.3059 247.131 67.0599 249.179 66.7719 250.01C66.4829 250.84 64.0539 252.104 61.3739 252.82C27.4219 261.88 10.3219 328.21 28.8789 378.864C35.9199 398.082 47.6799 411.131 61.4299 414.98C65.1099 416.011 66.4519 417.031 68.1869 420.119C69.3779 422.239 72.1479 425.216 74.3419 426.736L78.3319 429.5H99.4159C120.225 429.5 120.575 429.465 126.253 426.804C137.651 421.462 147.359 409.305 149.891 397.201C150.63 393.669 151 372.308 151 333.161C151 269.246 150.874 267.582 145.299 258.068C141.52 251.619 134.77 245.494 127.916 242.298L121.918 239.5L122.318 215.5C122.698 192.705 122.87 190.922 125.729 179.993C132.689 153.392 144.52 133.2 164.019 114.645C189.146 90.733 221.106 78 256 78C290.894 78 322.854 90.733 347.981 114.645C367.48 133.2 379.311 153.392 386.271 179.993C389.13 190.922 389.302 192.705 389.682 215.5L390.082 239.5L384.084 242.298C373.325 247.316 365.534 256.849 362.494 268.717C361.121 274.077 360.952 282.975 361.207 336.692L361.5 398.5L364.701 405.259C370.477 417.451 382.73 427.596 393.976 429.496C396.189 429.87 398 430.545 398 430.995C398 431.446 395.637 433.94 392.75 436.538C374.751 452.73 352.423 461.589 327 462.626C320.125 462.907 311.812 462.768 308.528 462.317L302.555 461.498L301.846 457.343C300.779 451.093 297.794 446.04 291.854 440.43C282.922 431.993 270.816 427.548 257.19 427.702C244.208 427.848 232.85 435.32 229.969 445.61C225.42 461.859 241.045 479.759 264 484.595C276 487.122 285.912 485.299 293.718 479.129L298.528 475.326L307.514 476.723C318.133 478.373 337.889 477.787 348.487 475.508C374.827 469.843 399.416 454.921 412.515 436.653L416.5 431.096L423.282 431.048C433.373 430.977 440.791 427.069 444.572 419.833C445.423 418.205 447.432 416.692 449.733 415.947C471.367 408.942 485.047 386.78 489.147 352.096C490.558 340.16 489.718 314.832 487.585 305C481.206 275.591 466.795 255.852 449.164 252.374C447.329 252.012 445.575 250.992 445.266 250.108C444.957 249.224 443.69 247.125 442.45 245.445C440.273 242.494 440.181 241.478 439.75 215.445C439.255 185.608 438.221 177.561 432.402 158.29C418.885 113.523 388.273 74.79 348.089 51.612C313.268 31.527 271.028 23.188 231.414 28.578ZM241.175 42.127C171.844 47.826 112.195 97.18 92.6709 165C88.2659 180.304 86.8539 191.285 86.2749 214.75L85.7249 237H96.3629H107L107.017 221.75C107.053 190.337 110.974 170.514 121.598 148.043C129.055 132.271 137.963 119.838 151.403 106.446C175.223 82.71 201.573 69.245 234.5 63.983C245.061 62.296 269.03 62.575 280.578 64.52C302.361 68.188 327.217 78.767 344.5 91.724C363.958 106.312 378.602 124.11 389.572 146.5C400.536 168.88 403.906 184.28 404.726 215.75L405.281 237H415.64H426L425.983 220.75C425.955 195.164 423.734 178.717 417.783 160.035C409.169 132.992 394.65 109.539 374.386 89.937C350.25 66.589 324.803 52.748 292.921 45.626C282.933 43.395 259.66 40.739 253.605 41.139C252.447 41.216 246.854 41.66 241.175 42.127ZM273.672 142.25C271.262 144.473 221 258.003 221 261.223C221 262.052 221.933 263.916 223.073 265.365C225.553 268.518 230.857 268.983 233.173 266.25C235.593 263.395 285 149.377 285 146.649C285 143.88 280.869 140 277.921 140C276.926 140 275.014 141.012 273.672 142.25ZM316.465 154.006C315.346 154.43 313.921 155.39 313.298 156.141C312.036 157.662 282 235.164 282 236.9C282 239.056 286.041 242 289 242C293.451 242 295.241 239.52 300.446 226.138L305.168 214L317.834 214.003L330.5 214.005L335.452 226.612C340.741 240.076 342.892 242.746 347.518 241.585C350.956 240.722 354.008 237.484 353.962 234.75C353.941 233.512 347.249 215.186 339.092 194.024C325.37 158.428 324.045 155.462 321.38 154.392C319.766 153.743 317.606 153.574 316.465 154.006ZM190 159C188.533 160.467 188 162.333 188 166V171H174.135C161.622 171 160.013 171.202 157.635 173.073C153.991 175.939 153.991 181.061 157.635 183.927C160.114 185.877 161.535 186 181.61 186H202.95L202.014 188.462C201.499 189.817 199.863 192.761 198.378 195.005L195.678 199.085L192.955 194.424C191.458 191.86 189.618 189.372 188.866 188.896C186.477 187.383 182.068 187.932 180 190C177.092 192.908 177.534 196.843 181.509 203.445C185.672 210.358 185.763 210.17 175.118 216.686C170.928 219.251 166.488 222.25 165.25 223.349C160.854 227.256 163.701 235 169.533 235C172.785 235 180.802 230.965 188.762 225.321L195.025 220.881L197.905 222.932C202.99 226.554 213.399 230.998 216.795 230.999C222.893 231.001 227.022 224.245 223.642 219.797C222.93 218.86 219.319 216.994 215.617 215.65C211.915 214.306 208.06 212.459 207.05 211.545C205.281 209.944 205.343 209.693 208.743 204.692C212.576 199.054 217 189.827 217 187.471C217 186.326 218.45 186 223.545 186C229.162 186 230.439 185.652 232.545 183.545C233.895 182.195 235 179.925 235 178.5C235 177.075 233.895 174.805 232.545 173.455C230.172 171.081 229.625 171 216.045 171H202V166.174C202 162.423 201.485 160.865 199.686 159.174C196.793 156.457 192.618 156.382 190 159ZM314.169 190.033C312.426 194.485 311 198.549 311 199.064C311 199.579 314.119 200 317.93 200H324.86L321.861 191.75C320.211 187.213 318.518 183.148 318.099 182.719C317.68 182.289 315.911 185.58 314.169 190.033ZM82.2499 253.501L79.9999 255.113V333.557C79.9999 410.667 80.0339 412.034 81.9999 414C83.8149 415.815 85.3329 416 98.3849 416C119.673 416 127.539 412.587 133.412 400.801L136 395.607L135.978 334.054C135.957 274.317 135.896 272.367 133.921 268C131.428 262.486 126.81 257.53 121.5 254.671C117.954 252.762 115.628 252.482 101 252.203C87.0739 251.938 84.1489 252.14 82.2499 253.501ZM394.994 252.934C387.565 255.194 381.376 260.706 378.079 268C376.104 272.367 376.043 274.317 376.022 334.054L376 395.607L378.588 400.801C381.831 407.308 387.929 412.605 394.388 414.523C401.559 416.652 426.704 416.596 429.777 414.443L432 412.887V334.443C432 257.333 431.966 255.966 430 254C428.166 252.166 426.731 252.007 412.75 252.086C404.363 252.133 396.372 252.515 394.994 252.934ZM60.2299 268.115C51.4589 272.457 44.1829 284.424 39.3209 302.509C36.8069 311.855 36.6339 313.857 36.6339 333.5C36.6339 353.102 36.8119 355.166 39.3069 364.5C44.1529 382.63 53.2279 396.792 61.9469 399.832L64.9999 400.896V333.448C64.9999 296.352 64.8879 266 64.7499 266.001C64.6119 266.001 62.5789 266.953 60.2299 268.115ZM447 333.948V400.896L450.223 399.772C458.984 396.718 467.693 383.037 472.679 364.491C475.193 355.145 475.366 353.143 475.366 333.5C475.366 313.915 475.187 311.835 472.71 302.629C468.872 288.365 464.016 279.157 456.821 272.495C446.105 262.574 447 256.976 447 333.948ZM253.685 442.996C243.224 444.944 241.015 452.583 248.514 460.883C252.678 465.493 262.133 469.953 269.297 470.687C278.674 471.648 288 467.504 288 462.378C288 451.41 268.29 440.277 253.685 442.996Z" fill="black"/>
</svg>
