<svg width="512" height="512" viewBox="0 0 512 512" fill="none" xmlns="http://www.w3.org/2000/svg">
<path d="M183.5 33L171 63V201L183.5 351H378.5L399.5 324.5V122.5L306 28H247.5L183.5 33Z" fill="#FFF0CE" stroke="black"/>
<path fill-rule="evenodd" clip-rule="evenodd" d="M193.496 19.3814C176.601 23.5744 163.777 37.4554 160.972 54.5834C159.676 62.4964 159.676 315.444 160.972 323.357C163.844 340.895 177.439 355.159 194.795 358.845C201.738 360.319 365.264 360.429 373.11 358.965C386.325 356.498 398.212 347.069 404.295 334.229L407.496 327.47L407.798 224.97C408.01 152.974 407.774 121.28 407.006 118.47C406.071 115.055 398.935 107.558 358.204 67.2044C321.232 30.5754 309.708 19.7184 306.996 18.9604C301.584 17.4464 199.768 17.8244 193.496 19.3814ZM193.418 37.3884C188.372 39.5864 182.832 45.1274 180.347 50.4634L178.016 55.4704V188.97V322.47L180.347 327.477C181.63 330.231 184.342 333.945 186.375 335.729C193.941 342.373 188.266 342.029 285.485 341.736L373.654 341.47L378.575 338.434C384.107 335.021 389.335 327.388 390.351 321.238C390.694 319.166 390.979 275.081 390.985 223.273L390.996 129.075L359.746 128.773L328.496 128.47L322.566 125.693C310.746 120.157 302.691 111.084 298.971 99.1154C297.2 93.4154 296.996 89.8284 296.996 64.3654V35.9704L246.746 36.0094C207.009 36.0404 195.852 36.3294 193.418 37.3884ZM313.996 68.0444C313.996 91.7694 314.942 96.6914 320.734 103.102C327.588 110.688 330.105 111.423 350.496 111.788C360.396 111.966 370.641 111.967 373.262 111.79L378.027 111.47L346.012 79.4764L313.996 47.4824V68.0444ZM234.996 52.6554C230.697 54.2864 228.996 57.2404 228.996 63.0714V68.8224L214.574 69.1464C200.907 69.4534 200.016 69.5974 197.574 71.8944C193.596 75.6364 194.246 83.4234 198.718 85.6004C199.696 86.0764 210.291 86.6914 222.263 86.9684L244.031 87.4704L239.421 92.7374L234.811 98.0044L232.891 95.5644C229.053 90.6854 221.383 91.3874 218.544 96.8774C216.454 100.918 216.574 102.07 219.539 106.439C222.52 110.831 223.176 109.995 210.281 118.226C201.607 123.763 199.398 126.739 200.551 131.332C201.404 134.732 205.49 137.97 208.927 137.97C211.631 137.97 223.145 131.396 230.131 125.863L233.975 122.819L238.235 126.3C244.173 131.152 256.957 137.939 260.19 137.956C263.7 137.974 267.846 134.265 268.575 130.454C269.379 126.252 266.426 122.84 258.195 118.464C254.511 116.505 250.454 114.033 249.18 112.972L246.863 111.042L251.816 105.09C254.541 101.816 258.427 96.4534 260.452 93.1724L264.134 87.2064L269.735 86.7424C274.259 86.3674 275.782 85.7574 277.665 83.5684C280.666 80.0794 280.636 75.8264 277.585 72.2764C275.176 69.4724 275.161 69.4704 260.585 69.1464L245.996 68.8224V63.4524C245.996 59.2954 245.487 57.5124 243.746 55.5634C241.407 52.9464 237.582 51.6744 234.996 52.6554ZM197.631 157.043C194.02 159.883 193.932 165.997 197.451 169.515L199.905 171.97H284.027H368.15L371.073 169.047C374.746 165.374 374.916 161.255 371.544 157.616L369.091 154.97H284.679C200.795 154.97 200.249 154.983 197.631 157.043ZM197.451 191.425C195.756 193.119 194.996 194.991 194.996 197.47C194.996 199.949 195.756 201.821 197.451 203.515L199.905 205.97H284.262C367.62 205.97 368.645 205.946 370.795 203.942C374.857 200.158 374.83 194.756 370.729 190.936C368.666 189.013 366.753 188.97 284.262 188.97H199.905L197.451 191.425ZM197.451 225.425C193.932 228.943 194.02 235.057 197.631 237.897C200.249 239.957 200.795 239.97 284.676 239.97H369.087L371.541 237.515C374.982 234.075 374.803 229.623 371.073 225.893L368.15 222.97H284.027H199.905L197.451 225.425ZM199.496 258.125C194.217 261.012 193.255 267.986 197.576 272.046L200.156 274.47L280.326 274.769C324.42 274.934 362.465 274.786 364.872 274.439C373.64 273.178 376.843 265.664 371.073 259.893L368.15 256.97L284.823 257C226.442 257.022 200.897 257.358 199.496 258.125ZM199.496 292.115C194.214 295.029 193.256 301.987 197.577 306.046L200.157 308.47H284.663H369.169L371.583 305.664C374.667 302.078 374.667 297.862 371.583 294.276L369.17 291.47L285.333 291.241C225.685 291.078 200.919 291.33 199.496 292.115Z" fill="black"/>
<path d="M22 107.5L13 127L12.5 399L41 420H220.5L244 392.5V193L149 97H46L22 107.5Z" fill="#F8F8F8" stroke="black"/>
<path fill-rule="evenodd" clip-rule="evenodd" d="M35.3057 88.411C22.9227 91.74 12.6167 100.507 6.90168 112.569L3.70068 119.328V257.828V396.328L6.90168 403.087C12.9847 415.927 24.8717 425.356 38.0867 427.823C45.9327 429.287 209.459 429.177 216.402 427.703C233.758 424.017 247.353 409.753 250.225 392.215C251.618 383.712 251.511 193.521 250.111 188.328C249.194 184.926 242.054 177.321 202.367 137.472C171.049 106.027 154.385 90 151.701 88.744C147.944 86.986 144.444 86.875 94.2007 86.916C50.7007 86.951 39.6927 87.231 35.3057 88.411ZM34.3687 107.431C29.1427 110.036 26.0747 113.258 22.5687 119.828C20.7767 123.185 20.6887 128.623 20.3997 253.328C20.2347 324.828 20.3727 385.642 20.7087 388.47C21.5737 395.771 26.4597 403.491 32.6217 407.292L37.5427 410.328L124.622 410.615C188.193 410.825 212.837 410.591 215.909 409.747C221.635 408.175 227.986 402.485 230.827 396.384L233.181 391.328L233.191 294.578L233.201 197.828H203.858C171.94 197.828 168.766 197.379 159.595 191.567C153.837 187.918 146.388 179.481 143.684 173.546C140.043 165.557 139.217 157.527 139.209 130.078L139.201 104.828H89.3967H39.5937L34.3687 107.431ZM157.201 139.388C157.201 161.105 157.24 161.513 159.791 166.633C161.216 169.492 164.014 173.177 166.01 174.822C172.55 180.213 176.535 180.9 199.529 180.599L220.215 180.328L188.708 148.834L157.201 117.34V139.388ZM74.5407 123.6C71.7307 125.847 37.2007 195.018 37.2007 198.399C37.2007 201.81 42.2357 206.828 45.6587 206.828C49.9087 206.828 52.5937 204.284 56.1927 196.845L59.5867 189.828H79.8817H100.176L103.664 196.754C107.359 204.092 110.164 206.828 113.989 206.828C117.699 206.828 120.249 204.956 121.89 201.031L123.409 197.394L105.555 161.506C95.0897 140.47 86.7137 124.833 85.3157 123.722C82.3557 121.371 77.3987 121.315 74.5407 123.6ZM74.4287 160.34C71.5537 166.122 69.2007 171.072 69.2007 171.34C69.2007 171.608 74.1547 171.828 80.2087 171.828H91.2177L85.7007 160.828C82.6667 154.778 80.0657 149.828 79.9207 149.828C79.7757 149.828 77.3037 154.558 74.4287 160.34ZM39.6527 226.474C36.2807 230.113 36.4507 234.232 40.1237 237.905L43.0467 240.828H127.17H211.292L213.746 238.373C217.265 234.855 217.177 228.741 213.566 225.901C210.948 223.841 210.402 223.828 126.518 223.828H42.1057L39.6527 226.474ZM40.4017 259.856C36.3397 263.64 36.3667 269.042 40.4677 272.862C42.5307 274.785 44.4437 274.828 126.935 274.828H211.292L213.746 272.373C217.086 269.034 217.086 263.622 213.746 260.283L211.292 257.828H126.935C43.5767 257.828 42.5517 257.852 40.4017 259.856ZM40.1237 294.751C36.3937 298.481 36.2147 302.933 39.6557 306.373L42.1097 308.828H126.521C210.402 308.828 210.948 308.815 213.566 306.755C217.177 303.915 217.265 297.801 213.746 294.283L211.292 291.828H127.17H43.0467L40.1237 294.751ZM40.1237 328.751C34.3537 334.522 37.5567 342.036 46.3247 343.297C48.7317 343.644 86.7767 343.792 130.871 343.627L211.041 343.328L213.621 340.904C216.186 338.494 217.005 334.088 215.58 330.373C213.826 325.801 214.353 325.828 126.174 325.828H43.0467L40.1237 328.751ZM42.5577 360.82C37.1377 363.007 35.6527 369.917 39.6137 374.522L42.0277 377.328H126.534H211.04L213.62 374.904C216.186 372.494 217.006 368.088 215.58 364.373C213.825 359.799 214.321 359.824 127.001 359.891C81.7357 359.926 43.7367 360.344 42.5577 360.82Z" fill="black"/>
</svg>
