<svg width="476" height="456" viewBox="0 0 476 456" fill="none" xmlns="http://www.w3.org/2000/svg">
<path d="M7.85645 120.5V13L21.3564 5H63.3564H128.356L217.856 8.5L280.856 5L296.856 11L331.856 55L342.856 70L344.856 85.5V149.5V206L358.856 195L423.856 149.5L439.856 142.5L459.856 149.5L470.356 168.5V190L443.856 216L396.856 254L348.856 288.5V351L343.856 445.5L328.856 451.5H279.856L217.856 447.5H74.3564H7.85645V404.5V120.5Z" fill="#F8F8F8" stroke="black"/>
<path d="M7.85645 10C5.05645 12.8 5.00008 20.5 5 22.5C6.16668 162.5 8.87293 435.617 9.35625 439C10.3562 446 14.8563 450.5 20.5 450.5C127.167 451.167 335.295 449 337.856 449C341.356 449 347.856 445 348.5 439.5V396.5L345.356 291C372.356 270.333 426.783 230.65 431.856 226C437.856 220.5 470.356 191.5 471.356 179.5C472.356 167.5 465 156 459.5 150.5C454 145 440.856 142.5 435.856 143C431.856 143.4 422.69 148.333 418.856 151L397.356 167L344.856 206.5C344.856 206.5 346.356 79 344.856 76C343.356 73 321.356 40.5 317.356 35.5C314.633 32.0958 296.356 7 284.856 5C258.712 5 202.77 8 190.5 8C178.856 8 71.3562 3.83333 18.8563 5.5C16.3564 5.57936 10.8564 7 7.85645 10Z" stroke="black" stroke-width="9"/>
<path d="M234.856 289L351.856 200.5L389.856 172M389.856 172C389.856 172 404.249 161 413.856 154.5C419.823 150.463 427.314 145.017 434.356 143.5C438.556 142.596 441.032 142.71 444.856 143.5C448.372 144.226 449.827 144.934 454.356 147C457.644 148.5 461.915 151.793 464.856 156.5C467.356 160.5 468.602 162.27 469.856 167C471.315 172.5 472.011 175.856 470.856 181C469.671 186.283 466.396 190.902 462.856 195C453.356 206 440.356 218 440.356 218L427.856 228C427.856 228 416.856 207.5 412.356 200.5C407.856 193.5 389.856 172 389.856 172ZM408.856 200.5L251.856 313C255.69 320 261.162 329.765 262.856 334C264.856 339 267.69 346.833 269.356 347M269.356 347L351.856 286L424.856 231.5M269.356 347C269.356 347 261.825 348.669 257.856 349C245.856 350 241.356 350.5 229.356 351C220.382 351.374 206.356 351 206.356 351C205.356 351 203.35 351.001 202.356 349.5C201.033 347.5 205.523 338.667 206.856 335.5C206.856 335.5 212.896 322.811 217.356 315C221.708 307.379 224.106 303.032 229.356 296C230.688 294.216 232.856 291.5 232.856 291.5L250.856 311" stroke="black" stroke-width="9"/>
<path d="M221.856 336C220.856 334 215.19 328 212.357 326L207.857 337L206.356 348C213.356 348 225.857 349.4 225.857 347C225.857 344 223.061 338.409 221.857 336L221.856 336Z" fill="black" stroke="black" stroke-width="9"/>
<path d="M282.381 5C280.048 26.1667 275.881 69.2751 275.881 72.5C275.881 77 277.356 83.3719 282.381 84C285.581 84.4 312.714 83.1667 325.881 82.5L345.381 81.5" stroke="black" stroke-width="9"/>
<path d="M57 156H280.5" stroke="black" stroke-width="11" stroke-linecap="round"/>
<path d="M57 246H202" stroke="black" stroke-width="11" stroke-linecap="round"/>
<path d="M57 294H180" stroke="black" stroke-width="11" stroke-linecap="round"/>
<path d="M57 200H244" stroke="black" stroke-width="11" stroke-linecap="round"/>
<path d="M56.8564 348H151.856" stroke="black" stroke-width="11" stroke-linecap="round"/>
</svg>
