<svg width="438" height="441" viewBox="0 0 438 441" fill="none" xmlns="http://www.w3.org/2000/svg">
<path fill-rule="evenodd" clip-rule="evenodd" d="M111 52.694C106.917 54.153 105.633 60.453 108.829 63.345C110.48 64.839 115.582 65 161.329 65C210.667 65 212.053 64.947 214 63C216.675 60.325 216.521 57.43 213.545 54.455L211.091 52L161.795 52.079C134.683 52.122 111.825 52.399 111 52.694ZM131 85.694C126.917 87.153 125.633 93.453 128.829 96.345C130.446 97.809 134.179 98 161.138 98C193.891 98 194.303 97.938 195.541 92.8C196.045 90.707 195.619 89.528 193.641 87.55L191.091 85L161.795 85.079C145.683 85.122 131.825 85.399 131 85.694ZM48.655 163.829C45.301 167.534 47.271 173.289 52.32 174.535C53.519 174.831 76.478 174.944 103.339 174.787L152.178 174.5L154.15 172.063C156.375 169.315 155.97 165.324 153.254 163.25C151.995 162.288 139.948 162 100.964 162C53.161 162 50.217 162.103 48.655 163.829ZM49.223 207.557C46.421 209.519 46.201 214.967 48.829 217.345C50.507 218.864 59.775 219 161.674 219C267.955 219 272.761 218.922 274.345 217.171C276.772 214.49 276.474 209.446 273.777 207.557C271.799 206.171 259.49 206 161.5 206C63.51 206 51.201 206.171 49.223 207.557ZM48.655 252.829C46.625 255.072 46.52 258.961 48.419 261.559C49.81 263.46 52.122 263.5 161.5 263.5C270.878 263.5 273.19 263.46 274.581 261.559C276.549 258.867 276.354 254.631 274.171 252.655C272.493 251.136 263.225 251 161.326 251C55.045 251 50.239 251.078 48.655 252.829ZM401.367 282.378C399.094 283.116 395.628 284.945 393.666 286.441C389.651 289.503 385 297.957 385 302.191C385 304.812 383.92 305.529 367.944 313.528L350.889 322.067L344.785 316.544C337.067 309.559 330.062 305.998 324.054 306.005C319.928 306.01 317.26 307.405 295.678 320.841C281.359 329.755 271.124 336.786 270.022 338.467C261.095 352.075 277.809 392.275 301.19 413.434C309.264 420.741 314.979 423.502 322 423.491C327.313 423.483 328.197 423.045 348 410.623C372.596 395.194 374.549 393.773 376.591 389.825C378.792 385.568 378.535 374.886 376.04 366.925C374.932 363.391 374.02 360.013 374.013 359.417C374.006 358.821 380.662 353.315 388.804 347.181C403.249 336.298 403.692 336.051 407.048 337.014C411.933 338.415 419.503 338.234 423.355 336.625C428.645 334.415 433.579 329.406 435.992 323.797C440.52 313.27 437.108 298.955 427.952 290.069C420.477 282.815 409.66 279.685 401.367 282.378ZM215 289.69C194.356 293.142 176.924 308.935 169.404 331C166.808 338.617 166.799 355.34 169.388 363C175.893 382.254 189.08 396.062 206.81 402.188C212.353 404.104 215.557 404.5 225.5 404.5C236.171 404.5 238.33 404.191 245 401.711C253.831 398.428 262.832 392.602 264.952 388.796C266.341 386.303 266.296 385.873 264.379 383.296C261.452 379.361 258.543 379.271 253.408 382.958C234.536 396.512 210.463 395.121 194.121 379.534C187.492 373.211 183.737 366.926 181.533 358.465C178.645 347.376 180.18 334.951 185.691 324.826C189.446 317.928 198.709 309.506 206.712 305.715C213.187 302.648 214.056 302.5 225.552 302.5C237.499 302.5 237.671 302.533 245.322 306.314C254.257 310.73 257.695 310.833 259.968 306.75C261.333 304.3 261.336 303.709 260 301.331C258.144 298.027 248.066 292.762 239.465 290.602C233.619 289.133 221.118 288.667 215 289.69ZM50 296.288C46.823 297.886 46.044 303.286 48.585 306.094C50.234 307.917 52.338 308 96.655 308C141.667 308 143.058 307.942 145 306C147.675 303.325 147.521 300.43 144.545 297.455L142.091 295L97.295 295.015C63.322 295.026 51.896 295.333 50 296.288ZM284.165 296.135C282.922 296.594 277.314 301.39 271.702 306.792C252.031 325.728 226.873 349 226.072 349C225.628 349 221.77 346.3 217.5 343C213.23 339.7 208.995 337 208.09 337C204.78 337 202 339.964 202 343.494C202 346.596 202.886 347.577 212.75 355.405C220.823 361.812 224.247 363.938 226.5 363.943C228.993 363.949 232.122 361.481 245 349.352C253.525 341.323 267.601 328.197 276.28 320.182C284.959 312.167 292.321 304.569 292.64 303.297C293.324 300.574 290.947 296.481 288.277 295.783C287.259 295.516 285.408 295.675 284.165 296.135ZM48.585 341.906C47.487 343.119 46.976 345.022 47.18 347.134C47.732 352.859 48.919 353.046 82.832 352.758C111.542 352.514 113.239 352.396 114.582 350.559C116.549 347.866 116.354 343.63 114.171 341.655C112.552 340.19 108.784 340 81.326 340C52.087 340 50.211 340.109 48.585 341.906Z" fill="black" fill-opacity="0.173"/>
<path d="M9 8V433.5H314V8H9Z" fill="#FFF0CE"/>
<circle cx="225.5" cy="346.5" r="50.5" fill="white"/>
<path d="M277 359.5V342.5H291L312.5 365.5L328.5 398.5L323 418.5L308.5 410L288 390.5L277 359.5Z" fill="#FFD571"/>
<path d="M324 312.5L286 336.5L309.5 359.5L328 396.5V416L372 388.5L370.5 372.5L366 356L402 330.5H418L431 320.5L429.5 307L418 290H399.5L395.5 305.5L379 316L350 330.5L324 312.5Z" fill="#FFD571"/>
<path fill-rule="evenodd" clip-rule="evenodd" d="M3.655 1.829C2.126 3.519 2 20.148 2 220.772V437.887L4.223 439.443C6.208 440.834 21.331 441 146.223 441C284.667 441 286.019 440.981 288 439C289.1 437.9 290 436.1 290 435C290 433.9 289.1 432.1 288 431C286.02 429.02 284.667 429 150 429H14V220.5V12H161.5H309V150.809C309 260.341 309.264 289.953 310.25 291.208C312.589 294.184 315.754 294.337 318.483 291.608L321 289.091V146.545C321 5.33298 320.981 3.981 319 2C317.017 0.017 315.667 0 161.155 0C11.445 0 5.245 0.0719986 3.655 1.829ZM108.557 55.223C106.325 58.409 106.626 60.561 109.635 62.927C112.219 64.96 113.21 65 161.412 65C215.461 65 215 65.051 215 59.098C215 52.835 216.467 53 160.728 53H110.113L108.557 55.223ZM128.557 88.223C126.325 91.409 126.626 93.561 129.635 95.927C132.164 97.917 133.444 98 161.412 98C193.556 98 195 97.746 195 92.098C195 86.105 194.41 86 160.728 86C130.225 86 130.108 86.008 128.557 88.223ZM49 164C47.9 165.1 47 166.9 47 168C47 169.1 47.9 170.9 49 172C50.947 173.947 52.333 174 101.345 174C148.848 174 151.783 173.897 153.345 172.171C155.707 169.561 155.434 165.418 152.777 163.557C150.838 162.198 144.212 162 100.777 162C52.333 162 50.946 162.054 49 164ZM48.557 209.223C46.325 212.409 46.626 214.561 49.635 216.927C52.264 218.995 52.509 219 161.5 219C270.491 219 270.736 218.995 273.365 216.927C276.374 214.561 276.675 212.409 274.443 209.223L272.887 207H161.5H50.113L48.557 209.223ZM50.28 252.02C47.26 253.235 46.352 257.362 48.413 260.507L50.046 263H161.5H272.954L274.587 260.507C276.739 257.223 275.718 253.224 272.407 251.965C269.141 250.723 53.37 250.777 50.28 252.02ZM397.907 284.326C392.125 287.378 387.451 293.626 385.957 300.3L384.761 305.646L367.611 314.204L350.461 322.763L344.371 317.039C336.933 310.047 330.098 306.515 324 306.512C319.964 306.509 317.284 307.884 298 319.85C286.175 327.188 275.375 333.968 274 334.917C259.903 344.645 272.32 382.954 298 408.961C308.703 419.8 314.472 423.231 321.993 423.231C326.455 423.231 328.529 422.156 350.524 408.454C372.042 395.047 374.415 393.297 376.099 389.588C377.121 387.34 377.966 383.434 377.978 380.91C377.997 376.987 375.455 364.857 373.597 360C373.191 358.939 377.441 355.174 388.117 347.136L403.211 335.771L409.024 337.005C416.934 338.684 423.852 337.032 429.219 332.183C435.194 326.785 437.373 321.797 437.412 313.423C437.439 307.415 436.952 305.344 434.185 299.725C426.789 284.7 410.388 277.739 397.907 284.326ZM218 289.647C210.49 290.592 199.013 295.211 192.082 300.079C160.189 322.476 159.838 370.943 191.404 393.469C204.969 403.148 220.169 406.655 235.505 403.641C245.243 401.728 255.074 397.34 261.013 392.257C266.254 387.771 266.346 382.843 261.226 380.896C259.117 380.094 257.738 380.588 252.441 384.038C244.051 389.504 236.955 392.077 228.5 392.717C215.519 393.7 202.601 388.761 192.974 379.134C175.192 361.351 175.257 332.584 193.119 314.722C207.381 300.458 228.261 297.218 246.465 306.444C250.334 308.405 254.218 310.007 255.095 310.004C259.339 309.993 261.585 302.706 258.25 299.769C255.606 297.441 247.154 293.417 241.191 291.648C235.474 289.952 223.671 288.933 218 289.647ZM401.635 296.073C398.138 298.823 398.309 299.626 402.541 300.313C412.887 301.992 419.58 313.084 415.972 322.574C414.602 326.177 415.366 326.673 419.355 324.77C422.868 323.095 426.004 317.936 425.994 313.849C425.978 306.849 421.009 298.608 414.901 295.449C410.806 293.331 404.758 293.616 401.635 296.073ZM48.413 298.493C46.301 301.716 47.213 305.32 50.523 306.829C52.364 307.667 65.652 308 97.325 308C146.097 308 146 308.012 146 302.015C146 295.825 147.445 296 96.452 296H50.046L48.413 298.493ZM260.218 318.173C247.173 330.368 234.176 342.576 231.336 345.303L226.173 350.261L218.248 344.131C209.794 337.591 206.529 336.653 203.575 339.918C200.309 343.526 201.921 346.037 213.425 355.25C219.618 360.21 225.29 364 226.521 364C227.988 364 238.956 354.397 260.346 334.384C286.918 309.523 292 304.33 292 302.039C292 298.831 289.253 296 286.139 296C284.647 296 276.277 303.16 260.218 318.173ZM378.75 322.058C367.887 327.532 359 332.29 359 332.633C359 333.66 367.448 346.915 368.13 346.959C368.821 347.004 399.12 324.03 402.75 320.71C403.988 319.578 405 317.862 405 316.897C405 314.65 402.347 311.984 400.179 312.053C399.255 312.083 389.613 316.585 378.75 322.058ZM309 327.111C301.025 332.109 294.279 336.412 294.008 336.674C293.738 336.936 294.413 337.65 295.508 338.261C299.28 340.364 308.238 349.517 313.978 357.133C323.804 370.17 330.48 383.623 333.844 397.168L335.5 403.837L350.75 394.301L366 384.766V380.488C366 371.849 359.337 355.327 350.679 342.5C343.351 331.644 328.758 317.964 324.554 318.012C323.974 318.019 316.975 322.113 309 327.111ZM49.635 342.073C46.626 344.439 46.325 346.591 48.557 349.777C50.109 351.994 50.2 352 81.5 352C112.8 352 112.891 351.994 114.443 349.777C116.579 346.728 116.406 345.315 113.545 342.455L111.091 340H81.68C53.441 340 52.165 340.083 49.635 342.073ZM280 349.835C280 358.847 286.667 374.847 296.161 388.619C304.351 400.5 319.057 413.319 322.24 411.352C323.69 410.455 322.989 402.175 320.885 395.355C315.535 378.012 299.874 355.339 288.054 347.826C281.417 343.607 280 343.96 280 349.835Z" fill="#3D3D3D"/>
</svg>
