<svg width="248" height="252" viewBox="0 0 248 252" fill="none" xmlns="http://www.w3.org/2000/svg">
<path fill-rule="evenodd" clip-rule="evenodd" d="M94.202 1.99734C83.349 4.84134 75.522 9.43335 66.99 17.9653C57.165 27.7903 52.969 35.8003 49.568 51.2253C49.235 52.7383 48.335 53.9753 47.57 53.9753C46.804 53.9753 45.013 55.3603 43.589 57.0523C40.552 60.6613 40.237 66.6183 42.433 78.9013C43.858 86.8693 45.109 88.5303 50.441 89.5303C53.153 90.0393 53.877 90.9433 56.313 96.8643C62.264 111.327 74.654 127.232 85.663 134.54C100.72 144.534 118.28 144.534 133.337 134.54C144.356 127.225 155.878 112.489 162.52 97.2143C165.078 91.3313 166.439 89.4103 168.733 88.4453C173.558 86.4163 175.599 82.7783 177.384 73.0203C179.288 62.6143 178.5 59.1453 173.269 54.8923C171.029 53.0713 169.652 50.3793 167.687 43.9753C157.861 11.9593 125.889 -6.30366 94.202 1.99734ZM100 9.08934C86.46 11.2573 71.491 21.9933 63.75 35.0863C57.876 45.0223 57.837 44.9763 72.25 44.9673C88.014 44.9583 96.026 43.6113 103.258 39.7573C111.103 35.5763 121.034 24.5673 123.589 17.2193C123.638 17.0793 129.713 19.8493 137.089 23.3763C144.465 26.9033 150.725 29.5643 151 29.2893C152.263 28.0303 138.173 16.4863 131.59 13.3873C121.252 8.52134 111.683 7.21934 100 9.08934ZM127 28.9563C127 31.2323 113.693 43.8583 108.271 46.7273C99.171 51.5423 95.682 52.2053 76 52.8603L57.5 53.4753L57.19 57.2253C56.911 60.5973 56.596 60.9753 54.062 60.9753C49.824 60.9753 48.799 62.8623 49.918 68.5983C50.442 71.2803 51.145 75.1633 51.48 77.2253C52.063 80.8083 52.263 80.9753 55.965 80.9753C59.754 80.9753 59.877 81.0913 61.56 86.2253C67.904 105.587 81.71 123.472 95.789 130.566C100.647 133.014 102.695 133.446 109.5 133.459C116.398 133.473 118.396 133.048 124 130.378C137.852 123.777 150.77 107.457 157.561 87.9763C159.637 82.0203 160.088 81.4493 162.933 81.1603C166.679 80.7813 168.56 78.1403 169.477 71.9753C169.845 69.5003 170.354 66.7353 170.607 65.8303C171.227 63.6183 168.418 60.9753 165.448 60.9753C163.742 60.9753 162.914 60.3183 162.613 58.7253C162.379 57.4883 161.583 53.5503 160.844 49.9753L159.5 43.4753L144 35.7313C135.475 31.4723 128.162 27.9843 127.75 27.9813C127.338 27.9783 127 28.4173 127 28.9563ZM140.989 179.1C129.723 206.993 125.385 216.722 124.825 215.35C124.109 213.597 119 179.403 119 176.363C119 175.6 119.804 174.975 120.786 174.975C121.983 174.975 123.591 172.91 125.653 168.725L128.733 162.475L125.652 156.225L122.571 149.975H109.999H97.427L94.347 156.225L91.267 162.475L94.348 168.725C96.41 172.907 98.02 174.975 99.215 174.975C100.197 174.975 101 175.372 101 175.856C101 177.521 94.984 218.325 94.696 218.612C94.538 218.771 87.721 202.293 79.548 181.994C71.375 161.696 64.352 144.544 63.941 143.879C62.886 142.172 32.483 151.839 25.294 156.166C18.614 160.188 9.468 169.762 5.783 176.59C0.565001 186.259 0 190.76 0 222.685V251.975H109.563H219.127L218.801 220.225C218.492 190.219 218.353 188.178 216.272 183.065C211.795 172.065 203.721 162.213 194.147 156.07C190.132 153.493 159.433 140.975 157.129 140.975C156.721 140.975 149.458 158.131 140.989 179.1ZM142.966 196.343C132.953 221.166 124.541 242.038 124.273 242.725C123.888 243.713 132.914 243.975 167.393 243.975H211V220.524C211 195.452 210.283 189.545 206.257 181.475C200.109 169.148 192.801 163.433 173.789 156.087L161.171 151.211L142.966 196.343ZM45.848 156.417C39.99 158.246 32.862 161.014 30.009 162.567C20.422 167.785 11.693 179.669 9.061 191.087C8.504 193.5 8.038 206.387 8.024 219.725L8 243.975H51.607C86.089 243.975 95.111 243.713 94.721 242.725C75.687 194.511 58.525 152.989 57.649 153.033C57.017 153.065 51.707 154.588 45.848 156.417ZM100.512 160.937C100.169 162.016 100.38 163.816 100.98 164.937C101.927 166.707 103.048 166.975 109.5 166.975C115.952 166.975 117.073 166.707 118.02 164.937C118.62 163.816 118.831 162.016 118.488 160.937C117.935 159.194 116.933 158.975 109.5 158.975C102.067 158.975 101.065 159.194 100.512 160.937ZM108.214 181.992C100.755 232.83 100.578 234.581 102.423 239.411L104.165 243.975H109.536H114.906L117.025 239.225L119.143 234.475L115.032 206.475C112.771 191.075 110.559 177.582 110.117 176.492C109.529 175.041 109.017 176.519 108.214 181.992Z" fill="black"/>
<path fill-rule="evenodd" clip-rule="evenodd" d="M157.313 164.523C155.016 165.855 155 166.071 155 195.5C155 225.104 155.009 225.223 157.408 226.501C158.03 226.832 172.911 227 201.749 227H245.154L246.577 225.583L248 224.167V195.5V166.833L246.577 165.417L245.154 164L201.659 164.015C173.023 164.024 157.874 164.198 157.313 164.523Z" fill="#FFD571"/>
<rect x="162" y="177" width="23" height="8" rx="2" fill="#FF695A"/>
<rect x="162" y="190" width="23" height="9" rx="2" fill="#FF695A"/>
<rect x="162" y="204" width="23" height="8" rx="2" fill="#FF695A"/>
<rect x="190" y="177" width="23" height="8" rx="2" fill="#FF695A"/>
<rect x="190" y="190" width="23" height="9" rx="2" fill="#FF695A"/>
<rect x="190" y="204" width="23" height="8" rx="2" fill="#FF695A"/>
<rect x="218" y="177" width="23" height="8" rx="2" fill="#FF695A"/>
<rect x="218" y="190" width="23" height="9" rx="2" fill="#FF695A"/>
<rect x="218" y="204" width="23" height="8" rx="2" fill="#FF695A"/>
</svg>
