<svg width="248" height="252" viewBox="0 0 248 252" fill="none" xmlns="http://www.w3.org/2000/svg">
<path d="M45.848 156.417C39.99 158.246 32.862 161.014 30.009 162.567C20.422 167.785 11.693 179.669 9.061 191.087C8.504 193.5 8.038 206.387 8.024 219.725L8 243.975H51.607C86.089 243.975 95.111 243.713 94.721 242.725C75.687 194.511 58.525 152.989 57.649 153.033C57.017 153.065 51.707 154.588 45.848 156.417Z" fill="#F5F5F5"/>
<path fill-rule="evenodd" clip-rule="evenodd" d="M66.99 17.9653C75.522 9.43335 83.349 4.84134 94.202 1.99734C125.889 -6.30366 157.861 11.9593 167.687 43.9753C169.652 50.3793 171.029 53.0713 173.269 54.8923C178.5 59.1453 179.288 62.6143 177.384 73.0203C175.599 82.7783 173.558 86.4163 168.733 88.4453C166.439 89.4103 165.078 91.3313 162.52 97.2143C155.878 112.489 144.356 127.225 133.337 134.54C118.28 144.534 100.72 144.534 85.663 134.54C74.654 127.232 62.264 111.327 56.313 96.8643C53.877 90.9433 53.153 90.0393 50.441 89.5303C45.109 88.5303 43.858 86.8693 42.433 78.9013C40.237 66.6183 40.552 60.6613 43.589 57.0523C45.013 55.3603 46.804 53.9753 47.57 53.9753C48.335 53.9753 49.235 52.7383 49.568 51.2253C52.969 35.8003 57.165 27.7903 66.99 17.9653ZM63.75 35.0863C71.491 21.9933 86.46 11.2573 100 9.08934C111.683 7.21934 121.252 8.52134 131.59 13.3873C138.173 16.4863 152.263 28.0303 151 29.2893C150.725 29.5643 144.465 26.9033 137.089 23.3763C129.713 19.8493 123.638 17.0793 123.589 17.2193C121.034 24.5673 111.103 35.5763 103.258 39.7573C96.026 43.6113 88.014 44.9583 72.25 44.9673C72.1835 44.9674 72.1173 44.9674 72.0514 44.9675C64.5302 44.9723 61.0072 44.9745 60.2232 43.5103C59.5325 42.2201 60.9684 39.7912 63.6697 35.2221C63.6964 35.1771 63.7231 35.1318 63.75 35.0863ZM108.271 46.7273C113.693 43.8583 127 31.2323 127 28.9563C127 28.4173 127.338 27.9783 127.75 27.9813C128.162 27.9843 135.475 31.4723 144 35.7313L159.5 43.4753L160.844 49.9753C161.583 53.5503 162.379 57.4883 162.613 58.7253C162.914 60.3183 163.742 60.9753 165.448 60.9753C168.418 60.9753 171.227 63.6183 170.607 65.8303C170.354 66.7353 169.845 69.5003 169.477 71.9753C168.56 78.1403 166.679 80.7813 162.933 81.1603C160.088 81.4493 159.637 82.0203 157.561 87.9763C150.77 107.457 137.852 123.777 124 130.378C118.396 133.048 116.398 133.473 109.5 133.459C102.695 133.446 100.647 133.014 95.789 130.566C81.71 123.472 67.904 105.587 61.56 86.2253C59.877 81.0913 59.754 80.9753 55.965 80.9753C52.263 80.9753 52.063 80.8083 51.48 77.2253C51.145 75.1633 50.442 71.2803 49.918 68.5983C48.799 62.8623 49.824 60.9753 54.062 60.9753C56.596 60.9753 56.911 60.5973 57.19 57.2253L57.5 53.4753L76 52.8603C95.682 52.2053 99.171 51.5423 108.271 46.7273Z" fill="#F5F5F5"/>
<path d="M127 28.9563C127 31.2323 113.693 43.8583 108.271 46.7273C99.171 51.5423 95.682 52.2053 76 52.8603L57.5 53.4753L57.19 57.2253C56.911 60.5973 56.596 60.9753 54.062 60.9753C49.824 60.9753 48.799 62.8623 49.918 68.5983C50.442 71.2803 51.145 75.1633 51.48 77.2253C52.063 80.8083 52.263 80.9753 55.965 80.9753C59.754 80.9753 59.877 81.0913 61.56 86.2253C67.904 105.587 81.71 123.472 95.789 130.566C100.647 133.014 102.695 133.446 109.5 133.459C116.398 133.473 118.396 133.048 124 130.378C137.852 123.777 150.77 107.457 157.561 87.9763C159.637 82.0203 160.088 81.4493 162.933 81.1603C166.679 80.7813 168.56 78.1403 169.477 71.9753C169.845 69.5003 170.354 66.7353 170.607 65.8303C171.227 63.6183 168.418 60.9753 165.448 60.9753C163.742 60.9753 162.914 60.3183 162.613 58.7253C162.379 57.4883 161.583 53.5503 160.844 49.9753L159.5 43.4753L144 35.7313C135.475 31.4723 128.162 27.9843 127.75 27.9813C127.338 27.9783 127 28.4173 127 28.9563Z" fill="#F5F5F5"/>
<path d="M100 9.08934C86.46 11.2573 71.491 21.9933 63.75 35.0863L63.6697 35.2221C60.9684 39.7912 59.5325 42.2201 60.2232 43.5103C61.0072 44.9745 64.5302 44.9723 72.0514 44.9675L72.25 44.9673C88.014 44.9583 96.026 43.6113 103.258 39.7573C111.103 35.5763 121.034 24.5673 123.589 17.2193C123.638 17.0793 129.713 19.8493 137.089 23.3763C144.465 26.9033 150.725 29.5643 151 29.2893C152.263 28.0303 138.173 16.4863 131.59 13.3873C121.252 8.52134 111.683 7.21934 100 9.08934Z" fill="#F5F5F5"/>
<path d="M100.512 160.937C100.169 162.016 100.38 163.816 100.98 164.937C101.927 166.707 103.048 166.975 109.5 166.975C115.952 166.975 117.073 166.707 118.02 164.937C118.62 163.816 118.831 162.016 118.488 160.937C117.935 159.194 116.933 158.975 109.5 158.975C102.067 158.975 101.065 159.194 100.512 160.937Z" fill="#F5F5F5"/>
<path d="M142.966 196.343C132.953 221.166 124.541 242.038 124.273 242.725C123.888 243.713 132.914 243.975 167.393 243.975H211V220.524C211 195.452 210.283 189.545 206.257 181.475C200.109 169.148 192.801 163.433 173.789 156.087L161.171 151.211L142.966 196.343Z" fill="#F5F5F5"/>
<path d="M108.214 181.992C100.755 232.83 100.578 234.581 102.423 239.411L104.165 243.975H109.536H114.906L117.025 239.225L119.143 234.475L115.032 206.475C112.771 191.075 110.559 177.582 110.117 176.492C109.529 175.041 109.017 176.519 108.214 181.992Z" fill="#F5F5F5"/>
<path fill-rule="evenodd" clip-rule="evenodd" d="M157.313 164.523C155.016 165.855 155 166.071 155 195.5C155 225.104 155.009 225.223 157.408 226.501C158.03 226.832 172.911 227 201.749 227H245.154L246.577 225.583L248 224.167V195.5V166.833L246.577 165.417L245.154 164L201.659 164.015C173.023 164.024 157.874 164.198 157.313 164.523Z" fill="#FFD571"/>
<rect x="162" y="177" width="23" height="8" rx="2" fill="#FF695A"/>
<rect x="162" y="190" width="23" height="9" rx="2" fill="#FF695A"/>
<rect x="162" y="204" width="23" height="8" rx="2" fill="#FF695A"/>
<rect x="190" y="177" width="23" height="8" rx="2" fill="#FF695A"/>
<rect x="190" y="190" width="23" height="9" rx="2" fill="#FF695A"/>
<rect x="190" y="204" width="23" height="8" rx="2" fill="#FF695A"/>
<rect x="218" y="177" width="23" height="8" rx="2" fill="#FF695A"/>
<rect x="218" y="190" width="23" height="9" rx="2" fill="#FF695A"/>
<rect x="218" y="204" width="23" height="8" rx="2" fill="#FF695A"/>
</svg>
