<svg width="508" height="430" viewBox="0 0 508 430" fill="none" xmlns="http://www.w3.org/2000/svg">
<path fill-rule="evenodd" clip-rule="evenodd" d="M35.816 0.722173C19.572 3.12917 5.86696 15.7232 1.57996 32.1832C-0.206037 39.0402 -0.605037 75.7622 1.04296 81.6922C2.15996 85.7132 7.17496 91.0082 11.362 92.5872C13.129 93.2532 25.875 93.6482 45.597 93.6482H77.017L77.282 251.398C77.524 395.617 77.689 409.46 79.2 412.788C81.767 418.44 87.551 424.177 93.305 426.778L98.547 429.148H235.047H371.547L376.835 426.759C383.532 423.732 389.572 416.985 391.552 410.32C393.82 402.682 393.646 376.353 391.295 371.648C388.925 366.903 384.096 364.651 376.285 364.65L370.022 364.648L370.285 328.084L370.547 291.52L379.593 287.733C393.677 281.836 407.999 274.163 420.81 265.65C434.953 256.251 441.047 251.125 441.047 248.629C441.047 246.105 439.583 245.327 432.547 244.112L426.547 243.076L444.047 236.193C453.672 232.408 462.604 228.374 463.895 227.229C470.7 221.198 490.5 186.795 489.835 182.159C489.626 180.699 488.353 179.86 485.19 179.097L480.834 178.047L487.19 175.558C491.497 173.872 493.929 172.276 494.73 170.609C498.301 163.182 505.906 130.329 504.751 127.318C504.421 126.46 502.441 125.479 500.35 125.137C492.474 123.851 492.249 123.19 498.847 120.723C502.223 119.46 505.438 117.882 505.991 117.216C506.544 116.549 507.296 110.406 507.661 103.564C508.541 87.1072 508.534 87.1002 495.253 91.5932C483.254 95.6522 469.019 102.007 456.836 108.744C451.727 111.569 447.322 114.09 447.047 114.346C446.772 114.603 446.322 117.588 446.047 120.98L445.547 127.148L443.331 123.398C442.112 121.335 440.594 119.648 439.958 119.648C438.395 119.648 427.73 127.329 421.442 132.983L416.336 137.573L415.668 148.861C415.301 155.069 414.725 162.124 414.389 164.538L413.778 168.928L409.662 161.038C404.411 150.969 402.938 150.604 396.789 157.845C390.995 164.666 382.316 178.096 377.529 187.648C373.964 194.762 373.704 195.945 372.481 210.648C371.772 219.173 371.053 226.373 370.883 226.648C370.714 226.923 370.344 181.473 370.061 125.648L369.547 24.1482L367.165 18.8782C364.242 12.4092 355.963 4.57617 349.333 2.00417C344.752 0.227171 338.064 0.14217 193.047 0.0111699C109.722 -0.0648301 38.968 0.255173 35.816 0.722173ZM96.459 93.0172C96.17 93.7702 96.071 96.8042 96.24 99.7582C96.49 104.139 96.904 105.197 98.481 105.497C102.307 106.226 104.614 98.4442 102.012 93.5822C100.821 91.3562 97.236 90.9922 96.459 93.0172ZM96.482 115.956C96.206 116.676 96.108 122.633 96.264 129.194C96.522 140.073 96.717 141.157 98.481 141.495C101.935 142.157 103.047 138.967 103.047 128.391C103.047 122.96 102.581 117.646 102.012 116.582C100.838 114.388 97.24 113.981 96.482 115.956Z" fill="black" fill-opacity="0.071"/>
<path d="M360.547 257.648L359.047 285.648L366.547 289.148L421.047 262.148L434.047 248.648L415.547 243.648L464.547 222.648L485.547 184.148L471.047 180.648L492.047 170.148L499.047 129.648L482.547 125.648L502.047 115.633L504.547 107.148L502.047 93.6482L451.547 116.648L448.547 138.148L440.047 125.648L421.047 138.148L415.547 178.648L402.047 157.648L377.547 198.148L374.047 237.148L366.547 228.148L360.547 257.648Z" fill="#FFD571" stroke="#FFD571"/>
<path fill-rule="evenodd" clip-rule="evenodd" d="M32.3279 1.61118C21.2619 4.26318 9.76794 13.7462 4.82994 24.2992C0.871942 32.7572 -0.195058 41.7252 0.207942 63.1482C0.522942 79.8742 0.709942 81.4102 2.84694 84.8482C4.11294 86.8822 6.81294 89.5822 8.84694 90.8482C12.4829 93.1082 13.1169 93.1532 45.2969 93.4492L78.0469 93.7492L78.0689 251.449C78.0899 402.015 78.1739 409.33 79.9179 413.17C82.3719 418.572 87.4349 423.454 93.5259 426.29L98.5469 428.628L234.671 428.638C384.129 428.649 375.003 429.019 383.084 422.618C385.279 420.88 388.149 417.104 389.744 413.856C392.482 408.281 392.547 407.751 392.547 391.107C392.547 376.511 392.294 373.679 390.783 371.371C387.941 367.028 384.519 365.415 377.015 364.878L370.047 364.379V327.759V291.138L376.297 288.744C392.997 282.347 415.754 269.57 431.281 257.875C444.34 248.037 444.379 246.54 431.638 244.188L425.547 243.063L444.047 235.781C457.231 230.591 463.198 227.73 464.812 225.823C470.184 219.479 480.296 203.335 485.111 193.415C490.985 181.315 490.891 180.328 483.729 178.912L479.588 178.093L486.567 175.566L493.547 173.04L496.841 163.094C501.476 149.102 505.486 128.882 503.986 127.074C503.353 126.312 500.623 125.395 497.919 125.037C495.215 124.678 492.801 124.059 492.556 123.662C492.31 123.265 495.247 121.709 499.082 120.204C507.03 117.086 506.661 117.83 507.463 103.295C508.309 87.9752 507.258 87.3232 491.253 93.2312C480.821 97.0822 453.107 110.439 449.119 113.539C447.123 115.09 446.61 116.546 446.235 121.721L445.78 128.017L443.89 124.333C442.603 121.826 441.316 120.648 439.862 120.648C437.909 120.648 428.46 127.219 420.234 134.297L416.922 137.148L415.924 151.148C414.438 171.985 414.629 171.684 409.44 161.398C406.333 155.24 404.488 152.648 403.213 152.648C399.885 152.648 385.944 171.861 378.129 187.216C374.075 195.183 374.009 195.486 372.846 211.466C372.198 220.366 371.315 227.648 370.885 227.648C370.454 227.648 369.977 182.086 369.824 126.398L369.547 25.1482L366.946 19.6022C363.506 12.2682 359.342 7.68218 352.866 4.09418L347.547 1.14818L191.547 0.994177C105.747 0.909177 34.0989 1.18718 32.3279 1.61118ZM29.3489 9.69318C22.7949 12.2852 15.2499 19.0132 11.8469 25.3002C7.78694 32.8002 6.86694 39.9832 7.22494 61.3782L7.54694 80.6072L10.3179 83.3782L13.0899 86.1482L45.5679 86.4372L78.0469 86.7272L78.0139 65.9372C77.9959 54.5032 77.5909 42.1202 77.1139 38.4192C75.5409 26.2262 69.4549 17.2852 58.8729 11.6232C53.2459 8.61218 51.5529 8.20518 43.5469 7.93818C36.3169 7.69618 33.5249 8.04118 29.3489 9.69318ZM72.4359 13.6172C75.5669 16.9002 79.3479 22.1872 80.8379 25.3672L83.5469 31.1482L84.0469 219.148C84.3329 326.857 84.9299 408.002 85.4449 409.148C91.2209 422.014 107.118 425.811 117.399 416.78C121.863 412.859 122.526 409.886 123.047 391.469C123.605 371.747 124.189 369.933 131.118 366.4C134.323 364.765 142.002 364.651 248.797 364.65L363.047 364.648V329.242C363.047 294.86 362.992 293.85 361.133 294.336C360.081 294.611 354.595 301.094 348.942 308.742C338.775 322.498 336.647 324.281 334.083 321.192C332.621 319.43 332.18 320.189 344.075 304.007L353.735 290.865L354.355 278.007C355.071 263.144 357.013 249.619 360.577 234.69L363.093 224.148L362.82 124.648L362.547 25.1482L360.385 21.1482C359.195 18.9482 356.72 15.7082 354.885 13.9492C347.842 7.19818 358.518 7.64818 205.427 7.64818H66.7429L72.4359 13.6172ZM234.723 44.3062C233.385 45.6432 234.086 48.5982 235.981 49.6132C237.237 50.2852 254.546 50.6482 285.29 50.6482C335.412 50.6482 336.748 50.5272 335.892 46.0822C335.531 44.2052 334.047 44.1402 285.459 43.8892C257.926 43.7462 235.095 43.9342 234.723 44.3062ZM126.687 85.1432C126.37 85.9712 126.37 87.3252 126.687 88.1532C127.197 89.4812 139.46 89.6272 231.406 89.4032L335.547 89.1482V86.6482V84.1482L231.406 83.8932C139.46 83.6692 127.197 83.8152 126.687 85.1432ZM492.161 100.202C482.385 103.963 470.41 109.504 461.388 114.441L453.228 118.907L452.514 130.329C451.833 141.228 450.767 144.648 448.048 144.648C446.706 144.648 443.771 140.483 441.126 134.826C439.795 131.978 438.269 129.648 437.737 129.648C437.204 129.648 433.749 132.088 430.058 135.07L423.348 140.491L422.082 159.32C420.368 184.815 420.117 186.148 417.019 186.148C414.872 186.148 413.753 184.601 408.5 174.367L402.454 162.586L400.377 164.867C396.868 168.721 390.356 178.842 385.447 188.069L380.772 196.858L379.033 219.829C378.077 232.463 376.837 243.258 376.277 243.818C374.439 245.656 371.638 244.198 369.424 240.249L367.246 236.367L365.654 243.757C362.898 256.554 360.138 279.648 361.365 279.648C361.669 279.648 384.312 249.273 411.684 212.148C443.158 169.458 462.066 144.648 463.126 144.648C464.048 144.648 465.367 145.329 466.058 146.161C467.707 148.148 469.428 145.682 413.714 221.143C388.133 255.79 367.347 284.282 367.524 284.458C368.153 285.087 385.724 277.409 396.047 271.994C406.107 266.718 429.546 251.814 428.862 251.129C428.681 250.948 424.517 250.099 419.608 249.243C410.026 247.57 408.669 246.887 409.203 244.004C409.463 242.601 415.643 239.706 434.51 232.148L459.473 222.148L466.155 212.385C475.319 198.997 481.685 186.66 479.976 185.604C479.262 185.163 476.055 184.497 472.85 184.125C469.545 183.742 466.054 182.652 464.785 181.609C462.548 179.771 462.548 179.769 464.547 177.82C465.647 176.748 471.54 173.979 477.642 171.666L488.737 167.461L491.306 158.305C494.588 146.607 497.533 132.801 496.885 132.152C496.609 131.876 491.78 130.895 486.155 129.972C478.128 128.654 475.704 127.876 474.89 126.354C473.37 123.515 474.923 122.445 488.297 117.119L500.047 112.44L500.058 108.794C500.064 106.789 500.348 103.461 500.689 101.398C501.438 96.8692 500.99 96.8062 492.161 100.202ZM127.618 124.219C126.754 125.084 126.047 126.119 126.047 126.519C126.047 129.57 128.682 129.648 231.68 129.648H334.912L335.602 127.474C337.175 122.52 339.957 122.648 230.927 122.648C139.772 122.648 129.026 122.811 127.618 124.219ZM126.977 164.232C126.024 165.381 125.951 166.273 126.714 167.482C127.684 169.019 135.75 169.148 231.047 169.148C326.344 169.148 334.41 169.019 335.38 167.482C336.143 166.273 336.07 165.381 335.117 164.232C333.933 162.806 323.582 162.648 231.047 162.648C138.512 162.648 128.161 162.806 126.977 164.232ZM127.152 204.021C125.614 205.874 126.783 208.548 129.407 209.181C130.584 209.465 177.173 209.574 232.938 209.423C326.289 209.17 334.412 209.016 335.38 207.482C336.143 206.273 336.07 205.381 335.117 204.232C333.933 202.806 323.582 202.648 231.047 202.648C145.144 202.648 128.105 202.873 127.152 204.021ZM127.156 244.017C125.616 245.872 126.694 248.319 129.366 249.036C130.566 249.357 176.798 249.627 232.106 249.634C338.847 249.649 336.789 249.739 335.892 245.082C335.527 243.187 333.439 243.143 231.91 242.893C144.885 242.679 128.117 242.859 127.156 244.017ZM128.882 282.321C126.662 282.909 125.736 285.569 127.156 287.279C128.117 288.437 144.885 288.617 231.91 288.403C333.439 288.153 335.527 288.109 335.892 286.214C336.79 281.55 338.914 281.641 231.606 281.764C176.023 281.828 129.798 282.078 128.882 282.321ZM127.618 323.219C125.732 325.105 125.666 325.867 127.247 327.448C128.976 329.177 226.118 329.177 227.847 327.448C229.428 325.867 229.362 325.105 227.476 323.219C226.09 321.834 220.175 321.648 177.547 321.648C134.919 321.648 129.004 321.834 127.618 323.219ZM132.047 373.648C130.215 375.48 130.047 376.981 130.047 391.499C130.047 408.197 129.364 412.001 125.409 417.331C124.11 419.082 123.047 420.77 123.047 421.081C123.047 421.393 178.865 421.648 247.087 421.648C368.226 421.648 371.216 421.602 374.961 419.692C384.08 415.04 386.417 408.225 385.891 387.815C385.586 376.001 385.326 374.321 383.606 373.065C381.956 371.86 363.116 371.648 257.856 371.648C135.38 371.648 134.025 371.67 132.047 373.648Z" fill="black" fill-opacity="0.992"/>
</svg>
