<svg width="513" height="512" viewBox="0 0 513 512" fill="none" xmlns="http://www.w3.org/2000/svg">
<rect x="185" y="12" width="321" height="489" fill="#FFF0CE"/>
<rect x="235" y="450" width="123" height="51" fill="#FFD571"/>
<path d="M77 408L10 474.5L15 494L39 502.5L77 465L191.5 342L210 359L205.5 380.5L232.5 408L297.5 342L269 312.5L245.5 324.5L184.5 259.5L191.5 234L167.5 207.5L101 272L123 298.5L145.5 295L167.5 317L77 408Z" fill="#FFD571" stroke="#FFD571"/>
<path fill-rule="evenodd" clip-rule="evenodd" d="M192.165 1.19879C186.419 3.26379 181.547 7.60779 178.804 13.1128L176.255 18.2278V102.006V185.784L179.505 187.448C181.292 188.363 184.892 190.891 187.505 193.067L192.255 197.021V108.883V20.7438L194.719 18.2798L197.184 15.8148L344.684 16.0748C484.752 16.3218 492.274 16.4248 493.969 18.1208C495.669 19.8198 495.767 28.8758 496.013 205.871L496.271 391.835V407.835V495.835H400.255H384.255H368.255V478.013C368.255 464.444 367.88 459.092 366.685 455.585C364.687 449.72 357.083 442.404 351.392 440.872C348.579 440.114 330.585 439.857 294.024 440.052C235.166 440.365 238.212 440.031 231.332 446.912C225.096 453.148 224.786 454.459 224.43 476.085L224.105 495.835H210.634C197.666 495.835 197.073 495.744 194.71 493.38L192.255 490.926V447.252V403.577L188.685 399.626C186.722 397.453 184.21 393.573 183.104 391.005L181.092 386.335L178.679 389.335L176.265 392.335L176.282 442.835C176.301 499.026 176.137 497.563 183.21 504.636C190.457 511.883 180.599 511.305 302.001 511.602L411.247 511.87L422.101 511.602H512.275V453.085V406.215L512.015 211.275C511.772 29.0528 511.643 16.1298 510.034 13.1908C507.833 9.16979 502.92 4.25679 498.899 2.05579C495.97 0.451794 485.519 0.319794 345.755 0.121794C225.37 -0.0492063 195.046 0.163794 192.165 1.19879ZM246.71 82.2898C245.162 83.8368 244.255 85.8868 244.255 87.8348C244.255 89.7828 245.162 91.8328 246.71 93.3798L249.164 95.8348H344.255H439.346L441.8 93.3798C445.048 90.1328 445.048 85.5368 441.8 82.2898L439.346 79.8348H344.255H249.164L246.71 82.2898ZM246.71 122.29C245.162 123.837 244.255 125.887 244.255 127.835C244.255 129.783 245.162 131.833 246.71 133.38L249.164 135.835H344.255H439.346L441.8 133.38C445.048 130.133 445.048 125.537 441.8 122.29L439.346 119.835H344.255H249.164L246.71 122.29ZM246.71 162.29C245.162 163.837 244.255 165.887 244.255 167.835C244.255 169.783 245.162 171.833 246.71 173.38L249.164 175.835H344.255H439.346L441.8 173.38C445.048 170.133 445.048 165.537 441.8 162.29L439.346 159.835H344.255H249.164L246.71 162.29ZM158.755 201.237C157.105 201.965 142.181 216.503 125.591 233.545C93.313 266.7 92.169 268.232 93.677 276.273C94.464 280.465 101.727 289.304 113.953 300.948C120.551 307.232 122.826 308.773 126.981 309.769C132.779 311.16 138.797 310.01 143.596 306.592L146.455 304.557L152.011 310.112L157.566 315.668L147.161 325.904C141.438 331.534 130.005 341.872 121.755 348.878C103.117 364.704 92.865 375.259 78.059 393.866C64.738 410.606 58.368 416.807 45.307 425.748C25.915 439.024 6.975 456.826 3 465.513C-0.352 472.839 -0.168 485.366 3.403 492.983C6.629 499.864 12.26 505.678 18.832 508.912C25.892 512.387 38.584 512.387 45.755 508.912C54.683 504.586 69.655 487.912 85.181 465.004C94.728 450.918 100.017 445.379 120.277 428.246C137.222 413.917 144.239 406.803 155.963 392.067C165.793 379.711 180.584 362.79 187.158 356.381L192.238 351.427L195.829 354.881C201.217 360.064 201.696 361.407 199.342 364.713C195.115 370.649 194.79 379.28 198.527 386.335C200.348 389.773 222.648 412.056 225.939 413.726C228.936 415.248 236.207 415.109 239.346 413.471C240.771 412.727 252.495 401.367 265.4 388.227C300.17 352.82 303.01 349.657 303.798 345.46C305.195 338.01 303.842 335.393 291.956 322.556C278.465 307.986 273.96 304.835 266.624 304.835C259.764 304.835 256.612 306.114 251.731 310.879L247.708 314.807L228.726 295.571C218.285 284.991 205.735 272.203 200.837 267.152L191.93 257.969L195.074 254.389C196.803 252.419 198.99 249.352 199.935 247.572C202.242 243.224 202.186 234.356 199.824 229.835C197.287 224.98 175.466 202.904 171.537 201.217C167.536 199.499 162.678 199.506 158.755 201.237ZM246.71 202.29C245.162 203.837 244.255 205.887 244.255 207.835C244.255 209.783 245.162 211.833 246.71 213.38L249.164 215.835H344.255H439.346L441.8 213.38C445.048 210.133 445.048 205.537 441.8 202.29L439.346 199.835H344.255H249.164L246.71 202.29ZM137.584 244.334C122.828 259.458 110.626 272.221 110.468 272.696C109.93 274.311 129.359 293.835 131.503 293.835C132.628 293.835 135.712 291.81 138.358 289.335C146.296 281.91 147.315 282.279 162.506 298.076C169.519 305.368 175.533 312.356 175.869 313.604C176.206 314.853 175.937 317.189 175.271 318.797C173.644 322.724 152.692 343.625 137.255 356.72C117.858 373.174 105.082 386.051 92.496 401.835C78.249 419.7 68.452 429.431 56.402 437.681C43.085 446.8 33.821 454.473 25.068 463.635C18.437 470.575 17.311 472.281 16.71 476.288C14.901 488.352 25.295 498.237 36.317 494.935C43.66 492.735 55.589 479.706 71.202 456.835C82.015 440.994 88.605 433.977 108.255 417.382C125.556 402.77 132.691 395.372 149.258 374.866C163.854 356.8 184.975 334.608 189.265 332.831C191.548 331.885 192.908 331.863 195.017 332.737C198.904 334.347 221.255 358.323 221.255 360.883C221.255 363.788 218.944 367.849 215.344 371.272C213.645 372.887 212.255 375.146 212.255 376.29C212.255 377.598 216.066 382.169 222.519 388.6L232.783 398.829L260.101 370.828C275.126 355.428 287.27 342.392 287.087 341.86C286.266 339.468 267.934 320.835 266.401 320.835C265.458 320.835 262.227 323.36 259.221 326.446C252.912 332.922 248.472 335.264 245.053 333.916C243.789 333.418 234.205 324.305 223.755 313.665C168.947 257.86 172.255 261.439 172.255 257.964C172.255 255.332 173.556 253.356 179.255 247.335C183.105 243.267 186.255 239.401 186.255 238.742C186.255 237.464 166.375 216.835 165.144 216.835C164.741 216.835 152.339 229.21 137.584 244.334ZM246.71 242.29C245.162 243.837 244.255 245.887 244.255 247.835C244.255 249.783 245.162 251.833 246.71 253.38L249.164 255.835H344.255H439.346L441.8 253.38C445.048 250.133 445.048 245.537 441.8 242.29L439.346 239.835H344.255H249.164L246.71 242.29ZM246.71 282.29C243.78 285.219 243.546 288.883 246.139 291.23C247.918 292.84 248.377 292.815 254.389 290.78C263.661 287.641 273.763 288.335 281.746 292.659L287.61 295.835H363.478H439.346L441.8 293.38C445.048 290.133 445.048 285.537 441.8 282.29L439.346 279.835H344.255H249.164L246.71 282.29ZM496.271 407.835V495.835V424.569V407.835ZM244.57 456.842C240.764 458.375 240.255 460.964 240.255 478.769V495.835H296.255H352.255V479.382C352.255 461.808 351.627 458.781 347.598 456.945C344.621 455.589 247.921 455.492 244.57 456.842Z" fill="black"/>
<path d="M405.333 376.393C405.666 375.524 408.012 373.498 410.546 371.891C415.106 368.999 415.302 368.97 429.807 369.006C437.866 369.026 445.494 369.436 446.758 369.916C448.021 370.396 451.18 372.742 453.778 375.128C456.375 377.514 459.981 380.058 461.79 380.78C466.988 382.856 471.735 389.169 473.006 395.696C473.608 398.788 475.203 403.574 476.55 406.332C478.037 409.376 479 413.104 479 415.818C479 418.532 478.037 422.26 476.55 425.304C475.203 428.062 473.608 432.848 473.006 435.94C471.735 442.467 466.988 448.78 461.79 450.856C459.981 451.578 456.375 454.122 453.778 456.508C451.18 458.894 448.015 461.242 446.743 461.726C445.471 462.209 437.922 462.62 429.966 462.64C416.355 462.673 415.248 462.528 411.243 460.2C408.901 458.839 406.315 456.702 405.495 455.451C404.676 454.2 401.746 452.156 398.985 450.908C392.032 447.765 387 440.341 387 433.222C387 431.958 385.875 428.808 384.5 426.222C382.675 422.79 382 419.98 382 415.818C382 411.656 382.675 408.846 384.5 405.414C385.875 402.828 387 399.678 387 398.414C387 391.194 391.929 384.033 399.303 380.541C402.286 379.129 404.999 377.262 405.333 376.393Z" fill="#E17577"/>
<path fill-rule="evenodd" clip-rule="evenodd" d="M454.173 389.936C454.152 390.004 454.066 390.383 453.981 390.778C453.713 392.038 452.645 393.953 451.465 395.294C450.657 396.212 448.865 397.673 447.507 398.521C446.011 399.456 443.163 400.945 441.442 401.693C440.786 401.978 440.231 402.227 440.209 402.246C440.187 402.265 440.251 402.652 440.35 403.106C440.593 404.213 440.596 406.009 440.357 406.82C439.956 408.181 439.158 409.288 438.195 409.822C437.712 410.089 437.577 410.116 436.719 410.117C435.886 410.118 435.715 410.087 435.271 409.852C434.703 409.551 434.141 408.973 433.84 408.381C433.552 407.813 433.556 406.608 433.848 406.002C434.2 405.273 435.122 404.83 435.774 405.079C436.128 405.214 436.218 405.34 436.221 405.703C436.223 406.064 436.338 406.049 436.696 405.639C437.216 405.044 437.338 403.912 436.961 403.173C436.731 402.722 436.172 402.312 435.628 402.195C435.347 402.134 434.952 401.972 434.75 401.833C433.816 401.192 431.762 400.952 430.37 401.321C427.87 401.982 425.566 404.458 424.781 407.326C424.661 407.764 424.487 408.594 424.394 409.17L424.225 410.218L423.814 410.2C422.473 410.139 421.06 408.587 420.564 406.63C420.361 405.829 420.363 403.807 420.566 403.08C420.65 402.78 420.729 402.473 420.74 402.397C420.754 402.308 420.015 401.924 418.624 401.297C415.863 400.052 413.98 399.066 412.576 398.128C411.346 397.306 409.775 395.865 408.875 394.733C407.934 393.549 407.084 391.818 406.788 390.484C406.718 390.169 406.621 389.911 406.571 389.911C406.406 389.911 405.607 391.758 405.382 392.661C405.199 393.398 405.16 393.839 405.156 395.2C405.151 397.1 405.243 397.444 406.098 398.723C407.645 401.038 410.874 403.219 415.882 405.332C416.643 405.653 417.208 405.935 417.137 405.959C416.899 406.039 415.205 405.761 413.901 405.427C410.759 404.624 408.111 403.297 405.961 401.446C405.476 401.029 405.056 400.688 405.027 400.688C404.934 400.688 405.102 402.906 405.249 403.607C405.801 406.247 407.987 407.944 412.211 409.012C413.312 409.291 419.198 410.217 420.207 410.271C420.239 410.273 420.175 410.328 420.065 410.395C419.788 410.563 415.234 410.619 413.48 410.475C411.689 410.329 410.554 410.135 408.704 409.66C406.969 409.215 406.77 409.191 406.862 409.445C407.018 409.869 407.972 411.168 408.531 411.715C409.594 412.757 410.886 413.359 412.857 413.732C413.665 413.885 414.316 413.908 417.367 413.896C419.329 413.887 421.185 413.855 421.494 413.822L422.054 413.764L421.639 413.955C420.082 414.67 416.692 415.155 413.236 415.157C412.104 415.157 411.154 415.198 411.124 415.247C411.058 415.353 412.164 416.41 412.802 416.851C413.525 417.35 414.642 417.841 415.446 418.013C416.944 418.333 419.166 418.081 423.023 417.153C423.474 417.044 423.933 416.957 424.042 416.958L424.241 416.961L424.042 417.115C423.702 417.381 421.296 418.511 420.505 418.777C420.09 418.917 419.15 419.151 418.417 419.299C417.683 419.446 417.045 419.603 416.999 419.647C416.953 419.69 417.132 419.797 417.397 419.882C418.777 420.33 420.815 420.409 422.205 420.07C423.176 419.832 424.607 419.326 424.959 419.095C425.09 419.008 425.246 418.953 425.303 418.973C425.453 419.023 423.713 420.645 422.675 421.424C422.197 421.783 421.805 422.09 421.805 422.107C421.805 422.124 422.045 422.251 422.338 422.39C422.924 422.668 423.977 423.441 424.434 423.928C424.594 424.099 424.78 424.239 424.845 424.239C424.91 424.239 425.377 423.7 425.882 423.041C427.096 421.457 427.181 421.451 426.477 422.997C425.78 424.529 424.748 425.927 423.665 426.81C422.994 427.356 421.23 428.267 420.58 428.402C419.839 428.557 420.16 428.81 421.428 429.071C421.85 429.158 422.417 429.229 422.689 429.229C423.155 429.229 424.329 429.024 424.714 428.875C425.042 428.748 424.886 428.994 424.21 429.667C423.403 430.469 422.451 431.154 421.817 431.387C421.565 431.48 421.304 431.605 421.238 431.664C421.05 431.836 420.218 434.455 420.318 434.559C420.516 434.764 421.873 433.909 423.295 432.684C423.595 432.426 423.855 432.258 423.873 432.311C423.971 432.606 422.913 434.196 421.936 435.222L421.203 435.993L421.827 436.541C422.733 437.338 424.207 438.42 424.332 438.381C424.469 438.339 425.356 436.656 426.407 434.443C426.856 433.497 427.239 432.766 427.256 432.819C427.304 432.963 426.82 435.548 426.419 437.29C426.226 438.129 426.082 438.915 426.099 439.036C426.124 439.212 426.465 439.429 427.759 440.09C428.999 440.723 429.408 440.891 429.469 440.792C429.513 440.72 429.578 440.368 429.613 440.009C429.758 438.526 430.364 433.456 430.417 433.288C430.448 433.187 430.49 433.121 430.509 433.141C430.529 433.161 430.638 434.096 430.751 435.22C430.961 437.306 431.31 440.176 431.402 440.58C431.477 440.907 431.681 440.862 432.792 440.273C434.052 439.605 434.626 439.237 434.695 439.057C434.725 438.978 434.547 437.958 434.3 436.791C434.053 435.623 433.822 434.398 433.788 434.068C433.729 433.508 433.735 433.482 433.884 433.669C433.972 433.779 434.383 434.52 434.797 435.316C435.691 437.031 436.416 438.31 436.495 438.31C436.571 438.31 437.878 437.326 438.787 436.585L439.512 435.994L439.017 435.468C438.319 434.727 436.701 432.207 436.837 432.071C436.854 432.054 437.114 432.263 437.415 432.536C438.6 433.612 440.366 434.815 440.526 434.655C440.6 434.581 439.917 432.016 439.758 431.773C439.686 431.663 439.403 431.495 439.129 431.399C438.855 431.303 438.368 431.048 438.048 430.833C437.44 430.425 435.756 428.865 435.836 428.784C435.862 428.759 436.164 428.826 436.509 428.933C436.877 429.048 437.419 429.129 437.826 429.129C438.833 429.129 440.821 428.706 440.631 428.532C440.585 428.489 440.167 428.331 439.702 428.179C438.191 427.686 437.768 427.416 436.517 426.149C435.41 425.027 435.349 424.941 434.713 423.64C434.35 422.899 434.025 422.181 433.99 422.044C433.931 421.814 433.952 421.823 434.24 422.143C434.565 422.505 435.59 423.867 435.787 424.2C435.89 424.374 435.943 424.347 436.483 423.836C437.216 423.143 437.581 422.883 438.45 422.437C438.831 422.242 439.156 422.04 439.173 421.988C439.19 421.936 438.917 421.745 438.567 421.563C437.645 421.085 435.283 419.061 435.45 418.893C435.483 418.86 435.926 419.02 436.434 419.25C438.19 420.044 439.944 420.335 441.837 420.148C443.109 420.022 443.895 419.851 443.948 419.689C443.97 419.622 443.476 419.48 442.663 419.321C441.937 419.178 440.917 418.922 440.398 418.753C439.338 418.407 436.208 416.921 436.443 416.874C436.526 416.858 437.283 417.002 438.125 417.194C442.023 418.083 444.185 418.324 445.493 418.014C446.69 417.731 447.915 416.999 449.136 415.838L449.694 415.308L447.357 415.246C445.128 415.186 444.022 415.071 442.138 414.699C441.153 414.505 439.007 413.971 438.843 413.879C438.776 413.841 440.855 413.811 443.462 413.811C448.836 413.811 448.742 413.822 450.43 413C451.208 412.621 451.509 412.4 452.229 411.681C453.096 410.814 454.158 409.415 454.064 409.263C454.037 409.218 453.803 409.249 453.544 409.331C450.988 410.142 447.886 410.573 444.595 410.574C442.56 410.575 441.24 410.496 440.994 410.358C440.878 410.292 440.875 410.273 440.982 410.271C441.336 410.263 446.481 409.426 447.805 409.161C452.581 408.205 454.857 406.586 455.616 403.606C455.722 403.191 455.809 402.682 455.809 402.474C455.809 402.267 455.853 402.069 455.908 402.035C455.963 402.001 456.004 401.651 456 401.256C455.995 400.861 455.969 400.595 455.942 400.664C455.914 400.733 455.855 400.767 455.81 400.739C455.765 400.711 455.378 400.984 454.949 401.344C452.614 403.306 449.985 404.577 446.275 405.537C445.543 405.727 444.603 405.906 444.187 405.936L443.43 405.99L445.121 405.3C448.678 403.849 451.505 402.185 453.444 400.399C455.036 398.933 455.908 397.069 455.908 395.13C455.908 393.751 455.411 391.77 454.742 390.484C454.4 389.827 454.251 389.683 454.173 389.936ZM405.036 401.387C405.036 401.798 405.054 401.967 405.075 401.761C405.096 401.555 405.096 401.218 405.075 401.012C405.054 400.807 405.036 400.975 405.036 401.387ZM429.843 402.985C428.058 403.91 426.453 406.38 425.922 409.021C425.626 410.489 425.622 414.726 425.916 414.633C425.979 414.613 426.497 413.826 427.067 412.886C427.637 411.945 428.134 411.195 428.171 411.218C428.208 411.24 428.264 411.655 428.295 412.138C428.382 413.482 428.991 415.623 429.675 416.983C430.121 417.871 430.197 417.679 430.117 415.867C430.079 415.01 430.022 414.203 429.989 414.072C429.953 413.926 429.971 413.849 430.035 413.873C430.092 413.893 430.741 414.629 431.477 415.507C433.379 417.779 433.498 417.859 433.215 416.678C433 415.779 432.454 414.496 431.851 413.467C431.579 413.003 431.37 412.61 431.387 412.593C431.404 412.576 431.817 412.747 432.304 412.974C433.388 413.478 435.255 414.208 435.718 414.309C436.014 414.373 435.886 414.235 434.774 413.288C432.597 411.432 431.816 410.489 431.138 408.893C430.843 408.197 430.811 408.026 430.807 407.125C430.803 405.914 431.003 405.217 431.62 404.294C431.854 403.943 432.046 403.63 432.046 403.599C432.046 403.568 431.926 403.418 431.78 403.264C431.634 403.111 431.54 402.959 431.572 402.927C431.604 402.895 431.848 402.946 432.115 403.042C432.541 403.194 432.635 403.197 432.887 403.074C433.045 402.997 433.193 402.877 433.215 402.809C433.247 402.713 432.928 402.685 431.831 402.689C430.455 402.693 430.386 402.704 429.843 402.985ZM418.406 422.944C417.821 423.101 417.206 423.301 417.038 423.388C416.103 423.873 415.753 425.708 416.389 426.796C416.705 427.338 417.828 428.266 417.828 427.985C417.828 427.959 417.739 427.711 417.63 427.432C417.394 426.832 417.379 426.452 417.575 425.982C417.757 425.544 417.882 425.544 418.026 425.982C418.244 426.645 419.618 427.934 419.618 427.475C419.618 427.386 419.547 427.068 419.46 426.767C419.282 426.154 419.332 425.795 419.643 425.461C419.887 425.199 420.295 425.171 420.714 425.388C421.098 425.587 421.209 425.819 421.209 426.422C421.209 426.697 421.256 426.951 421.313 426.986C421.451 427.072 422.025 426.453 422.25 425.978C422.347 425.771 422.448 425.329 422.473 424.995C422.513 424.449 422.488 424.342 422.216 423.919C421.876 423.389 421.4 423.103 420.683 422.998C420.421 422.96 420.054 422.864 419.866 422.785C419.679 422.707 419.512 422.646 419.497 422.65C419.482 422.654 418.991 422.786 418.406 422.944ZM440.348 422.949C438.987 423.158 438.351 423.841 438.438 425.001C438.489 425.683 438.838 426.435 439.316 426.895C439.622 427.189 439.635 427.172 439.605 426.516C439.575 425.861 440.039 425.237 440.556 425.237C441.314 425.237 441.499 425.552 441.42 426.713C441.389 427.164 441.393 427.532 441.43 427.532C441.563 427.532 442.245 427.047 442.501 426.77C442.647 426.613 442.835 426.316 442.919 426.11C443.186 425.457 443.382 425.673 443.378 426.617C443.377 426.965 443.3 427.352 443.178 427.622C443.069 427.863 442.995 428.077 443.015 428.096C443.088 428.17 443.852 427.544 444.144 427.171C444.64 426.537 444.792 426.153 444.792 425.534C444.792 424.92 444.52 424.157 444.165 423.778C444.055 423.66 443.643 423.414 443.25 423.23C442.648 422.948 442.41 422.892 441.74 422.876C441.303 422.866 440.676 422.898 440.348 422.949Z" fill="black"/>
</svg>
