<svg width="512" height="467" viewBox="0 0 512 467" fill="none" xmlns="http://www.w3.org/2000/svg">
<path d="M158.5 40L193.5 13H497V454H127V71.5L158.5 40Z" fill="#EBE1DC"/>
<rect x="25" y="383" width="49" height="47" fill="#FFD571"/>
<path fill-rule="evenodd" clip-rule="evenodd" d="M186.897 0.82C184.328 1.909 120.984 64.223 119.419 67.2C117.326 71.184 117.282 445.347 119.375 450.355C121.54 455.537 127.038 461.109 132.493 463.649L137.5 465.98L243.5 465.986C346.704 465.992 349.584 465.941 352.686 464.05C356.694 461.606 358.246 458.739 358.179 453.902C358.112 449.018 356.648 446.366 352.686 443.95C349.585 442.06 346.717 442.007 245.75 442.004L142 442V263.5V85H168.923H195.847L198.894 82.436C200.57 81.025 202.402 78.213 202.965 76.186C203.533 74.141 203.991 61.704 203.994 48.25L204 24H229.05C256.601 24 258.586 23.635 261.483 18.033C264.582 12.04 262.509 4.349 257.033 1.517C254.577 0.247 248.76 0.0109997 221.3 0.0699997C203.26 0.109 187.779 0.446 186.897 0.82ZM284.873 1.684C277.851 6.042 277.169 15.017 283.424 20.749L286.971 24H386.985H487V233V442H435.148H383.296L379.933 444.266C376.097 446.851 373.453 452.683 374.402 456.465C374.754 457.868 376.345 460.474 377.938 462.258L380.835 465.5L436.106 465.775L491.377 466.05L496.643 463.474C502.577 460.571 506.341 456.597 509.408 450L511.5 445.5L511.495 233L511.489 20.5L509.403 16C506.372 9.463 502.645 5.5 496.78 2.578L491.607 0L389.554 0.0270004C296.979 0.0510004 287.256 0.205 284.873 1.684ZM260.27 54.483C258.493 55.255 256.132 57.375 255.023 59.193C253.125 62.308 253.007 64.184 253.007 91.5C253.007 118.827 253.124 120.691 255.026 123.81C258.957 130.258 254.853 130 353.5 130C452.147 130 448.043 130.258 451.974 123.81C453.876 120.691 453.993 118.827 453.993 91.5C453.993 64.173 453.876 62.309 451.974 59.19C448.041 52.738 452.182 52.996 353.282 53.039C278.459 53.072 262.962 53.312 260.27 54.483ZM29 62.374C17.559 65.524 8.181 73.128 3.16 83.327L0 89.745V237.796V385.846L19.593 423.413C32.705 448.551 40.174 461.81 42.17 463.49C44.203 465.2 46.357 466 48.929 466C56.612 466 57.562 464.657 79.357 423L99.5 384.5L99.764 241.5C99.941 145.838 99.686 96.845 98.994 93.5C95.8 78.067 84.793 66.444 69.5 62.359C63.07 60.642 35.255 60.652 29 62.374ZM183.445 160.059C178.665 161.463 175.78 165.23 175.249 170.763C174.85 174.913 175.16 176.036 177.457 178.766C178.926 180.513 181.787 182.402 183.814 182.965C189.44 184.528 441.398 184.267 445.965 182.694C450.136 181.257 454.001 175.918 453.996 171.602C453.992 167.875 450.978 162.624 447.804 160.814C445.938 159.75 420.878 159.468 316 159.331C241.925 159.234 185.192 159.546 183.445 160.059ZM181.367 214.918C175.156 218.705 173.303 224.818 176.494 230.989C179.842 237.462 169.29 237 313.772 237C459.389 237 449.657 237.458 452.579 230.466C454.509 225.847 454.362 223.105 451.974 219.19C447.979 212.636 456.105 213 313.782 213.004C188.28 213.007 184.408 213.063 181.367 214.918ZM181.449 268.545C175.574 271.456 173.347 278.903 176.517 285.033C179.799 291.379 171 291 314.965 291H446.029L449.765 287.577C453.135 284.488 453.5 283.659 453.5 279.096C453.5 274.717 453.061 273.6 450.231 270.769L446.962 267.5L315.731 267.267C200.317 267.062 184.132 267.216 181.449 268.545ZM180.763 322.565C175.359 325.497 173.398 333.48 176.706 339.08C180.413 345.355 172.163 345 314.451 345C453.141 345 446.774 345.222 451.295 340.226C455.62 335.447 453.915 326.153 448.08 322.706C445.396 321.121 435.925 321.003 314.346 321.04C200.561 321.075 183.143 321.274 180.763 322.565ZM180.217 376.561C172.379 382.05 173.741 393.905 182.636 397.621C187.678 399.728 441.462 399.669 446.51 397.56C452.895 394.892 455.681 387.152 452.483 380.967C449.201 374.62 458.026 375 313.772 375C196.385 375 182.208 375.166 180.217 376.561ZM35.696 401.75C44.164 417.945 49.102 427 49.467 427C49.862 427 67 394.22 67 393.465C67 393.209 58.927 393 49.06 393H31.12L35.696 401.75Z" fill="black"/>
<rect x="23" y="137" width="54" height="229" fill="#26A6FE"/>
<path d="M25.9999 95.3775C32.4999 87.5755 66.1752 88 72.4999 95.3775C75.955 99.4077 75.6658 115.795 75.5349 119.928C75.518 120.462 75.0793 120.878 74.5449 120.878L23.9798 120.878C23.4355 120.878 22.9921 120.447 22.9876 119.903C22.9521 115.673 23.0063 98.9708 25.9999 95.3775Z" fill="#FF7F87"/>
<rect x="277" y="77" width="155" height="28" fill="#B4AAAA"/>
<path d="M187 41V69H151L187 41Z" fill="#B4AAAA"/>
</svg>
