<svg width="512" height="512" viewBox="0 0 512 512" fill="none" xmlns="http://www.w3.org/2000/svg">
<path fill-rule="evenodd" clip-rule="evenodd" d="M354.283 3.07798C341.687 5.72398 329.926 10.136 319.367 16.178C251.418 55.058 237.407 145.537 290.475 202.762C308.355 222.043 335.656 236.342 361.434 239.928C429.559 249.403 490.558 201.047 498.03 131.645C503.63 79.636 471.356 27.894 421.242 8.53998C401.541 0.931978 374.863 -1.24502 354.283 3.07798ZM15.923 12.923L13 15.846V260.867V505.888L15.413 508.694L17.827 511.5H171.922H326.017L412 497L426 411.458V330.122C426 257.467 425.836 248.849 424.467 249.374C423.625 249.698 419.8 250.915 415.967 252.078L409 254.195V327.097V400V440.5L412 497L348 495H313.941H171.971H30V261V27L154.75 26.951L279.5 26.902L288.443 18.451L297.386 9.99998H158.116H18.846L15.923 12.923ZM365.5 29.008C326.692 34.897 295.4 64.296 287.588 102.208C284.643 116.499 285.669 134.932 290.192 149C302.567 187.496 337.56 213.063 378 213.155C398.195 213.201 414.521 208.166 431.5 196.656C444.532 187.821 460 168.843 460 161.688C460 156.121 454.098 152.49 448.525 154.629C447.625 154.974 444.707 158.489 442.042 162.438C424.653 188.208 393.324 201.502 363.991 195.558C299.56 182.503 280.112 100.4 332 60.504C345.054 50.467 357.552 46.05 375.037 45.293C390.057 44.642 399.71 46.611 412.5 52.935C433.637 63.385 449.575 84.766 453.486 107.918L454.22 112.259L449.466 108.63C442.526 103.331 436.561 103.817 434.047 109.887C433.059 112.272 433.081 113.393 434.16 115.626C435.83 119.084 457.167 136.753 460.763 137.655C464.196 138.517 467.101 136.754 480.412 125.733C490.591 117.305 491 116.815 491 113.022C491 104.662 482.991 102.308 475.481 108.462C470.925 112.196 470 112.121 470 108.022C470 103.573 466.042 89.959 462.553 82.408C453.856 63.586 437.898 47.035 419.5 37.755C404.211 30.043 382.187 26.476 365.5 29.008ZM374.229 56.669C373.53 56.951 372.292 58.468 371.479 60.041C370.268 62.382 370 68.444 370 93.45V124H352.955C336.19 124 335.869 124.04 333.455 126.455C331.907 128.002 331 130.052 331 132C331 133.948 331.907 135.998 333.455 137.545L335.909 140H358.78H381.651L384.076 137.419L386.5 134.839V98V61.161L384.076 58.581C381.75 56.105 377.623 55.304 374.229 56.669ZM110.024 60.561C91.761 65.61 80.556 82.788 83.999 100.458C89.467 128.526 123.049 139.111 143.08 119.08C153.01 109.15 155.986 94.911 150.934 81.507C145.024 65.83 126.069 56.125 110.024 60.561ZM86.746 147.414C75.93 150.324 65.39 161.291 63.086 172.034C62.489 174.82 62 184.501 62 193.549V210H118.594H175.187L174.759 191.25C174.231 168.13 173.379 165.228 164.521 156.35C159.335 151.152 157.331 149.874 151.587 148.1C145.374 146.181 142.498 146.006 118.145 146.067C99.848 146.114 90.01 146.536 86.746 147.414ZM124.295 261.23C117.808 267.957 107.775 278.475 102 284.605C96.225 290.734 91.275 295.786 91 295.831C90.725 295.876 88.254 292.73 85.509 288.84C78.944 279.538 74.148 277.852 68.975 283.025C65.082 286.918 66.272 290.635 75.61 303.753C85.18 317.198 88.013 319.342 92.982 316.899C96.131 315.351 145.558 263.788 147.214 260.324C149.588 255.356 145.284 249 139.545 249C136.437 249 134.908 250.226 124.295 261.23ZM48.455 253.455L46 255.909V296V336.091L48.455 338.545L50.909 341H90.399H129.888L132.694 338.587L135.5 336.173V321.5V306.827L132.694 304.413C129.028 301.26 124.633 301.276 121.455 304.455C119.231 306.678 119 307.715 119 315.455V324H90.5H62V296V268H84.944C107.642 268 107.918 267.975 110.644 265.63C112.743 263.824 113.4 262.363 113.4 259.5C113.4 256.637 112.743 255.176 110.644 253.37L107.888 251H79.399H50.909L48.455 253.455ZM161.326 252.484C156.575 255.812 156.884 264.262 161.853 266.921C163.235 267.661 184.041 268 228.011 268H292.154L295.077 265.077C298.87 261.284 298.87 257.716 295.077 253.923L292.154 251H227.799C172.515 251 163.146 251.209 161.326 252.484ZM160.756 288.977C155.8 292.875 157.105 300.795 163.044 302.866C165.17 303.607 175.97 304 194.181 304C225.386 304 227.904 303.582 229.822 298.079C231.067 294.509 230.57 292.464 227.677 289.25C225.659 287.008 225.54 287 194.461 287C164.902 287 163.138 287.104 160.756 288.977ZM134.989 363.282C134.157 363.952 124.037 374.4 112.499 386.5C100.961 398.6 91.291 408.605 91.01 408.732C90.73 408.86 88.319 405.859 85.654 402.064C80.032 394.058 76.654 392.072 71.962 394.016C70.291 394.708 68.491 396.083 67.962 397.071C65.675 401.345 66.917 404.542 75.61 416.753C85.18 430.198 88.013 432.342 92.982 429.899C96.15 428.342 145.609 376.759 147.228 373.324C149.502 368.499 145.072 361.975 139.561 362.032C137.878 362.049 135.82 362.612 134.989 363.282ZM50.315 365.007C49.114 365.491 47.651 366.783 47.065 367.878C46.362 369.191 46 383.476 46 409.862V449.855L48.635 451.927C51.199 453.944 52.325 454 90.579 454H129.888L132.675 451.603C135.359 449.294 135.475 448.799 135.841 438.1C136.05 431.992 135.917 425.37 135.544 423.385C134.096 415.663 126.46 412.449 121.455 417.455C119.231 419.678 119 420.715 119 428.455V437H90.5H62V409V381H84.944C107.642 381 107.918 380.975 110.644 378.63C114.506 375.308 114.506 369.692 110.644 366.37L107.888 364L80.194 364.063C64.962 364.098 51.517 364.523 50.315 365.007ZM162.209 365.046C159.473 366.144 157.126 371.207 157.776 374.607C158.032 375.948 159.373 377.935 160.756 379.023C163.201 380.946 165.028 381 227.712 381H292.154L295.077 378.077C298.87 374.284 298.87 370.716 295.077 366.923L292.154 364L228.327 364.063C191.99 364.099 163.513 364.523 162.209 365.046ZM160.611 402.25C156.318 406.112 157.015 412.922 161.965 415.482C166.233 417.689 221.685 417.731 225.941 415.53C231.392 412.712 231.882 405.132 226.841 401.601C224.865 400.217 220.384 400 193.833 400C163.381 400 163.09 400.02 160.611 402.25Z" fill="#FF695A"/>
<path fill-rule="evenodd" clip-rule="evenodd" d="M16 13C14.011 14.989 14 16.333 14 260.826V506.651L16.314 508.826L18.629 511H172.52H326.412H426V412C426 412 426 396.533 426 329.55C426 285.797 425.736 250 425.414 250C425.091 250 421.491 250.969 417.414 252.154L410 254.308V327.154V400V433V495H361H315H172.5H30V260.5V26H154.878C270.081 26 279.861 25.871 281.128 24.338C281.882 23.423 285.549 20.048 289.276 16.838L296.051 11H157.026C19.333 11 17.981 11.019 16 13ZM136.5 249.925C135.4 250.387 124.866 260.957 113.091 273.413C101.316 285.869 91.303 295.934 90.84 295.78C90.377 295.626 87.636 292.35 84.749 288.5C79.884 282.012 79.197 281.478 75.363 281.198C71.874 280.943 70.896 281.317 69.113 283.583C65.301 288.429 65.715 289.507 77.714 305.998C84.799 315.734 87.617 317.815 92.17 316.672C93.633 316.305 105.173 304.95 120.81 288.49C145.649 262.345 147 260.728 147 257.117C147 251.475 141.604 247.778 136.5 249.925ZM48.073 254.635C46.057 257.198 46 258.331 46 296.079V334.888L48.413 337.694L50.827 340.5H90.5H130.173L132.587 337.694C134.878 335.03 135 334.211 135 321.5C135 308.902 134.862 307.951 132.658 305.389C130.985 303.444 129.37 302.667 127 302.667C124.63 302.667 123.015 303.444 121.342 305.389C119.286 307.779 119 309.142 119 316.556V325H90.5H62V296V267H85.326C108.415 267 108.673 266.977 110.826 264.686C113.714 261.611 113.652 256.961 110.686 254.174C108.419 252.045 107.773 252 79.258 252H50.145L48.073 254.635ZM160.073 254.635C158.933 256.084 158 258.273 158 259.5C158 260.727 158.933 262.916 160.073 264.365L162.145 267H227.573C291.667 267 293.041 266.959 295 265C296.238 263.762 297 261.667 297 259.5C297 257.333 296.238 255.238 295 254C293.041 252.041 291.667 252 227.573 252H162.145L160.073 254.635ZM162.5 288.155C157.395 290.947 156.469 296.559 160.455 300.545L162.909 303H194H225.091L227.545 300.545C231.487 296.604 230.73 290.946 225.928 288.463C223.63 287.274 217.603 287.006 193.8 287.03C174.531 287.05 163.815 287.435 162.5 288.155ZM136.859 362.649C135.956 362.9 125.442 373.431 113.494 386.052C101.546 398.674 91.427 409 91.008 409C90.589 409 87.957 405.863 85.159 402.028C79.767 394.638 76.834 392.969 72.141 394.62C68.867 395.771 66.506 399.896 67.304 403.069C67.64 404.406 71.68 410.675 76.281 417C84.843 428.768 87.461 430.854 92.183 429.669C93.661 429.298 105.12 418.042 120.823 401.534C145.77 375.31 147 373.836 147 370.163C147 364.726 142.198 361.168 136.859 362.649ZM48.073 367.635C46.058 370.196 46 371.337 46 408.588C46 435.098 46.351 447.675 47.138 449.403C47.764 450.777 49.631 452.373 51.287 452.95C55.353 454.368 125.878 454.377 129.603 452.961C134.476 451.108 134.934 449.565 134.968 434.885C134.997 422.597 134.798 421.013 132.927 418.635C130 414.913 124 414.913 121.073 418.635C119.351 420.824 119 422.686 119 429.635V438H90.5H62V409.5V381H82.757C104.193 381 109.26 380.347 111.58 377.288C113.732 374.452 113.305 369.636 110.686 367.174C108.419 365.045 107.773 365 79.258 365H50.145L48.073 367.635ZM160.073 367.635C157.347 371.1 157.453 374.253 160.413 377.694L162.826 380.5L223.663 380.803C257.123 380.97 286.445 380.825 288.822 380.481C291.199 380.137 294.012 378.988 295.072 377.928C297.653 375.347 297.616 369.616 295 367C293.041 365.041 291.667 365 227.573 365H162.145L160.073 367.635ZM162.5 401.155C157.395 403.947 156.469 409.559 160.455 413.545L162.909 416H194H225.091L227.545 413.545C231.487 409.604 230.73 403.946 225.928 401.463C223.63 400.274 217.603 400.006 193.8 400.03C174.531 400.05 163.815 400.435 162.5 401.155Z" fill="#383838"/>
<path d="M330.522 406.921C330.786 406.225 332.649 404.603 334.66 403.316C338.28 400.999 338.436 400.976 349.95 401.005C356.347 401.021 362.402 401.349 363.406 401.734C364.408 402.118 366.916 403.997 368.978 405.908C371.04 407.819 373.902 409.857 375.338 410.435C379.465 412.097 383.233 417.154 384.242 422.381C384.72 424.858 385.986 428.691 387.055 430.9C388.236 433.338 389 436.323 389 438.497C389 440.671 388.236 443.656 387.055 446.094C385.986 448.303 384.72 452.136 384.242 454.613C383.233 459.84 379.465 464.897 375.338 466.559C373.902 467.137 371.04 469.175 368.978 471.086C366.916 472.997 364.404 474.877 363.394 475.265C362.384 475.652 356.392 475.981 350.076 475.997C339.271 476.024 338.393 475.907 335.214 474.043C333.354 472.953 331.302 471.241 330.651 470.239C330.001 469.237 327.675 467.6 325.483 466.601C319.964 464.084 315.969 458.138 315.969 452.436C315.969 451.424 315.076 448.901 313.985 446.83C312.536 444.081 312 441.83 312 438.497C312 435.164 312.536 432.913 313.985 430.164C315.076 428.093 315.969 425.57 315.969 424.558C315.969 418.775 319.882 413.04 325.735 410.243C328.103 409.112 330.257 407.617 330.522 406.921Z" fill="#E17577"/>
<path d="M332.8 446V431.72H335.82V443.5H341.62V446H332.8ZM344.109 446V431.72H347.129V443.5H352.929V446H344.109ZM361.087 434.04C360.513 434.04 360 434.153 359.547 434.38C359.107 434.607 358.733 434.933 358.427 435.36C358.12 435.773 357.887 436.28 357.727 436.88C357.58 437.48 357.507 438.153 357.507 438.9C357.507 439.913 357.627 440.78 357.867 441.5C358.12 442.207 358.513 442.747 359.047 443.12C359.58 443.493 360.26 443.68 361.087 443.68C361.673 443.68 362.253 443.613 362.827 443.48C363.413 443.347 364.047 443.16 364.727 442.92V445.46C364.1 445.713 363.48 445.9 362.867 446.02C362.253 446.14 361.567 446.2 360.807 446.2C359.34 446.2 358.127 445.9 357.167 445.3C356.22 444.687 355.52 443.833 355.067 442.74C354.613 441.633 354.387 440.347 354.387 438.88C354.387 437.8 354.533 436.813 354.827 435.92C355.12 435.013 355.547 434.233 356.107 433.58C356.68 432.927 357.38 432.42 358.207 432.06C359.047 431.7 360.007 431.52 361.087 431.52C361.793 431.52 362.5 431.613 363.207 431.8C363.927 431.973 364.613 432.213 365.267 432.52L364.287 434.98C363.753 434.727 363.213 434.507 362.667 434.32C362.133 434.133 361.607 434.04 361.087 434.04Z" fill="black"/>
</svg>
