<svg width="480" height="480" viewBox="0 0 480 480" fill="none" xmlns="http://www.w3.org/2000/svg">
<path fill-rule="evenodd" clip-rule="evenodd" d="M204.228 208.19C203.426 208.301 200.691 208.627 198.15 208.913C179.739 210.984 159.401 219.137 144.9 230.259C140.848 233.368 133.888 240.14 130.561 244.211C122.142 254.517 116.789 266.11 114.735 278.49C113.42 286.416 113.911 297.971 115.878 305.37C117.97 313.238 120.757 319.786 124.542 325.725C125.442 327.138 126.178 328.579 126.178 328.928C126.178 329.884 122.317 337.641 118.693 343.965C116.066 348.551 115.48 349.965 115.481 351.717C115.483 354.298 116.816 356.685 118.838 357.733C121.551 359.14 123.795 358.715 129.954 355.63C136.45 352.376 144.096 349.223 145.447 349.241C145.949 349.247 148.548 350.689 151.222 352.445C161.262 359.034 174.906 364.687 187.483 367.466C193.741 368.85 204.117 370.184 208.621 370.184H211.56L213.571 373.229C220.013 382.984 228.88 390.516 240.7 396.274C254.189 402.844 268.088 405.746 283.008 405.106C299.146 404.413 313.612 399.963 326.154 391.832C327.983 390.647 329.814 389.676 330.222 389.676C331.17 389.676 338.262 392.615 342.609 394.808C346.99 397.019 348.83 397.024 351.218 394.831C352.843 393.338 353.033 392.915 353.016 390.81C353.001 388.871 352.548 387.688 350.44 384.072C349.034 381.66 347.224 378.313 346.419 376.634L344.954 373.581L345.894 372.248C347.639 369.774 350.723 363.143 351.954 359.219C353.85 353.174 354.427 348.494 354.105 341.777C353.132 321.469 340.078 303.158 318.872 292.359L313.402 289.573V285.84C313.402 283.786 313.068 280.159 312.66 277.779C306.776 243.445 274.882 216.313 232.19 209.325C226.393 208.376 208.194 207.637 204.228 208.19ZM198.879 214.988C175.687 218.027 155.122 227.692 140.352 242.494C117.395 265.499 113.537 297.587 130.567 323.864C132.368 326.642 132.577 327.256 132.364 329.143C132.098 331.513 128.078 340.096 123.914 347.187C122.182 350.135 121.39 351.936 121.693 352.239C121.995 352.542 124.308 351.632 128.183 349.686C135.883 345.817 141.938 343.478 145.223 343.104L147.818 342.809L153.411 346.552C159.688 350.753 169.45 355.694 176.023 357.996C181.968 360.079 190.852 362.212 197.635 363.186C204.452 364.165 219.69 364.296 226.355 363.434C256.699 359.508 282.825 345.094 296.366 324.807C301.363 317.32 304.229 310.691 306.136 302.203C307.567 295.835 307.71 283.313 306.418 277.476C301.541 255.436 286.686 237.371 263.927 225.803C252.519 220.004 239.686 216.2 226.598 214.738C220.612 214.069 204.801 214.212 198.879 214.988ZM156.815 261.511C155.455 262.874 155.583 264.648 157.131 265.867L158.419 266.884L216.012 266.756C272.384 266.631 273.619 266.608 274.294 265.682C275.251 264.37 275.156 262.306 274.095 261.343C273.278 260.602 268.513 260.537 215.496 260.537C158.435 260.537 157.776 260.547 156.815 261.511ZM157.131 286.882C155.583 288.101 155.455 289.875 156.815 291.238C157.776 292.201 158.435 292.212 215.305 292.212C266.576 292.212 272.94 292.13 273.903 291.454C275.154 290.576 275.339 288.5 274.294 287.067C273.619 286.141 272.384 286.118 216.012 285.993L158.419 285.866L157.131 286.882ZM156.599 312.789C156.183 313.384 155.842 314.213 155.842 314.629C155.842 315.046 156.183 315.874 156.599 316.47L157.356 317.553H215.365C270.946 317.553 273.408 317.516 274.179 316.662C275.242 315.485 275.202 313.516 274.095 312.512C273.278 311.771 268.498 311.705 215.281 311.705H157.356L156.599 312.789Z" fill="black" fill-opacity="0.341"/>
<path fill-rule="evenodd" clip-rule="evenodd" d="M206.665 208.108C197.543 209.029 194.196 209.492 188.909 210.566C176.046 213.178 161.014 219.344 150.701 226.24C124.24 243.933 110.699 271.016 114.687 298.272C116.01 307.308 120.06 318.145 125.01 325.889L126.654 328.461L124.923 332.211C123.971 334.273 121.424 339.087 119.262 342.91C115.58 349.418 115.347 350 115.582 352.088C115.928 355.162 118.346 357.612 121.351 357.937C123.24 358.141 124.33 357.754 131.02 354.51C135.167 352.498 140.238 350.292 142.288 349.609L146.016 348.365L150.801 351.576C157.21 355.876 167.744 360.954 175.775 363.615C185.787 366.932 194.827 368.636 207.278 369.553L211.782 369.885L214.003 373.224C223.84 388.017 242.84 399.515 263.315 403.067C285.695 406.948 308.842 402.567 326.183 391.167L329.922 388.71L332.994 389.876C334.683 390.518 338.344 392.163 341.13 393.531C346.64 396.238 347.206 396.357 349.664 395.331C353.521 393.72 354.008 390.005 351.022 384.974C349.944 383.158 348.13 379.823 346.99 377.562L344.919 373.45L345.796 371.969C352.338 360.929 355.171 349.301 353.887 338.768C353.069 332.062 351.722 327.534 348.711 321.371C342.645 308.959 332.337 298.987 318.284 291.937L313.596 289.585L313.297 284.81C312.486 271.822 308.107 259.538 300.416 248.67C296.543 243.198 288.037 234.484 282.463 230.279C267.631 219.088 248.946 211.613 229.3 209.009C224.04 208.311 210.134 207.758 206.665 208.108ZM206.179 213.975C184.725 215.713 166.572 221.967 150.965 232.999C144.896 237.29 135.465 246.735 131.68 252.316C124.025 263.601 120.497 273.874 119.978 286.392C119.431 299.608 122.873 311.991 130.243 323.316C131.461 325.189 132.463 327.205 132.469 327.796C132.491 330.108 128.585 338.538 123.541 347.067C121.277 350.896 120.83 352.252 121.833 352.252C122.131 352.252 125.032 350.956 128.279 349.372C138.889 344.195 144.765 342.277 147.649 343.048C148.363 343.239 151.305 344.971 154.188 346.898C167.593 355.859 184.752 361.777 202.287 363.486C209.338 364.173 223.138 363.795 229.995 362.726C263.021 357.58 290.235 339.775 301.569 315.899C309.355 299.496 309.654 280.575 302.386 264.037C291.597 239.481 265.057 220.78 233.376 215.407C224.735 213.942 213.739 213.363 206.179 213.975ZM156.999 261.558C155.665 262.891 155.737 264.428 157.188 265.567C157.797 266.046 170.242 266.175 215.682 266.175C270.984 266.175 273.437 266.138 274.209 265.286C275.196 264.195 275.24 262.779 274.323 261.527C273.647 260.603 272.411 260.58 215.931 260.455L158.229 260.328L156.999 261.558ZM156.922 286.722C155.868 288.038 155.807 289.383 156.748 290.545L157.689 291.706L214.527 291.842C245.788 291.917 271.843 291.862 272.426 291.72C274.892 291.12 275.832 288.463 274.124 286.919C273.307 286.18 268.528 286.114 215.321 286.114C169.575 286.114 157.306 286.242 156.922 286.722ZM157.483 311.774C157.189 311.97 156.689 312.624 156.372 313.226C155.772 314.364 156.293 316.07 157.483 316.866C157.778 317.062 183.905 317.226 215.543 317.23C272.424 317.238 273.079 317.227 274.041 316.265C275.279 315.027 275.279 313.613 274.041 312.375C273.079 311.413 272.424 311.402 215.543 311.409C183.905 311.414 157.778 311.577 157.483 311.774Z" fill="#3D3D3D"/>
<path fill-rule="evenodd" clip-rule="evenodd" d="M230.95 54.7098C229.845 55.1552 227.14 59.9008 221.107 71.9839L212.787 88.6445L194.763 91.2684C179.077 93.552 176.523 94.0931 175.073 95.4368C173.971 96.4587 173.4 97.743 173.386 99.2336C173.366 101.273 174.638 102.726 186.778 114.535L200.192 127.583L197.168 145.705C194.07 164.267 194.017 165.97 196.473 167.836C198.883 169.667 201.48 168.75 217.027 160.576C225.603 156.068 233.027 152.379 233.525 152.379C234.024 152.379 241.437 156.068 250 160.576C259.31 165.479 266.351 168.774 267.512 168.774C269.85 168.774 272.594 166.112 272.594 163.843C272.594 162.971 271.293 154.455 269.701 144.919L266.808 127.582L280.222 114.535C292.098 102.983 293.634 101.241 293.614 99.3422C293.602 98.1624 293.033 96.5059 292.348 95.6602C291.006 94.0022 288.339 93.4667 265.196 90.2095L254.212 88.6636L246.076 72.3002C236.913 53.8743 235.914 52.713 230.95 54.7098ZM132.617 98.4295C131.528 98.8674 129.197 102.838 124.487 112.276L117.884 125.509L103.577 127.621C87.7283 129.96 86 130.676 86 134.9C86 136.69 87.5453 138.542 96.6767 147.69L107.354 158.386L104.917 172.536C103.262 182.146 102.671 187.187 103.074 188.25C103.783 190.115 106.291 192 108.063 192C108.763 192 115.169 188.925 122.297 185.166L135.259 178.333L148.104 185.166C155.168 188.925 161.583 192 162.359 192C164.586 192 167.438 189.131 167.494 186.833C167.522 185.73 166.525 178.87 165.28 171.589L163.015 158.35L173.674 147.672C182.79 138.54 184.333 136.69 184.333 134.9C184.333 133.56 183.729 132.239 182.653 131.228C181.2 129.863 179.047 129.37 166.707 127.582L152.44 125.514L146.023 112.584C138.723 97.8762 137.418 96.4983 132.617 98.4295ZM329.283 98.4295C328.195 98.8674 325.864 102.838 321.154 112.276L314.551 125.509L300.244 127.621C284.395 129.96 282.667 130.676 282.667 134.9C282.667 136.69 284.212 138.542 293.343 147.69L304.021 158.386L301.584 172.536C299.929 182.146 299.338 187.187 299.741 188.25C300.45 190.115 302.957 192 304.73 192C305.429 192 311.835 188.925 318.964 185.166L331.926 178.333L344.77 185.166C351.835 188.925 358.25 192 359.026 192C361.253 192 364.104 189.131 364.161 186.833C364.188 185.73 363.192 178.87 361.947 171.589L359.682 158.35L370.341 147.672C379.457 138.54 381 136.69 381 134.9C381 133.56 380.396 132.239 379.32 131.228C377.867 129.863 375.714 129.37 363.374 127.582L349.107 125.514L342.69 112.584C335.39 97.8762 334.085 96.4983 329.283 98.4295Z" fill="#FFC400" fill-opacity="0.8"/>
<path d="M480 240C480 372.548 372.548 480 240 480C107.452 480 0 372.548 0 240C0 107.452 107.452 0 240 0C372.548 0 480 107.452 480 240ZM20.0401 240C20.0401 361.48 118.52 459.96 240 459.96C361.48 459.96 459.96 361.48 459.96 240C459.96 118.52 361.48 20.0401 240 20.0401C118.52 20.0401 20.0401 118.52 20.0401 240Z" fill="#3D3D3D"/>
</svg>
