<svg width="403" height="487" viewBox="0 0 403 487" fill="none" xmlns="http://www.w3.org/2000/svg">
<path d="M35 367.5L49.5 434.5L70.5 456L354.5 442.5L369 404V138.5L354.5 41L116.5 31L35 49.5V367.5Z" fill="#FFF0CE" stroke="#FFF0CE"/>
<path fill-rule="evenodd" clip-rule="evenodd" d="M30.5 23.988C28.85 25.073 26.712 27.426 25.75 29.215C24.099 32.285 24 44.469 24.002 244.484C24.003 444.337 24.103 456.7 25.752 459.98C26.713 461.894 29.029 464.482 30.898 465.73L34.296 468H202.247C389.282 468 374.617 468.568 379.234 461.144L381.5 457.5L381.175 244.555C380.817 10.288 381.337 28.005 374.701 23.96C371.56 22.044 368.359 22.008 202.5 22.01C35.914 22.013 33.457 22.041 30.5 23.988ZM80.686 47.017C76.484 48.278 75.126 49.767 72.1 56.433C68.916 63.447 63.918 68.262 56.345 71.611C47.171 75.668 48 58.315 48 246.315C48 411.855 48.011 412.744 50.023 415.303C51.136 416.717 54.399 418.956 57.273 420.278C64.895 423.781 68.589 427.352 72.012 434.525C73.684 438.029 76.233 441.825 77.676 442.96C80.298 445.022 80.359 445.023 203.069 444.762L325.839 444.5L328.431 442.065C329.856 440.726 332.072 437.351 333.355 434.565C336.322 428.12 341.121 423.371 347.623 420.443C350.441 419.175 353.704 416.921 354.873 415.434L357 412.73V245.588C357 57.059 357.9 75.699 348.601 71.587C341.336 68.374 336.535 63.826 333.397 57.182C330.347 50.724 327.061 47.462 322.734 46.597C318.064 45.663 83.843 46.069 80.686 47.017ZM149.02 103.733C147.106 104.705 144.478 107.075 143.181 109C138.304 116.235 142.298 126.547 150.958 129.081C153.259 129.754 172.022 130.009 204.5 129.809C250.9 129.522 254.693 129.369 257.181 127.681C261.324 124.868 263.38 120.994 263.38 116C263.38 111.006 261.324 107.132 257.181 104.319C254.689 102.628 250.908 102.481 203.5 102.233C156.401 101.986 152.234 102.101 149.02 103.733ZM78.655 166.829C76.957 168.705 76.456 173.64 77.765 175.6C80.001 178.949 81.891 179 202.98 179H323.091L325.545 176.545C328.518 173.572 328.703 169.703 326 167C324.022 165.022 322.667 165 202.155 165C85.384 165 80.241 165.076 78.655 166.829ZM80.5 193.195C79.4 193.819 78.169 194.818 77.765 195.415C76.372 197.473 76.992 202.683 78.829 204.345C80.509 205.866 90.516 206 202.329 206C322.667 206 324.022 205.978 326 204C328.878 201.122 328.589 196.608 325.365 194.073C322.732 192.002 322.641 192 202.615 192.03C114.961 192.053 81.96 192.367 80.5 193.195ZM118.016 222.707C115.526 225.873 115.964 229.551 119.153 232.25C121.086 233.886 126.567 234 202.922 234C283.761 234 284.646 233.978 286.811 231.961C288.235 230.635 289 228.732 289 226.518C289 219.64 293.79 220 202.35 220H120.145L118.016 222.707ZM120.321 248.189C119.123 248.768 117.594 250.566 116.923 252.185C115.866 254.737 115.971 255.484 117.71 257.814L119.716 260.5L202.523 260.756C278.509 260.991 285.481 260.875 287.165 259.351C289.969 256.813 289.563 251.588 286.365 249.073C283.747 247.013 283.208 247 203.115 247.068C148.829 247.113 121.788 247.479 120.321 248.189ZM118.944 276.844C115.848 279.351 115.848 284.649 118.944 287.156C121.116 288.915 125.018 289 203.111 289C283.667 289 285.033 288.967 287 287C288.111 285.889 289 283.667 289 282C289 280.333 288.111 278.111 287 277C285.033 275.033 283.667 275 203.111 275C125.018 275 121.116 275.085 118.944 276.844ZM110.167 318.514C107.412 319.79 104.671 321.746 104.074 322.861C103.478 323.976 100.293 326.325 96.998 328.082C89.819 331.908 85.499 337.734 84.511 344.923C84.144 347.59 82.754 351.924 81.422 354.555C79.89 357.581 79 361.052 79 364C79 366.948 79.89 370.419 81.422 373.445C82.754 376.076 84.142 380.4 84.507 383.053C85.509 390.335 89.592 395.968 96.583 399.713C99.837 401.456 103.09 403.846 103.81 405.024C104.531 406.202 107.456 408.217 110.31 409.503C115.065 411.644 116.674 411.819 129.5 411.592C144.852 411.32 147.163 410.658 152.5 404.996C154.15 403.246 157.525 400.775 160 399.506C162.475 398.236 165.491 396.135 166.702 394.835C169.425 391.914 172 385.918 172 382.499C172 381.088 173.195 377.586 174.656 374.717C176.577 370.944 177.313 367.977 177.313 364C177.313 360.023 176.577 357.056 174.656 353.283C173.195 350.414 171.99 346.814 171.978 345.283C171.943 340.871 168.593 334.634 164.401 331.179C162.28 329.431 159.953 328 159.229 328C158.506 328 155.796 326.038 153.207 323.64C145.98 316.945 145.088 316.675 129.337 316.422C116.358 316.213 114.756 316.388 110.167 318.514ZM189.073 326.635C185.546 331.119 186.938 335.24 192.808 337.693C198.176 339.936 204.535 344.456 213.16 352.159C221.757 359.836 224.567 360.637 227.927 356.365C229.48 354.391 230 352.283 230 347.959C230 342.559 230.137 342.223 232.134 342.745C233.308 343.052 238.018 346.835 242.6 351.152C251.474 359.51 254.005 360.507 257.675 357.089C259.266 355.606 259.885 353.361 260.432 347.089C260.932 341.352 261.527 339 262.476 339C263.921 339 269.751 345.687 274.793 353.13C277.977 357.827 279.632 359 283.082 359C285.916 359 289 355.411 289 352.112C289 346.512 275.461 329.89 267.577 325.812C260.392 322.095 252.183 325.315 248.951 333.117C247.711 336.112 246.567 336.727 245.488 334.981C244.59 333.528 236.079 329.371 232.354 328.567C228.243 327.678 223.165 329.827 219.73 333.909L217.054 337.089L211.777 332.898C205.577 327.973 197.598 324.024 193.823 324.01C192.113 324.004 190.396 324.953 189.073 326.635Z" fill="#80B6FD"/>
<path fill-rule="evenodd" clip-rule="evenodd" d="M79.6351 167.073C76.4681 169.563 76.2091 173.209 79.0001 176C80.9781 177.978 82.3331 178 202.345 178C318.632 178 323.759 177.924 325.345 176.171C327.772 173.49 327.474 168.446 324.777 166.557C322.796 165.169 309.532 165 202.412 165C82.3811 165 82.2671 165.002 79.6351 167.073ZM79.0001 195C76.2091 197.791 76.4681 201.437 79.6351 203.927C82.2671 205.998 82.3811 206 202.412 206C335.654 206 327 206.445 327 199.598C327 192.477 336.898 193 202.171 193C82.3331 193 80.9781 193.022 79.0001 195ZM120.5 221.185C119.4 221.814 118.169 222.818 117.765 223.415C116.411 225.415 116.982 229.674 118.829 231.345C120.499 232.857 127.771 233 202.829 233C283.667 233 285.032 232.968 287 231C289.512 228.488 289.541 225.889 287.089 222.861L285.177 220.5L203.839 220.271C144.253 220.103 121.965 220.347 120.5 221.185ZM119.223 249.557C116.65 251.359 116.27 255.619 118.419 258.559C119.801 260.449 121.984 260.507 201.947 260.767L284.057 261.034L286.528 258.563C289.54 255.551 289.616 254.053 286.927 250.635L284.855 248H203.15C130.819 248 121.19 248.179 119.223 249.557ZM122 275.7C117.061 277.546 115.371 283.216 118.829 286.345C120.499 287.857 127.771 288 202.829 288C283.667 288 285.032 287.968 287 286C289.512 283.488 289.541 280.889 287.089 277.861L285.177 275.5L204.339 275.32C159.877 275.221 122.825 275.392 122 275.7ZM108.546 320.073C106.012 321.68 103.666 323.706 103.333 324.575C102.999 325.444 100.286 327.311 97.3031 328.723C89.9291 332.215 85.0001 339.376 85.0001 346.596C85.0001 347.86 83.8751 351.01 82.5001 353.596C80.6751 357.028 80.0001 359.838 80.0001 364C80.0001 368.162 80.6751 370.972 82.5001 374.404C83.8751 376.99 85.0001 380.14 85.0001 381.404C85.0001 388.523 90.0321 395.947 96.9851 399.09C99.7461 400.338 102.676 402.382 103.495 403.633C104.315 404.884 106.901 407.021 109.243 408.382C113.248 410.71 114.355 410.855 127.966 410.822C135.922 410.802 143.471 410.391 144.743 409.908C146.015 409.424 149.18 407.076 151.778 404.69C154.375 402.304 157.981 399.76 159.79 399.038C164.988 396.962 169.735 390.649 171.006 384.122C171.608 381.03 173.203 376.244 174.55 373.486C176.037 370.442 177 366.714 177 364C177 361.286 176.037 357.558 174.55 354.514C173.203 351.756 171.608 346.97 171.006 343.878C169.735 337.351 164.988 331.038 159.79 328.962C157.981 328.24 154.375 325.696 151.778 323.31C149.18 320.924 146.021 318.578 144.758 318.098C143.494 317.618 135.866 317.208 127.807 317.188C113.302 317.152 113.106 317.181 108.546 320.073ZM111.455 359.455C110.105 360.805 109 362.85 109 364C109 365.15 110.105 367.195 111.455 368.545C113.818 370.909 114.409 371 127.407 371C142.017 371 145.684 370.109 146.632 366.329C147.544 362.696 146.289 359.453 143.477 358.171C141.918 357.461 135.594 357 127.407 357C114.409 357 113.818 357.091 111.455 359.455Z" fill="#828282"/>
<path d="M193.724 337.441C187.624 335.583 186.037 329.689 190.657 326.055C192.401 324.684 194.034 324.188 195.407 324.613C199.305 325.82 208.477 330.928 213.153 334.497L217.807 338.049L219.879 334.696C224.659 326.962 233.012 327.19 245.252 335.389L248.005 337.233L249.415 333.867C251.077 329.9 254.448 326.532 258.165 325.124C265.074 322.506 274.941 329.604 284.994 344.422C290.214 352.117 289.1 358 282.424 358C279.988 358 278.611 357.314 277.297 355.447C271.501 347.21 264.846 339.155 263.368 338.588C260.957 337.662 260.306 339.229 259.504 347.89C258.696 356.627 257.913 358 253.739 358C251.353 358 249.103 356.453 242.983 350.606C231.602 339.733 229.045 339.563 229.015 349.679C228.997 355.717 227.301 358 222.831 358C220.478 358 218.327 356.586 213.153 351.64C206.123 344.921 197.436 338.571 193.724 337.441Z" fill="#131313"/>
<path d="M103.333 324.575C103.666 323.706 106.012 321.68 108.546 320.073C113.106 317.181 113.302 317.152 127.807 317.188C135.866 317.208 143.494 317.618 144.758 318.098C146.021 318.578 149.18 320.924 151.778 323.31C154.375 325.696 157.981 328.24 159.79 328.962C164.988 331.038 169.735 337.351 171.006 343.878C171.608 346.97 173.203 351.756 174.55 354.514C176.037 357.558 177 361.286 177 364C177 366.714 176.037 370.442 174.55 373.486C173.203 376.244 171.608 381.03 171.006 384.122C169.735 390.649 164.988 396.962 159.79 399.038C157.981 399.76 154.375 402.304 151.778 404.69C149.18 407.076 146.015 409.424 144.743 409.908C143.471 410.391 135.922 410.802 127.966 410.822C114.355 410.855 113.248 410.71 109.243 408.382C106.901 407.021 104.315 404.884 103.495 403.633C102.676 402.382 99.746 400.338 96.985 399.09C90.032 395.947 85 388.523 85 381.404C85 380.14 83.875 376.99 82.5 374.404C80.675 370.972 80 368.162 80 364C80 359.838 80.675 357.028 82.5 353.596C83.875 351.01 85 347.86 85 346.596C85 339.376 89.929 332.215 97.303 328.723C100.286 327.311 102.999 325.444 103.333 324.575Z" fill="#E17577"/>
<path fill-rule="evenodd" clip-rule="evenodd" d="M152.173 338.117C152.152 338.186 152.066 338.565 151.981 338.96C151.713 340.22 150.645 342.135 149.465 343.476C148.657 344.393 146.865 345.855 145.507 346.703C144.011 347.637 141.163 349.126 139.442 349.874C138.786 350.16 138.231 350.409 138.209 350.428C138.187 350.447 138.251 350.834 138.35 351.288C138.593 352.395 138.596 354.19 138.357 355.002C137.956 356.363 137.158 357.47 136.195 358.003C135.712 358.271 135.577 358.298 134.719 358.299C133.886 358.3 133.715 358.269 133.271 358.033C132.703 357.733 132.141 357.155 131.84 356.562C131.552 355.995 131.556 354.79 131.848 354.184C132.2 353.454 133.122 353.012 133.774 353.26C134.128 353.396 134.218 353.522 134.221 353.884C134.223 354.246 134.338 354.23 134.696 353.82C135.216 353.226 135.338 352.094 134.961 351.354C134.731 350.904 134.172 350.494 133.628 350.377C133.347 350.316 132.952 350.153 132.75 350.015C131.816 349.374 129.762 349.134 128.37 349.502C125.87 350.164 123.566 352.64 122.781 355.507C122.661 355.946 122.487 356.776 122.394 357.352L122.225 358.4L121.814 358.381C120.473 358.321 119.06 356.769 118.564 354.811C118.361 354.01 118.363 351.989 118.566 351.262C118.65 350.961 118.729 350.654 118.74 350.579C118.754 350.49 118.015 350.105 116.624 349.478C113.863 348.234 111.98 347.247 110.576 346.309C109.346 345.487 107.775 344.047 106.875 342.915C105.934 341.731 105.084 340 104.788 338.666C104.718 338.35 104.621 338.092 104.571 338.092C104.406 338.092 103.607 339.94 103.382 340.843C103.199 341.58 103.16 342.02 103.156 343.381C103.151 345.282 103.243 345.626 104.098 346.904C105.645 349.219 108.874 351.401 113.882 353.513C114.643 353.834 115.208 354.117 115.137 354.14C114.899 354.22 113.205 353.942 111.901 353.609C108.759 352.806 106.111 351.479 103.961 349.628C103.476 349.211 103.056 348.87 103.027 348.87C102.934 348.87 103.102 351.088 103.249 351.788C103.801 354.428 105.987 356.125 110.211 357.194C111.312 357.472 117.198 358.399 118.207 358.453C118.239 358.454 118.175 358.51 118.065 358.576C117.788 358.745 113.234 358.801 111.48 358.657C109.689 358.511 108.554 358.317 106.704 357.842C104.969 357.396 104.77 357.373 104.862 357.626C105.018 358.05 105.972 359.349 106.531 359.897C107.594 360.938 108.886 361.541 110.857 361.914C111.665 362.066 112.316 362.09 115.367 362.077C117.329 362.069 119.185 362.036 119.494 362.004L120.054 361.946L119.639 362.136C118.082 362.852 114.692 363.337 111.236 363.338C110.104 363.339 109.154 363.38 109.124 363.429C109.058 363.535 110.164 364.592 110.802 365.033C111.525 365.531 112.642 366.023 113.446 366.194C114.944 366.515 117.166 366.263 121.023 365.335C121.474 365.226 121.933 365.138 122.042 365.14L122.241 365.142L122.042 365.297C121.702 365.562 119.296 366.692 118.505 366.959C118.09 367.098 117.15 367.333 116.417 367.48C115.683 367.628 115.045 367.784 114.999 367.828C114.953 367.872 115.132 367.978 115.397 368.064C116.777 368.511 118.815 368.591 120.205 368.251C121.176 368.014 122.607 367.508 122.959 367.276C123.09 367.19 123.246 367.135 123.303 367.154C123.453 367.204 121.713 368.826 120.675 369.605C120.197 369.964 119.805 370.272 119.805 370.289C119.805 370.305 120.045 370.433 120.338 370.572C120.924 370.85 121.977 371.623 122.434 372.11C122.594 372.281 122.78 372.421 122.845 372.421C122.91 372.421 123.377 371.882 123.882 371.223C125.096 369.639 125.181 369.633 124.477 371.179C123.78 372.711 122.748 374.109 121.665 374.991C120.994 375.538 119.23 376.449 118.58 376.584C117.839 376.739 118.16 376.992 119.428 377.252C119.85 377.339 120.417 377.41 120.689 377.41C121.155 377.41 122.329 377.205 122.714 377.057C123.042 376.93 122.886 377.175 122.21 377.848C121.403 378.65 120.451 379.335 119.817 379.568C119.565 379.661 119.304 379.786 119.238 379.846C119.05 380.017 118.218 382.637 118.318 382.741C118.516 382.945 119.873 382.091 121.295 380.866C121.595 380.607 121.855 380.439 121.873 380.492C121.971 380.787 120.913 382.378 119.936 383.404L119.203 384.174L119.827 384.723C120.733 385.519 122.207 386.602 122.332 386.563C122.469 386.52 123.356 384.837 124.407 382.625C124.856 381.678 125.239 380.947 125.256 381.001C125.304 381.145 124.82 383.73 124.419 385.472C124.226 386.31 124.082 387.096 124.099 387.218C124.124 387.394 124.465 387.61 125.759 388.272C126.999 388.905 127.408 389.073 127.469 388.973C127.513 388.901 127.578 388.549 127.613 388.191C127.758 386.707 128.364 381.638 128.417 381.469C128.448 381.369 128.49 381.303 128.509 381.323C128.529 381.343 128.638 382.278 128.751 383.401C128.961 385.488 129.31 388.358 129.402 388.761C129.477 389.088 129.681 389.043 130.792 388.454C132.052 387.786 132.626 387.419 132.695 387.238C132.725 387.16 132.547 386.14 132.3 384.972C132.053 383.804 131.822 382.579 131.788 382.25C131.729 381.69 131.735 381.664 131.884 381.851C131.972 381.961 132.383 382.702 132.797 383.497C133.691 385.213 134.416 386.491 134.495 386.491C134.571 386.491 135.878 385.508 136.787 384.767L137.512 384.175L137.017 383.65C136.319 382.909 134.701 380.388 134.837 380.253C134.854 380.236 135.114 380.445 135.415 380.718C136.6 381.793 138.366 382.997 138.526 382.837C138.6 382.762 137.917 380.197 137.758 379.955C137.686 379.845 137.403 379.677 137.129 379.581C136.855 379.484 136.368 379.23 136.048 379.015C135.44 378.607 133.756 377.046 133.836 376.966C133.862 376.94 134.164 377.007 134.509 377.115C134.877 377.23 135.419 377.31 135.826 377.31C136.833 377.31 138.821 376.887 138.631 376.713C138.585 376.671 138.167 376.512 137.702 376.361C136.191 375.868 135.768 375.598 134.517 374.331C133.41 373.209 133.349 373.123 132.713 371.822C132.35 371.081 132.025 370.362 131.99 370.225C131.931 369.996 131.952 370.004 132.24 370.325C132.565 370.686 133.59 372.049 133.787 372.381C133.89 372.556 133.943 372.528 134.483 372.018C135.216 371.324 135.581 371.065 136.45 370.619C136.831 370.424 137.156 370.222 137.173 370.17C137.19 370.118 136.917 369.927 136.567 369.745C135.645 369.266 133.283 367.242 133.45 367.074C133.483 367.041 133.926 367.202 134.434 367.432C136.19 368.225 137.944 368.517 139.837 368.329C141.109 368.204 141.895 368.033 141.948 367.871C141.97 367.804 141.476 367.662 140.663 367.502C139.937 367.359 138.917 367.104 138.398 366.935C137.338 366.589 134.208 365.102 134.443 365.056C134.526 365.04 135.283 365.183 136.125 365.375C140.023 366.265 142.185 366.506 143.493 366.196C144.69 365.912 145.915 365.181 147.136 364.019L147.694 363.489L145.357 363.427C143.128 363.368 142.022 363.252 140.138 362.881C139.153 362.687 137.007 362.152 136.843 362.06C136.776 362.023 138.855 361.992 141.462 361.992C146.836 361.992 146.742 362.003 148.43 361.181C149.208 360.802 149.509 360.581 150.229 359.862C151.096 358.996 152.158 357.597 152.064 357.445C152.037 357.4 151.803 357.43 151.544 357.512C148.988 358.324 145.886 358.755 142.595 358.756C140.56 358.757 139.24 358.677 138.994 358.54C138.878 358.474 138.875 358.455 138.982 358.453C139.336 358.445 144.481 357.608 145.805 357.343C150.581 356.386 152.857 354.768 153.616 351.788C153.722 351.373 153.809 350.863 153.809 350.656C153.809 350.448 153.853 350.251 153.908 350.217C153.963 350.183 154.004 349.832 154 349.438C153.995 349.043 153.969 348.776 153.942 348.845C153.914 348.914 153.855 348.948 153.81 348.921C153.765 348.893 153.378 349.165 152.949 349.526C150.614 351.488 147.985 352.759 144.275 353.719C143.543 353.909 142.603 354.088 142.187 354.117L141.43 354.171L143.121 353.482C146.678 352.031 149.505 350.366 151.444 348.58C153.036 347.115 153.908 345.25 153.908 343.311C153.908 341.933 153.411 339.952 152.742 338.666C152.4 338.008 152.251 337.865 152.173 338.117ZM103.036 349.568C103.036 349.98 103.054 350.148 103.075 349.943C103.096 349.737 103.096 349.4 103.075 349.194C103.054 348.988 103.036 349.157 103.036 349.568ZM127.843 351.167C126.058 352.092 124.453 354.562 123.922 357.202C123.626 358.67 123.622 362.908 123.916 362.814C123.979 362.794 124.497 362.008 125.067 361.068C125.637 360.127 126.134 359.376 126.171 359.399C126.208 359.422 126.264 359.836 126.295 360.32C126.382 361.664 126.991 363.805 127.675 365.165C128.121 366.053 128.197 365.861 128.117 364.048C128.079 363.192 128.022 362.384 127.989 362.254C127.953 362.108 127.971 362.031 128.035 362.054C128.092 362.075 128.741 362.811 129.477 363.689C131.379 365.96 131.498 366.04 131.215 364.859C131 363.961 130.454 362.677 129.851 361.648C129.579 361.185 129.37 360.791 129.387 360.774C129.404 360.757 129.817 360.929 130.304 361.155C131.388 361.66 133.255 362.39 133.718 362.491C134.014 362.555 133.886 362.417 132.774 361.469C130.597 359.614 129.816 358.67 129.138 357.075C128.843 356.379 128.811 356.207 128.807 355.306C128.803 354.096 129.003 353.399 129.62 352.475C129.854 352.124 130.046 351.812 130.046 351.781C130.046 351.75 129.926 351.599 129.78 351.446C129.634 351.292 129.54 351.141 129.572 351.109C129.604 351.077 129.848 351.128 130.115 351.223C130.541 351.375 130.635 351.379 130.887 351.256C131.045 351.178 131.193 351.059 131.215 350.99C131.247 350.894 130.928 350.867 129.831 350.87C128.455 350.875 128.386 350.885 127.843 351.167ZM116.406 371.125C115.821 371.283 115.206 371.483 115.038 371.57C114.103 372.055 113.753 373.889 114.389 374.977C114.705 375.52 115.828 376.447 115.828 376.166C115.828 376.141 115.739 375.892 115.63 375.614C115.394 375.013 115.379 374.633 115.575 374.164C115.757 373.726 115.882 373.726 116.026 374.163C116.244 374.826 117.618 376.115 117.618 375.657C117.618 375.568 117.547 375.249 117.46 374.949C117.282 374.335 117.332 373.977 117.643 373.643C117.887 373.38 118.295 373.352 118.714 373.569C119.098 373.768 119.209 374.001 119.209 374.604C119.209 374.878 119.256 375.132 119.313 375.168C119.451 375.253 120.025 374.635 120.25 374.16C120.347 373.953 120.448 373.51 120.473 373.177C120.513 372.631 120.488 372.523 120.216 372.101C119.876 371.571 119.4 371.285 118.683 371.18C118.421 371.141 118.054 371.046 117.866 370.967C117.679 370.888 117.512 370.827 117.497 370.831C117.482 370.836 116.991 370.968 116.406 371.125ZM138.348 371.13C136.987 371.34 136.351 372.023 136.438 373.183C136.489 373.865 136.838 374.617 137.316 375.076C137.622 375.37 137.635 375.353 137.605 374.698C137.575 374.043 138.039 373.419 138.556 373.419C139.314 373.419 139.499 373.734 139.42 374.895C139.389 375.345 139.393 375.714 139.43 375.714C139.563 375.714 140.245 375.229 140.501 374.952C140.647 374.795 140.835 374.498 140.919 374.292C141.186 373.639 141.382 373.855 141.378 374.799C141.377 375.147 141.3 375.533 141.178 375.803C141.069 376.045 140.995 376.258 141.015 376.278C141.088 376.352 141.852 375.725 142.144 375.352C142.64 374.718 142.792 374.335 142.792 373.716C142.792 373.102 142.52 372.339 142.165 371.96C142.055 371.842 141.643 371.595 141.25 371.411C140.648 371.13 140.41 371.074 139.74 371.058C139.303 371.047 138.676 371.08 138.348 371.13Z" fill="black"/>
</svg>
