<svg width="246" height="245" viewBox="0 0 246 245" fill="none" xmlns="http://www.w3.org/2000/svg">
<path d="M32.5 9V47.5V51.5L44 43L88.5 42L93.5 37.5L96 13L88.5 4H39.5L32.5 9Z" fill="#D2D1CF" stroke="black"/>
<path d="M206.5 9V47.5V51.5L195 43L150.5 42L145.5 37.5L143 13L150.5 4H199.5L206.5 9Z" fill="#D2D1CF" stroke="black"/>
<path d="M111.626 64.256C93.1002 72.801 96.5232 98.969 116.738 103.329C127.947 105.747 140.098 94.844 140.12 82.348C140.129 77.424 135.398 69.11 130.887 66.125C126.101 62.958 116.467 62.023 111.626 64.256Z" fill="#599ECB"/>
<path d="M111.126 108.448C100.238 111.466 91.2132 119.735 87.5862 130.017C86.4382 133.269 86.1262 140.205 86.1262 162.472V190.79L88.5392 193.596L90.9532 196.402H119.517H148.081L150.853 193.631L153.626 190.86L153.926 166.376C154.244 140.388 153.563 133.512 149.923 125.967C143.294 112.226 125.874 104.36 111.126 108.448Z" fill="#599ECB"/>
<path fill-rule="evenodd" clip-rule="evenodd" d="M30.1252 10.845C31.2882 6.66001 35.6502 2.16101 39.7302 0.940011C41.3232 0.464011 52.3012 0.0450148 64.1262 0.0100148C88.5642 -0.0629852 91.9872 0.705013 95.9712 7.15201C97.8562 10.201 98.1262 12.104 98.1262 22.32C98.1262 34.89 97.4112 37.442 92.6432 41.902C89.9912 44.382 89.7912 44.406 67.2322 44.902L44.4932 45.402L39.5602 49.482C29.2422 58.015 29.1242 57.836 29.1322 33.53C29.1352 23.009 29.5822 12.801 30.1252 10.845ZM141.13 22.886C141.125 8.99502 142.442 5.60601 149.2 2.11601C153.491 -0.0999863 154.332 -0.160986 176.805 0.116014C198.412 0.383014 200.172 0.542013 202.744 2.46401C209.417 7.45101 209.595 8.13501 209.953 30.099C210.291 50.862 209.948 54.916 207.857 54.882C207.18 54.871 203.761 52.621 200.258 49.882L193.891 44.902L172.758 44.898C153.436 44.895 151.347 44.724 148.367 42.907C142.36 39.245 141.134 35.854 141.13 22.886ZM35.3522 28.971C35.0522 10.201 35.4192 8.57201 40.4552 6.32301C42.9372 5.21501 48.3672 4.96101 65.4602 5.15501L87.2942 5.40201L90.2102 8.66801C93.0592 11.858 93.1262 12.188 93.1262 22.995C93.1262 33.887 93.0812 34.101 90.2032 36.979L87.2802 39.902H65.3402H43.4012L39.5142 42.993L35.6262 46.084L35.3522 28.971ZM148.578 9.14101C150.017 7.43101 152.191 5.83901 153.41 5.60301C154.629 5.36701 164.528 5.11301 175.408 5.03801C205.125 4.83401 205.126 4.83402 205.126 30.37C205.126 38.913 204.788 45.889 204.376 45.874C203.964 45.859 201.858 44.509 199.698 42.874L195.77 39.902H174.004C152.443 39.902 152.211 39.879 149.432 37.491C146.707 35.149 146.616 34.751 146.294 23.665C145.972 12.585 146.039 12.158 148.578 9.14101ZM14.1262 82.797C14.1262 74.681 18.6912 67.722 26.1332 64.495C39.3122 58.78 54.1262 68.517 54.1262 82.894C54.1262 94.735 45.7742 103.225 34.1262 103.225C27.8502 103.225 24.0242 101.535 19.4372 96.737C15.4362 92.552 14.1262 89.114 14.1262 82.797Z" fill="#D2D1CF"/>
<path d="M22.0462 115.194C11.4372 119.655 4.66817 126.971 1.60417 137.288C-0.351831 143.876 -0.604832 234.203 1.32117 238.43C3.80717 243.888 3.95017 243.902 56.1262 243.902C108.302 243.902 108.445 243.888 110.931 238.43C111.588 236.988 112.126 232.194 112.126 227.778C112.126 220.236 111.948 219.57 109.203 216.825L106.28 213.902H88.8582C73.4402 213.902 71.2512 213.698 69.8292 212.126C68.4282 210.578 68.1842 205.739 67.9242 174.376L67.6262 138.402L64.9782 132.754C59.4032 120.863 48.4812 113.691 35.1262 113.151C29.0462 112.905 26.5692 113.292 22.0462 115.194Z" fill="#E17577"/>
<circle cx="20" cy="20" r="20" transform="matrix(-1 0 0 1 54 63)" fill="#E17577"/>
<path d="M107 224V229V234C107 234.5 106 235.5 105.5 236C105.1 236.4 102 237.167 100.5 237.5L93 238.5H61L10 237.5C8.83334 237.333 6.4 236.9 6 236.5C5.6 236.1 5.5 235 5.5 234.5L5 218.5V190.5V156C5.33334 151 6.1 140.5 6.5 138.5C7 136 10 132 12 129C14 126 20.5 121.5 23 120.5C25.5 119.5 33.5 118.5 35.5 118.5C37.1 118.5 41.8333 119.5 44 120C47 121 53.5 126.5 55.5 128.5C57.5 130.5 60.8333 136.333 62 139.5C62.6667 163.833 63.5 212.6 63.5 213C63.5 213.5 64.5 215 65.5 216C66.3 216.8 68.8333 218 70 218.5C80.3333 218.667 101.2 219.1 102 219.5C103 220 104.5 220.5 105.5 221C106.3 221.4 106.833 223.167 107 224Z" fill="#E17577"/>
</svg>
