<svg width="246" height="245" viewBox="0 0 246 245" fill="none" xmlns="http://www.w3.org/2000/svg">
<path d="M32.5 9V47.5V51.5L44 43L88.5 42L93.5 37.5L96 13L88.5 4H39.5L32.5 9Z" fill="#D2D1CF" stroke="black"/>
<path d="M206.5 9V47.5V51.5L195 43L150.5 42L145.5 37.5L143 13L150.5 4H199.5L206.5 9Z" fill="#D2D1CF" stroke="black"/>
<path d="M111.626 64.256C93.1002 72.801 96.5232 98.969 116.738 103.329C127.947 105.747 140.098 94.844 140.12 82.348C140.129 77.424 135.398 69.11 130.887 66.125C126.101 62.958 116.467 62.023 111.626 64.256Z" fill="#599ECB"/>
<path fill-rule="evenodd" clip-rule="evenodd" d="M39.7302 0.940011C35.6502 2.16101 31.2882 6.66001 30.1252 10.845C29.5822 12.801 29.1352 23.009 29.1322 33.53C29.1242 57.836 29.2422 58.015 39.5602 49.482L44.4932 45.402L67.2322 44.902C89.7912 44.406 89.9912 44.382 92.6432 41.902C97.4112 37.442 98.1262 34.89 98.1262 22.32C98.1262 12.104 97.8562 10.201 95.9712 7.15201C91.9872 0.705013 88.5642 -0.0629852 64.1262 0.0100148C52.3012 0.0450148 41.3232 0.464011 39.7302 0.940011ZM149.2 2.11601C142.442 5.60601 141.125 8.99502 141.13 22.886C141.134 35.854 142.36 39.245 148.367 42.907C151.347 44.724 153.436 44.895 172.758 44.898L193.891 44.902L200.258 49.882C203.761 52.621 207.18 54.871 207.857 54.882C209.948 54.916 210.291 50.862 209.953 30.099C209.595 8.13501 209.417 7.45101 202.744 2.46401C200.172 0.542013 198.412 0.383014 176.805 0.116014C154.332 -0.160986 153.491 -0.0999863 149.2 2.11601ZM40.4552 6.32301C35.4192 8.57201 35.0522 10.201 35.3522 28.971L35.6262 46.084L39.5142 42.993L43.4012 39.902H65.3402H87.2802L90.2032 36.979C93.0812 34.101 93.1262 33.887 93.1262 22.995C93.1262 12.188 93.0592 11.858 90.2102 8.66801L87.2942 5.40201L65.4602 5.15501C48.3672 4.96101 42.9372 5.21501 40.4552 6.32301ZM153.41 5.60301C152.191 5.83901 150.017 7.43101 148.578 9.14101C146.039 12.158 145.972 12.585 146.294 23.665C146.616 34.751 146.707 35.149 149.432 37.491C152.211 39.879 152.443 39.902 174.004 39.902H195.77L199.698 42.874C201.858 44.509 203.964 45.859 204.376 45.874C204.788 45.889 205.126 38.913 205.126 30.37C205.126 4.83402 205.125 4.83401 175.408 5.03801C164.528 5.11301 154.629 5.36701 153.41 5.60301ZM26.1332 64.495C18.6912 67.722 14.1262 74.681 14.1262 82.797C14.1262 89.114 15.4362 92.552 19.4372 96.737C24.0242 101.535 27.8502 103.225 34.1262 103.225C45.7742 103.225 54.1262 94.735 54.1262 82.894C54.1262 68.517 39.3122 58.78 26.1332 64.495ZM203.133 64.495C195.653 67.739 191.126 74.676 191.126 82.894C191.126 94.735 199.478 103.225 211.126 103.225C217.402 103.225 221.228 101.535 225.815 96.737C229.816 92.552 231.126 89.114 231.126 82.797C231.126 68.519 216.263 58.801 203.133 64.495ZM204.162 70.152C190.406 77.206 195.6 97.902 211.126 97.902C226.802 97.902 231.718 76.724 217.626 69.902C212.313 67.33 209.565 67.381 204.162 70.152ZM22.0462 115.194C11.4372 119.655 4.66817 126.971 1.60417 137.288C-0.351831 143.876 -0.604832 234.203 1.32117 238.43C3.80717 243.888 3.95017 243.902 56.1262 243.902C108.302 243.902 108.445 243.888 110.931 238.43C111.588 236.988 112.126 232.194 112.126 227.778C112.126 220.236 111.948 219.57 109.203 216.825L106.28 213.902H88.8582C73.4402 213.902 71.2512 213.698 69.8292 212.126C68.4282 210.578 68.1842 205.739 67.9242 174.376L67.6262 138.402L64.9782 132.754C59.4032 120.863 48.4812 113.691 35.1262 113.151C29.0462 112.905 26.5692 113.292 22.0462 115.194ZM200.97 114.246C190.816 118.011 184.273 124 179.855 133.572C177.701 138.24 177.616 139.608 177.328 174.376C177.068 205.739 176.824 210.578 175.423 212.126C174.001 213.698 171.812 213.902 156.394 213.902H138.972L136.049 216.825C133.304 219.57 133.126 220.236 133.126 227.778C133.126 236.952 134.35 240.45 138.271 242.477C142.401 244.613 235.901 244.587 240.035 242.449C245.16 239.799 245.222 239.088 244.913 186.856L244.626 138.402L241.978 132.754C236.395 120.846 225.46 113.673 212.126 113.172C207.586 113.001 203.183 113.425 200.97 114.246ZM204.626 118.782C195.92 121.081 188.725 127.151 184.927 135.402C182.691 140.26 182.612 141.448 182.126 177.24L181.626 214.079L178.82 216.49C176.088 218.839 175.561 218.902 158.642 218.902H158.548C145.649 218.902 140.897 218.902 139.147 221.194C138.126 222.531 138.126 224.647 138.126 227.998V228.039C138.126 228.938 138.092 229.756 138.06 230.5C137.98 232.398 137.92 233.814 138.507 234.869C140.234 237.972 147.556 237.961 176.397 237.915C180.245 237.909 184.475 237.902 189.126 237.902C237.196 237.902 238.075 237.866 239.137 235.882C239.88 234.493 240.126 219.252 239.922 187.132C239.628 140.784 239.607 140.361 237.325 135.402C234.42 129.09 229.948 124.399 223.88 121.298C218.747 118.674 209.573 117.476 204.626 118.782Z" fill="black"/>
<path d="M111.126 108.448C100.238 111.466 91.2132 119.735 87.5862 130.017C86.4382 133.269 86.1262 140.205 86.1262 162.472V190.79L88.5392 193.596L90.9532 196.402H119.517H148.081L150.853 193.631L153.626 190.86L153.926 166.376C154.244 140.388 153.563 133.512 149.923 125.967C143.294 112.226 125.874 104.36 111.126 108.448Z" fill="#599ECB"/>
<ellipse cx="15" cy="15.5" rx="15" ry="15.5" transform="matrix(-1 0 0 1 49 67)" fill="#E17577"/>
<path d="M107 224V229V234C107 234.5 106 235.5 105.5 236C105.1 236.4 102 237.167 100.5 237.5L93 238.5H61L10 237.5C8.83334 237.333 6.4 236.9 6 236.5C5.6 236.1 5.5 235 5.5 234.5L5 218.5V190.5V156C5.33334 151 6.1 140.5 6.5 138.5C7 136 10 132 12 129C14 126 20.5 121.5 23 120.5C25.5 119.5 33.5 118.5 35.5 118.5C37.1 118.5 41.8333 119.5 44 120C47 121 53.5 126.5 55.5 128.5C57.5 130.5 60.8333 136.333 62 139.5C62.6667 163.833 63.5 212.6 63.5 213C63.5 213.5 64.5 215 65.5 216C66.3 216.8 68.8333 218 70 218.5C80.3333 218.667 101.2 219.1 102 219.5C103 220 104.5 220.5 105.5 221C106.3 221.4 106.833 223.167 107 224Z" fill="#E17577" stroke="black"/>
</svg>
