<svg width="753" height="509" viewBox="0 0 753 509" fill="none" xmlns="http://www.w3.org/2000/svg">
<path d="M163.492 178.391C163.152 178.941 162.001 179.391 160.933 179.391C159.865 179.391 158.992 179.841 158.992 180.391C158.992 180.941 158.331 181.391 157.524 181.391C156.716 181.391 153.786 183.59 151.011 186.278C147.175 189.996 145.371 192.808 143.48 198.024C142.111 201.796 140.997 206.234 141.003 207.887C141.014 211.068 142.886 217.9 145.114 222.891C146.648 226.329 155.776 235.391 157.704 235.391C158.412 235.391 158.992 235.841 158.992 236.391C158.992 236.941 160.117 237.391 161.492 237.391C162.867 237.391 163.992 237.841 163.992 238.391C163.992 238.979 167.492 239.391 172.492 239.391C177.492 239.391 180.992 238.979 180.992 238.391C180.992 237.841 182.117 237.391 183.492 237.391C184.867 237.391 185.992 236.941 185.992 236.391C185.992 235.841 186.725 235.391 187.621 235.391C189.523 235.391 198.929 226.479 198.966 224.641C198.98 223.954 199.332 223.391 199.749 223.391C200.165 223.391 201.097 221.493 201.821 219.173C205.8 206.425 203.639 196.35 194.965 187.213C191.926 184.011 188.663 181.391 187.715 181.391C186.768 181.391 185.992 180.941 185.992 180.391C185.992 179.841 185.119 179.391 184.051 179.391C182.983 179.391 181.832 178.941 181.492 178.391C181.152 177.841 177.102 177.391 172.492 177.391C167.882 177.391 163.832 177.841 163.492 178.391Z" fill="#FFBEAA"/>
<path d="M160.242 294.181C155.705 294.341 151.992 294.904 151.992 295.431C151.992 295.959 150.417 296.391 148.492 296.391C146.567 296.391 144.992 296.841 144.992 297.391C144.992 297.941 143.642 298.391 141.992 298.391C140.342 298.391 138.992 298.841 138.992 299.391C138.992 299.941 138.436 300.391 137.756 300.391C135.912 300.391 125.992 305.588 125.992 306.555C125.992 307.015 125.494 307.391 124.886 307.391C121.279 307.391 106.187 322.571 102.492 329.915C101.392 332.102 100.155 334.041 99.742 334.224C99.33 334.408 98.992 335.42 98.992 336.474C98.992 337.528 98.542 338.391 97.992 338.391C97.442 338.391 96.992 339.264 96.992 340.332C96.992 341.4 96.542 342.551 95.992 342.891C95.442 343.231 94.992 344.832 94.992 346.45C94.992 348.068 94.582 349.391 94.081 349.391C93.58 349.391 93.017 352.092 92.831 355.393L92.492 361.395L169.85 361.393L247.209 361.391L246.675 359.141C246.381 357.903 245.829 354.298 245.449 351.128C245.069 347.958 244.361 345.119 243.875 344.819C243.389 344.519 242.992 343.451 242.992 342.446C242.992 340.529 242.53 339.565 237 329.948C233.215 323.365 217.714 307.391 215.111 307.391C214.587 307.391 214.009 307.004 213.825 306.532C213.375 305.37 198.689 298.391 196.696 298.391C195.824 298.391 194.832 297.941 194.492 297.391C194.152 296.841 192.588 296.391 191.016 296.391C189.445 296.391 188.009 296.002 187.825 295.527C187.435 294.515 172.069 293.765 160.242 294.181Z" fill="#FCDB78"/>
<path fill-rule="evenodd" clip-rule="evenodd" d="M71.659 151.058C70.532 152.184 70.863 336.391 71.992 336.391C72.542 336.391 72.992 335.651 72.992 334.746C72.992 332.71 79.951 318.016 81.133 317.558C81.605 317.374 81.992 316.587 81.992 315.808C81.992 315.028 82.412 314.391 82.925 314.391C83.438 314.391 84.148 313.473 84.504 312.352C85.832 308.168 106.483 288.544 113.478 284.818C117.328 282.768 120.495 280.888 120.992 280.358C122.139 279.135 134.669 274.385 136.742 274.388C137.98 274.39 138.992 273.941 138.992 273.391C138.992 272.841 140.477 272.391 142.292 272.391C144.107 272.391 146.02 271.982 146.542 271.483C148.647 269.471 179.556 267.555 181.327 269.326C181.913 269.912 184.525 270.391 187.133 270.391C189.741 270.391 192.152 270.841 192.492 271.391C192.832 271.941 194.883 272.391 197.051 272.391C199.219 272.391 200.992 272.79 200.992 273.278C200.992 273.765 202.23 274.407 203.742 274.703C208.129 275.563 213.992 277.812 213.992 278.636C213.992 279.051 214.807 279.391 215.803 279.391C216.8 279.391 218.581 280.291 219.762 281.391C220.942 282.491 222.602 283.391 223.45 283.391C224.298 283.391 224.992 283.841 224.992 284.391C224.992 284.941 225.635 285.391 226.421 285.391C227.206 285.391 228.444 285.968 229.171 286.674C229.897 287.38 232.067 289.048 233.992 290.382C239.597 294.266 253.992 309.392 253.992 311.399C253.992 311.944 254.387 312.391 254.871 312.391C255.354 312.391 256.309 313.741 256.992 315.391C257.675 317.041 258.531 318.391 258.893 318.391C259.255 318.391 260.425 320.641 261.492 323.391C262.559 326.141 263.783 328.391 264.212 328.391C264.641 328.391 264.992 329.264 264.992 330.332C264.992 331.4 265.442 332.551 265.992 332.891C266.542 333.231 266.992 334.581 266.992 335.891C266.992 337.201 267.442 338.551 267.992 338.891C268.542 339.231 268.992 340.463 268.992 341.629C268.992 342.795 269.431 345.131 269.967 346.82C270.503 348.509 271.211 352.478 271.539 355.641C272.085 360.898 272.344 361.391 274.564 361.391H276.992V257.473C276.992 200.318 276.719 152.843 276.385 151.973C275.837 150.545 265.89 150.391 174.052 150.391C118.102 150.391 72.025 150.691 71.659 151.058ZM162.728 153.321C164.798 153.282 167.392 152.846 168.492 152.352C169.592 151.857 171.842 151.655 173.492 151.903C175.142 152.151 178.868 152.651 181.771 153.015C184.675 153.379 187.289 154.063 187.58 154.534C187.872 155.005 188.85 155.391 189.755 155.391C191.976 155.391 202.992 160.531 202.992 161.567C202.992 162.02 203.482 162.391 204.082 162.391C205.867 162.391 218.496 175.65 220.046 179.152C220.835 180.933 221.82 182.391 222.236 182.391C222.652 182.391 222.992 183.291 222.992 184.391C222.992 185.491 223.39 186.391 223.875 186.391C224.361 186.391 225.001 187.403 225.297 188.641C225.593 189.879 226.53 193.591 227.378 196.891C228.227 200.191 228.908 205.366 228.892 208.391C228.862 214.204 226.965 224.752 225.726 225.99C225.322 226.394 224.992 227.549 224.992 228.558C224.992 229.566 224.542 230.391 223.992 230.391C223.442 230.391 222.992 231.291 222.992 232.391C222.992 233.491 222.542 234.391 221.992 234.391C221.442 234.391 220.992 234.851 220.992 235.412C220.992 236.971 215.835 244.578 212.871 247.391C208 252.015 204.983 254.391 203.984 254.391C203.439 254.391 202.992 254.758 202.992 255.206C202.992 256.27 196.973 259.142 189.698 261.55C181.455 264.278 163.44 264.242 155.027 261.481C149.015 259.507 144.448 257.266 140.582 254.391C136.184 251.12 125.992 240.287 125.992 238.882C125.992 238.062 125.542 237.391 124.992 237.391C124.442 237.391 123.992 236.716 123.992 235.891C123.992 235.066 123.542 234.391 122.992 234.391C122.442 234.391 121.992 233.491 121.992 232.391C121.992 231.291 121.636 230.391 121.201 230.391C119.496 230.391 116.992 217.303 116.992 208.391C116.992 199.479 119.496 186.391 121.201 186.391C121.636 186.391 121.992 185.491 121.992 184.391C121.992 183.291 122.442 182.391 122.992 182.391C123.542 182.391 123.992 181.716 123.992 180.891C123.992 180.066 124.442 179.391 124.992 179.391C125.542 179.391 125.992 178.694 125.992 177.843C125.992 176.308 137.739 164.05 141.523 161.635C143.69 160.253 149.1 157.658 152.992 156.136C154.367 155.598 156.273 154.76 157.228 154.274C158.183 153.788 160.658 153.359 162.728 153.321Z" fill="#86DFEB"/>
<path fill-rule="evenodd" clip-rule="evenodd" d="M48.992 132.32C48.992 131.035 50.759 129.185 53.492 127.607C54.973 126.752 86.428 126.444 174.636 126.421L293.78 126.391L296.886 129.292C298.594 130.888 299.992 132.913 299.992 133.792C299.992 134.672 300.442 135.391 300.992 135.391C301.653 135.391 301.992 176.061 301.992 255.402C301.992 373.399 301.958 375.484 299.989 379.652C298.842 382.078 296.833 384.426 295.289 385.141C293.18 386.119 266.649 386.391 173.393 386.391H54.192L50.592 382.791L46.992 379.191V256.291C46.992 175.024 47.331 133.391 47.992 133.391C48.542 133.391 48.992 132.909 48.992 132.32ZM329.231 142.586C329.49 141.593 331.23 140.028 333.097 139.109C336.224 137.568 348.482 137.435 488.617 137.414C572.286 137.401 642.175 137.678 643.927 138.028C648.127 138.868 652.594 143.456 653.401 147.758C654.387 153.012 651.661 158.826 647.164 161.064C643.664 162.806 636.392 162.903 491.492 163.154C381.638 163.345 338.66 163.109 336.492 162.303C330.722 160.16 329.205 159.153 328.102 156.734C326.783 153.839 326.61 144.391 327.875 144.391C328.361 144.391 328.971 143.579 329.231 142.586ZM71.992 336.391C70.863 336.391 70.532 152.184 71.659 151.058C72.025 150.691 118.102 150.391 174.052 150.391C265.89 150.391 275.837 150.545 276.385 151.973C276.719 152.843 276.992 200.318 276.992 257.473V361.391H274.564C272.344 361.391 272.085 360.898 271.539 355.641C271.211 352.478 270.503 348.509 269.967 346.82C269.431 345.131 268.992 342.795 268.992 341.629C268.992 340.463 268.542 339.231 267.992 338.891C267.442 338.551 266.992 337.201 266.992 335.891C266.992 334.581 266.542 333.231 265.992 332.891C265.442 332.551 264.992 331.4 264.992 330.332C264.992 329.264 264.641 328.391 264.212 328.391C263.783 328.391 262.559 326.141 261.492 323.391C260.425 320.641 259.255 318.391 258.893 318.391C258.531 318.391 257.675 317.041 256.992 315.391C256.309 313.741 255.354 312.391 254.871 312.391C254.387 312.391 253.992 311.944 253.992 311.399C253.992 309.392 239.597 294.266 233.992 290.382C232.067 289.048 229.897 287.38 229.171 286.674C228.444 285.968 227.206 285.391 226.421 285.391C225.635 285.391 224.992 284.941 224.992 284.391C224.992 283.841 224.298 283.391 223.45 283.391C222.602 283.391 220.942 282.491 219.762 281.391C218.581 280.291 216.8 279.391 215.803 279.391C214.807 279.391 213.992 279.051 213.992 278.636C213.992 277.812 208.129 275.563 203.742 274.703C202.23 274.407 200.992 273.765 200.992 273.278C200.992 272.79 199.219 272.391 197.051 272.391C194.883 272.391 192.832 271.941 192.492 271.391C192.152 270.841 189.741 270.391 187.133 270.391C184.525 270.391 181.913 269.912 181.327 269.326C179.556 267.555 148.647 269.471 146.542 271.483C146.02 271.982 144.107 272.391 142.292 272.391C140.477 272.391 138.992 272.841 138.992 273.391C138.992 273.941 137.98 274.39 136.742 274.388C134.669 274.385 122.139 279.135 120.992 280.358C120.495 280.888 117.328 282.768 113.478 284.818C106.483 288.544 85.832 308.168 84.504 312.352C84.148 313.473 83.438 314.391 82.925 314.391C82.412 314.391 81.992 315.028 81.992 315.808C81.992 316.587 81.605 317.374 81.133 317.558C79.951 318.016 72.992 332.71 72.992 334.746C72.992 335.651 72.542 336.391 71.992 336.391ZM162.728 153.321C164.798 153.282 167.392 152.846 168.492 152.352C169.592 151.857 171.842 151.655 173.492 151.903C175.142 152.151 178.868 152.651 181.771 153.015C184.675 153.379 187.289 154.063 187.58 154.534C187.872 155.005 188.85 155.391 189.755 155.391C191.976 155.391 202.992 160.531 202.992 161.567C202.992 162.02 203.482 162.391 204.082 162.391C205.867 162.391 218.496 175.65 220.046 179.152C220.835 180.933 221.82 182.391 222.236 182.391C222.652 182.391 222.992 183.291 222.992 184.391C222.992 185.491 223.39 186.391 223.875 186.391C224.361 186.391 225.001 187.403 225.297 188.641C225.593 189.879 226.53 193.591 227.378 196.891C228.227 200.191 228.908 205.366 228.892 208.391C228.862 214.204 226.965 224.752 225.726 225.99C225.322 226.394 224.992 227.549 224.992 228.558C224.992 229.566 224.542 230.391 223.992 230.391C223.442 230.391 222.992 231.291 222.992 232.391C222.992 233.491 222.542 234.391 221.992 234.391C221.442 234.391 220.992 234.851 220.992 235.412C220.992 236.971 215.835 244.578 212.871 247.391C208 252.015 204.983 254.391 203.984 254.391C203.439 254.391 202.992 254.758 202.992 255.206C202.992 256.27 196.973 259.142 189.698 261.55C181.455 264.278 163.44 264.242 155.027 261.481C149.015 259.507 144.448 257.266 140.582 254.391C136.184 251.12 125.992 240.287 125.992 238.882C125.992 238.062 125.542 237.391 124.992 237.391C124.442 237.391 123.992 236.716 123.992 235.891C123.992 235.066 123.542 234.391 122.992 234.391C122.442 234.391 121.992 233.491 121.992 232.391C121.992 231.291 121.636 230.391 121.201 230.391C119.496 230.391 116.992 217.303 116.992 208.391C116.992 199.479 119.496 186.391 121.201 186.391C121.636 186.391 121.992 185.491 121.992 184.391C121.992 183.291 122.442 182.391 122.992 182.391C123.542 182.391 123.992 181.716 123.992 180.891C123.992 180.066 124.442 179.391 124.992 179.391C125.542 179.391 125.992 178.694 125.992 177.843C125.992 176.308 137.739 164.05 141.523 161.635C143.69 160.253 149.1 157.658 152.992 156.136C154.367 155.598 156.273 154.76 157.228 154.274C158.183 153.788 160.658 153.359 162.728 153.321ZM160.933 179.391C162.001 179.391 163.152 178.941 163.492 178.391C163.832 177.841 167.882 177.391 172.492 177.391C177.102 177.391 181.152 177.841 181.492 178.391C181.832 178.941 182.983 179.391 184.051 179.391C185.119 179.391 185.992 179.841 185.992 180.391C185.992 180.941 186.768 181.391 187.715 181.391C188.663 181.391 191.926 184.011 194.965 187.213C203.639 196.35 205.8 206.425 201.821 219.173C201.097 221.493 200.165 223.391 199.749 223.391C199.332 223.391 198.98 223.954 198.966 224.641C198.929 226.479 189.523 235.391 187.621 235.391C186.725 235.391 185.992 235.841 185.992 236.391C185.992 236.941 184.867 237.391 183.492 237.391C182.117 237.391 180.992 237.841 180.992 238.391C180.992 238.979 177.492 239.391 172.492 239.391C167.492 239.391 163.992 238.979 163.992 238.391C163.992 237.841 162.867 237.391 161.492 237.391C160.117 237.391 158.992 236.941 158.992 236.391C158.992 235.841 158.412 235.391 157.704 235.391C155.776 235.391 146.648 226.329 145.114 222.891C142.886 217.9 141.014 211.068 141.003 207.887C140.997 206.234 142.111 201.796 143.48 198.024C145.371 192.808 147.175 189.996 151.011 186.278C153.786 183.59 156.716 181.391 157.524 181.391C158.331 181.391 158.992 180.941 158.992 180.391C158.992 179.841 159.865 179.391 160.933 179.391ZM326.992 223.176C326.992 217.737 328.921 214.043 332.885 211.888C335.102 210.683 358.651 210.465 490.094 210.431L644.696 210.391L648.094 212.678C655.07 217.372 655.397 227.826 648.717 232.591L645.492 234.891H489.304H333.117L330.054 231.461C327.529 228.633 326.992 227.179 326.992 223.176ZM326.992 298.787C326.992 293.609 327.305 292.789 330.442 289.742L333.893 286.391L489.192 286.395C639.372 286.398 644.594 286.46 647.572 288.277C650.628 290.14 653.992 295.676 653.992 298.842C653.992 300.769 651.306 306.22 649.434 308.092C648.719 308.806 647.428 309.391 646.563 309.391C645.699 309.391 644.992 309.841 644.992 310.391C644.992 311.996 337.891 311.75 334.289 310.143C328.702 307.65 326.992 304.988 326.992 298.787ZM151.992 295.431C151.992 294.904 155.705 294.341 160.242 294.181C172.069 293.765 187.435 294.515 187.825 295.527C188.009 296.002 189.445 296.391 191.016 296.391C192.588 296.391 194.152 296.841 194.492 297.391C194.832 297.941 195.824 298.391 196.696 298.391C198.689 298.391 213.375 305.37 213.825 306.532C214.009 307.004 214.587 307.391 215.111 307.391C217.714 307.391 233.215 323.365 237 329.948C242.53 339.565 242.992 340.529 242.992 342.446C242.992 343.451 243.389 344.519 243.875 344.819C244.361 345.119 245.069 347.958 245.449 351.128C245.829 354.298 246.381 357.903 246.675 359.141L247.209 361.391L169.85 361.393L92.492 361.395L92.831 355.393C93.017 352.092 93.58 349.391 94.081 349.391C94.582 349.391 94.992 348.068 94.992 346.45C94.992 344.832 95.442 343.231 95.992 342.891C96.542 342.551 96.992 341.4 96.992 340.332C96.992 339.264 97.442 338.391 97.992 338.391C98.542 338.391 98.992 337.528 98.992 336.474C98.992 335.42 99.33 334.408 99.742 334.224C100.155 334.041 101.392 332.102 102.492 329.915C106.187 322.571 121.279 307.391 124.886 307.391C125.494 307.391 125.992 307.015 125.992 306.555C125.992 305.588 135.912 300.391 137.756 300.391C138.436 300.391 138.992 299.941 138.992 299.391C138.992 298.841 140.342 298.391 141.992 298.391C143.642 298.391 144.992 297.941 144.992 297.391C144.992 296.841 146.567 296.391 148.492 296.391C150.417 296.391 151.992 295.959 151.992 295.431ZM326.993 371.597C326.992 365.535 329.613 361.765 335.249 359.72C339.813 358.064 517.178 357.883 522.093 359.53C526.023 360.846 529.992 364.137 529.992 366.079C529.992 366.815 530.55 368.312 531.233 369.405C532.22 370.986 532.22 371.796 531.233 373.377C530.55 374.47 529.992 375.84 529.992 376.423C529.992 377.689 526.244 381.397 523.2 383.141C520.4 384.746 336.481 384.991 335.492 383.391C335.152 382.841 334.165 382.391 333.299 382.391C332.433 382.391 330.66 381.153 329.36 379.641C327.517 377.499 326.994 375.72 326.993 371.597Z" fill="black"/>
<path fill-rule="evenodd" clip-rule="evenodd" d="M253.492 0.891301L130.491 1.1453L7.49102 1.3993L4.89802 3.6453C3.47302 4.8803 1.78602 6.8743 1.14902 8.0753C0.282023 9.7123 -0.00697682 71.6223 -0.00397682 255.075C-0.000976822 497.368 0.0200238 499.924 1.98102 503.141C3.07102 504.928 4.64402 506.391 5.47702 506.391C6.31002 506.391 6.99202 506.841 6.99202 507.391C6.99202 508.056 130.825 508.391 376.492 508.391C622.159 508.391 745.992 508.056 745.992 507.391C745.992 506.841 746.505 506.391 747.132 506.391C748.669 506.391 750.921 503.302 750.96 501.141C750.978 500.179 751.442 499.391 751.992 499.391C752.656 499.391 752.992 417.058 752.992 254.391C752.992 91.7243 752.656 9.3913 751.992 9.3913C751.442 9.3913 750.992 8.6843 750.992 7.8203C750.992 6.9553 750.42 5.6763 749.721 4.9783C745.514 0.7703 749.408 0.9043 623.242 0.6213L502.996 0.891257L490.996 0.891301H476.992H377.496H277.996H266.496H253.492ZM24.992 484.391V255.391V26.3913H375.992H726.992V255.391V484.391H375.992H24.992Z" fill="#F5F5F5"/>
</svg>
