<svg width="753" height="509" viewBox="0 0 753 509" fill="none" xmlns="http://www.w3.org/2000/svg">
<path fill-rule="evenodd" clip-rule="evenodd" d="M253.492 0.891301L130.491 1.1453L7.49102 1.3993L4.89802 3.6453C3.47302 4.8803 1.78602 6.8743 1.14902 8.0753C0.282023 9.7123 -0.00697682 71.6223 -0.00397682 255.075C-0.000976822 497.368 0.0200238 499.924 1.98102 503.141C3.07102 504.928 4.64402 506.391 5.47702 506.391C6.31002 506.391 6.99202 506.841 6.99202 507.391C6.99202 508.056 130.825 508.391 376.492 508.391C622.159 508.391 745.992 508.056 745.992 507.391C745.992 506.841 746.505 506.391 747.132 506.391C748.669 506.391 750.921 503.302 750.96 501.141C750.978 500.179 751.442 499.391 751.992 499.391C752.656 499.391 752.992 417.058 752.992 254.391C752.992 91.7243 752.656 9.3913 751.992 9.3913C751.442 9.3913 750.992 8.6843 750.992 7.8203C750.992 6.9553 750.42 5.6763 749.721 4.9783C745.514 0.7703 749.408 0.9043 623.242 0.6213L502.996 0.891257L490.996 0.891301H476.992H377.496H277.996H266.496H253.492ZM24.992 255.391V484.391H375.992H726.992V255.391V26.3913H375.992H24.992V255.391ZM53.492 127.607C50.759 129.185 48.992 131.035 48.992 132.32C48.992 132.909 48.542 133.391 47.992 133.391C47.331 133.391 46.992 175.024 46.992 256.291V379.191L50.592 382.791L54.192 386.391H173.393C266.649 386.391 293.18 386.119 295.289 385.141C296.833 384.426 298.842 382.078 299.989 379.652C301.958 375.484 301.992 373.399 301.992 255.402C301.992 176.061 301.653 135.391 300.992 135.391C300.442 135.391 299.992 134.672 299.992 133.792C299.992 132.913 298.594 130.888 296.886 129.292L293.78 126.391L174.636 126.421C86.428 126.444 54.973 126.752 53.492 127.607ZM333.097 139.109C331.23 140.028 329.49 141.593 329.231 142.586C328.971 143.579 328.361 144.391 327.875 144.391C326.61 144.391 326.783 153.839 328.102 156.734C329.205 159.153 330.722 160.16 336.492 162.303C338.66 163.109 381.638 163.345 491.492 163.154C636.392 162.903 643.664 162.806 647.164 161.064C651.661 158.826 654.387 153.012 653.401 147.758C652.594 143.456 648.127 138.868 643.927 138.028C642.175 137.678 572.286 137.401 488.617 137.414C348.482 137.435 336.224 137.568 333.097 139.109ZM71.659 151.058C70.532 152.184 70.863 336.391 71.992 336.391C72.542 336.391 72.992 335.651 72.992 334.746C72.992 332.71 79.951 318.016 81.133 317.558C81.605 317.374 81.992 316.587 81.992 315.808C81.992 315.028 82.412 314.391 82.925 314.391C83.438 314.391 84.148 313.473 84.504 312.352C85.832 308.168 106.483 288.544 113.478 284.818C117.328 282.768 120.495 280.888 120.992 280.358C122.139 279.135 134.669 274.385 136.742 274.388C137.98 274.39 138.992 273.941 138.992 273.391C138.992 272.841 140.477 272.391 142.292 272.391C144.107 272.391 146.02 271.982 146.542 271.483C148.647 269.471 179.556 267.555 181.327 269.326C181.913 269.912 184.525 270.391 187.133 270.391C189.741 270.391 192.152 270.841 192.492 271.391C192.832 271.941 194.883 272.391 197.051 272.391C199.219 272.391 200.992 272.79 200.992 273.278C200.992 273.765 202.23 274.407 203.742 274.703C208.129 275.563 213.992 277.812 213.992 278.636C213.992 279.051 214.807 279.391 215.803 279.391C216.8 279.391 218.581 280.291 219.762 281.391C220.942 282.491 222.602 283.391 223.45 283.391C224.298 283.391 224.992 283.841 224.992 284.391C224.992 284.941 225.635 285.391 226.421 285.391C227.206 285.391 228.444 285.968 229.171 286.674C229.897 287.38 232.067 289.048 233.992 290.382C239.597 294.266 253.992 309.392 253.992 311.399C253.992 311.944 254.387 312.391 254.871 312.391C255.354 312.391 256.309 313.741 256.992 315.391C257.675 317.041 258.531 318.391 258.893 318.391C259.255 318.391 260.425 320.641 261.492 323.391C262.559 326.141 263.783 328.391 264.212 328.391C264.641 328.391 264.992 329.264 264.992 330.332C264.992 331.4 265.442 332.551 265.992 332.891C266.542 333.231 266.992 334.581 266.992 335.891C266.992 337.201 267.442 338.551 267.992 338.891C268.542 339.231 268.992 340.463 268.992 341.629C268.992 342.795 269.431 345.131 269.967 346.82C270.503 348.509 271.211 352.478 271.539 355.641C272.085 360.898 272.344 361.391 274.564 361.391H276.992V257.473C276.992 200.318 276.719 152.843 276.385 151.973C275.837 150.545 265.89 150.391 174.052 150.391C118.102 150.391 72.025 150.691 71.659 151.058ZM168.492 152.352C167.392 152.846 164.798 153.282 162.728 153.321C160.658 153.359 158.183 153.788 157.228 154.274C156.273 154.76 154.367 155.598 152.992 156.136C149.1 157.658 143.69 160.253 141.523 161.635C137.739 164.05 125.992 176.308 125.992 177.843C125.992 178.694 125.542 179.391 124.992 179.391C124.442 179.391 123.992 180.066 123.992 180.891C123.992 181.716 123.542 182.391 122.992 182.391C122.442 182.391 121.992 183.291 121.992 184.391C121.992 185.491 121.636 186.391 121.201 186.391C119.496 186.391 116.992 199.479 116.992 208.391C116.992 217.303 119.496 230.391 121.201 230.391C121.636 230.391 121.992 231.291 121.992 232.391C121.992 233.491 122.442 234.391 122.992 234.391C123.542 234.391 123.992 235.066 123.992 235.891C123.992 236.716 124.442 237.391 124.992 237.391C125.542 237.391 125.992 238.062 125.992 238.882C125.992 240.287 136.184 251.12 140.582 254.391C144.448 257.266 149.015 259.507 155.027 261.481C163.44 264.242 181.455 264.278 189.698 261.55C196.973 259.142 202.992 256.27 202.992 255.206C202.992 254.758 203.439 254.391 203.984 254.391C204.983 254.391 208 252.015 212.871 247.391C215.835 244.578 220.992 236.971 220.992 235.412C220.992 234.851 221.442 234.391 221.992 234.391C222.542 234.391 222.992 233.491 222.992 232.391C222.992 231.291 223.442 230.391 223.992 230.391C224.542 230.391 224.992 229.566 224.992 228.558C224.992 227.549 225.322 226.394 225.726 225.99C226.965 224.752 228.862 214.204 228.892 208.391C228.908 205.366 228.227 200.191 227.378 196.891C226.53 193.591 225.593 189.879 225.297 188.641C225.001 187.403 224.361 186.391 223.875 186.391C223.39 186.391 222.992 185.491 222.992 184.391C222.992 183.291 222.652 182.391 222.236 182.391C221.82 182.391 220.835 180.933 220.046 179.152C218.496 175.65 205.867 162.391 204.082 162.391C203.482 162.391 202.992 162.02 202.992 161.567C202.992 160.531 191.976 155.391 189.755 155.391C188.85 155.391 187.872 155.005 187.58 154.534C187.289 154.063 184.675 153.379 181.771 153.015C178.868 152.651 175.142 152.151 173.492 151.903C171.842 151.655 169.592 151.857 168.492 152.352ZM163.492 178.391C163.152 178.941 162.001 179.391 160.933 179.391C159.865 179.391 158.992 179.841 158.992 180.391C158.992 180.941 158.331 181.391 157.524 181.391C156.716 181.391 153.786 183.59 151.011 186.278C147.175 189.996 145.371 192.808 143.48 198.024C142.111 201.796 140.997 206.234 141.003 207.887C141.014 211.068 142.886 217.9 145.114 222.891C146.648 226.329 155.776 235.391 157.704 235.391C158.412 235.391 158.992 235.841 158.992 236.391C158.992 236.941 160.117 237.391 161.492 237.391C162.867 237.391 163.992 237.841 163.992 238.391C163.992 238.979 167.492 239.391 172.492 239.391C177.492 239.391 180.992 238.979 180.992 238.391C180.992 237.841 182.117 237.391 183.492 237.391C184.867 237.391 185.992 236.941 185.992 236.391C185.992 235.841 186.725 235.391 187.621 235.391C189.523 235.391 198.929 226.479 198.966 224.641C198.98 223.954 199.332 223.391 199.749 223.391C200.165 223.391 201.097 221.493 201.821 219.173C205.8 206.425 203.639 196.35 194.965 187.213C191.926 184.011 188.663 181.391 187.715 181.391C186.768 181.391 185.992 180.941 185.992 180.391C185.992 179.841 185.119 179.391 184.051 179.391C182.983 179.391 181.832 178.941 181.492 178.391C181.152 177.841 177.102 177.391 172.492 177.391C167.882 177.391 163.832 177.841 163.492 178.391ZM332.885 211.888C328.921 214.043 326.992 217.737 326.992 223.176C326.992 227.179 327.529 228.633 330.054 231.461L333.117 234.891H489.304H645.492L648.717 232.591C655.397 227.826 655.07 217.372 648.094 212.678L644.696 210.391L490.094 210.431C358.651 210.465 335.102 210.683 332.885 211.888ZM330.442 289.742C327.305 292.789 326.992 293.609 326.992 298.787C326.992 304.988 328.702 307.65 334.289 310.143C337.891 311.75 644.992 311.996 644.992 310.391C644.992 309.841 645.699 309.391 646.563 309.391C647.428 309.391 648.719 308.806 649.434 308.092C651.306 306.22 653.992 300.769 653.992 298.842C653.992 295.676 650.628 290.14 647.572 288.277C644.594 286.46 639.372 286.398 489.192 286.395L333.893 286.391L330.442 289.742ZM160.242 294.181C155.705 294.341 151.992 294.904 151.992 295.431C151.992 295.959 150.417 296.391 148.492 296.391C146.567 296.391 144.992 296.841 144.992 297.391C144.992 297.941 143.642 298.391 141.992 298.391C140.342 298.391 138.992 298.841 138.992 299.391C138.992 299.941 138.436 300.391 137.756 300.391C135.912 300.391 125.992 305.588 125.992 306.555C125.992 307.015 125.494 307.391 124.886 307.391C121.279 307.391 106.187 322.571 102.492 329.915C101.392 332.102 100.155 334.041 99.742 334.224C99.33 334.408 98.992 335.42 98.992 336.474C98.992 337.528 98.542 338.391 97.992 338.391C97.442 338.391 96.992 339.264 96.992 340.332C96.992 341.4 96.542 342.551 95.992 342.891C95.442 343.231 94.992 344.832 94.992 346.45C94.992 348.068 94.582 349.391 94.081 349.391C93.58 349.391 93.017 352.092 92.831 355.393L92.492 361.395L169.85 361.393L247.209 361.391L246.675 359.141C246.381 357.903 245.829 354.298 245.449 351.128C245.069 347.958 244.361 345.119 243.875 344.819C243.389 344.519 242.992 343.451 242.992 342.446C242.992 340.529 242.53 339.565 237 329.948C233.215 323.365 217.714 307.391 215.111 307.391C214.587 307.391 214.009 307.004 213.825 306.532C213.375 305.37 198.689 298.391 196.696 298.391C195.824 298.391 194.832 297.941 194.492 297.391C194.152 296.841 192.588 296.391 191.016 296.391C189.445 296.391 188.009 296.002 187.825 295.527C187.435 294.515 172.069 293.765 160.242 294.181ZM335.249 359.72C329.613 361.765 326.992 365.535 326.993 371.597C326.994 375.72 327.517 377.499 329.36 379.641C330.66 381.153 332.433 382.391 333.299 382.391C334.165 382.391 335.152 382.841 335.492 383.391C336.481 384.991 520.4 384.746 523.2 383.141C526.244 381.397 529.992 377.689 529.992 376.423C529.992 375.84 530.55 374.47 531.233 373.377C532.22 371.796 532.22 370.986 531.233 369.405C530.55 368.312 529.992 366.815 529.992 366.079C529.992 364.137 526.023 360.846 522.093 359.53C517.178 357.883 339.813 358.064 335.249 359.72Z" fill="black"/>
<path d="M163.492 178.391C163.152 178.941 162.001 179.391 160.933 179.391C159.865 179.391 158.992 179.841 158.992 180.391C158.992 180.941 158.331 181.391 157.524 181.391C156.716 181.391 153.786 183.59 151.011 186.278C147.175 189.996 145.371 192.808 143.48 198.024C142.111 201.796 140.997 206.234 141.003 207.887C141.014 211.068 142.886 217.9 145.114 222.891C146.648 226.329 155.776 235.391 157.704 235.391C158.412 235.391 158.992 235.841 158.992 236.391C158.992 236.941 160.117 237.391 161.492 237.391C162.867 237.391 163.992 237.841 163.992 238.391C163.992 238.979 167.492 239.391 172.492 239.391C177.492 239.391 180.992 238.979 180.992 238.391C180.992 237.841 182.117 237.391 183.492 237.391C184.867 237.391 185.992 236.941 185.992 236.391C185.992 235.841 186.725 235.391 187.621 235.391C189.523 235.391 198.929 226.479 198.966 224.641C198.98 223.954 199.332 223.391 199.749 223.391C200.165 223.391 201.097 221.493 201.821 219.173C205.8 206.425 203.639 196.35 194.965 187.213C191.926 184.011 188.663 181.391 187.715 181.391C186.768 181.391 185.992 180.941 185.992 180.391C185.992 179.841 185.119 179.391 184.051 179.391C182.983 179.391 181.832 178.941 181.492 178.391C181.152 177.841 177.102 177.391 172.492 177.391C167.882 177.391 163.832 177.841 163.492 178.391Z" fill="#FFBEAA"/>
<path d="M160.242 294.181C155.705 294.341 151.992 294.904 151.992 295.431C151.992 295.959 150.417 296.391 148.492 296.391C146.567 296.391 144.992 296.841 144.992 297.391C144.992 297.941 143.642 298.391 141.992 298.391C140.342 298.391 138.992 298.841 138.992 299.391C138.992 299.941 138.436 300.391 137.756 300.391C135.912 300.391 125.992 305.588 125.992 306.555C125.992 307.015 125.494 307.391 124.886 307.391C121.279 307.391 106.187 322.571 102.492 329.915C101.392 332.102 100.155 334.041 99.742 334.224C99.33 334.408 98.992 335.42 98.992 336.474C98.992 337.528 98.542 338.391 97.992 338.391C97.442 338.391 96.992 339.264 96.992 340.332C96.992 341.4 96.542 342.551 95.992 342.891C95.442 343.231 94.992 344.832 94.992 346.45C94.992 348.068 94.582 349.391 94.081 349.391C93.58 349.391 93.017 352.092 92.831 355.393L92.492 361.395L169.85 361.393L247.209 361.391L246.675 359.141C246.381 357.903 245.829 354.298 245.449 351.128C245.069 347.958 244.361 345.119 243.875 344.819C243.389 344.519 242.992 343.451 242.992 342.446C242.992 340.529 242.53 339.565 237 329.948C233.215 323.365 217.714 307.391 215.111 307.391C214.587 307.391 214.009 307.004 213.825 306.532C213.375 305.37 198.689 298.391 196.696 298.391C195.824 298.391 194.832 297.941 194.492 297.391C194.152 296.841 192.588 296.391 191.016 296.391C189.445 296.391 188.009 296.002 187.825 295.527C187.435 294.515 172.069 293.765 160.242 294.181Z" fill="#FCDB78"/>
<path fill-rule="evenodd" clip-rule="evenodd" d="M71.659 151.058C70.532 152.184 70.863 336.391 71.992 336.391C72.542 336.391 72.992 335.651 72.992 334.746C72.992 332.71 79.951 318.016 81.133 317.558C81.605 317.374 81.992 316.587 81.992 315.808C81.992 315.028 82.412 314.391 82.925 314.391C83.438 314.391 84.148 313.473 84.504 312.352C85.832 308.168 106.483 288.544 113.478 284.818C117.328 282.768 120.495 280.888 120.992 280.358C122.139 279.135 134.669 274.385 136.742 274.388C137.98 274.39 138.992 273.941 138.992 273.391C138.992 272.841 140.477 272.391 142.292 272.391C144.107 272.391 146.02 271.982 146.542 271.483C148.647 269.471 179.556 267.555 181.327 269.326C181.913 269.912 184.525 270.391 187.133 270.391C189.741 270.391 192.152 270.841 192.492 271.391C192.832 271.941 194.883 272.391 197.051 272.391C199.219 272.391 200.992 272.79 200.992 273.278C200.992 273.765 202.23 274.407 203.742 274.703C208.129 275.563 213.992 277.812 213.992 278.636C213.992 279.051 214.807 279.391 215.803 279.391C216.8 279.391 218.581 280.291 219.762 281.391C220.942 282.491 222.602 283.391 223.45 283.391C224.298 283.391 224.992 283.841 224.992 284.391C224.992 284.941 225.635 285.391 226.421 285.391C227.206 285.391 228.444 285.968 229.171 286.674C229.897 287.38 232.067 289.048 233.992 290.382C239.597 294.266 253.992 309.392 253.992 311.399C253.992 311.944 254.387 312.391 254.871 312.391C255.354 312.391 256.309 313.741 256.992 315.391C257.675 317.041 258.531 318.391 258.893 318.391C259.255 318.391 260.425 320.641 261.492 323.391C262.559 326.141 263.783 328.391 264.212 328.391C264.641 328.391 264.992 329.264 264.992 330.332C264.992 331.4 265.442 332.551 265.992 332.891C266.542 333.231 266.992 334.581 266.992 335.891C266.992 337.201 267.442 338.551 267.992 338.891C268.542 339.231 268.992 340.463 268.992 341.629C268.992 342.795 269.431 345.131 269.967 346.82C270.503 348.509 271.211 352.478 271.539 355.641C272.085 360.898 272.344 361.391 274.564 361.391H276.992V257.473C276.992 200.318 276.719 152.843 276.385 151.973C275.837 150.545 265.89 150.391 174.052 150.391C118.102 150.391 72.025 150.691 71.659 151.058ZM162.728 153.321C164.798 153.282 167.392 152.846 168.492 152.352C169.592 151.857 171.842 151.655 173.492 151.903C175.142 152.151 178.868 152.651 181.771 153.015C184.675 153.379 187.289 154.063 187.58 154.534C187.872 155.005 188.85 155.391 189.755 155.391C191.976 155.391 202.992 160.531 202.992 161.567C202.992 162.02 203.482 162.391 204.082 162.391C205.867 162.391 218.496 175.65 220.046 179.152C220.835 180.933 221.82 182.391 222.236 182.391C222.652 182.391 222.992 183.291 222.992 184.391C222.992 185.491 223.39 186.391 223.875 186.391C224.361 186.391 225.001 187.403 225.297 188.641C225.593 189.879 226.53 193.591 227.378 196.891C228.227 200.191 228.908 205.366 228.892 208.391C228.862 214.204 226.965 224.752 225.726 225.99C225.322 226.394 224.992 227.549 224.992 228.558C224.992 229.566 224.542 230.391 223.992 230.391C223.442 230.391 222.992 231.291 222.992 232.391C222.992 233.491 222.542 234.391 221.992 234.391C221.442 234.391 220.992 234.851 220.992 235.412C220.992 236.971 215.835 244.578 212.871 247.391C208 252.015 204.983 254.391 203.984 254.391C203.439 254.391 202.992 254.758 202.992 255.206C202.992 256.27 196.973 259.142 189.698 261.55C181.455 264.278 163.44 264.242 155.027 261.481C149.015 259.507 144.448 257.266 140.582 254.391C136.184 251.12 125.992 240.287 125.992 238.882C125.992 238.062 125.542 237.391 124.992 237.391C124.442 237.391 123.992 236.716 123.992 235.891C123.992 235.066 123.542 234.391 122.992 234.391C122.442 234.391 121.992 233.491 121.992 232.391C121.992 231.291 121.636 230.391 121.201 230.391C119.496 230.391 116.992 217.303 116.992 208.391C116.992 199.479 119.496 186.391 121.201 186.391C121.636 186.391 121.992 185.491 121.992 184.391C121.992 183.291 122.442 182.391 122.992 182.391C123.542 182.391 123.992 181.716 123.992 180.891C123.992 180.066 124.442 179.391 124.992 179.391C125.542 179.391 125.992 178.694 125.992 177.843C125.992 176.308 137.739 164.05 141.523 161.635C143.69 160.253 149.1 157.658 152.992 156.136C154.367 155.598 156.273 154.76 157.228 154.274C158.183 153.788 160.658 153.359 162.728 153.321Z" fill="#86DFEB"/>
</svg>
