<svg width="256" height="256" viewBox="0 0 256 256" fill="none" xmlns="http://www.w3.org/2000/svg">
<path d="M185.5 164L159.5 192.5L127.5 175.5L90.5 141L69 111.5L65 95.5L74 87.5L90.5 67L48.5 4L9.5 25.5L5 45.5L9.5 82.5L26.5 121L57.5 160L103.5 205.5L149 236L194.5 252L226 247.5L242.5 228.5L251 205.5L185.5 164Z" fill="#FFD571" stroke="#FFD571"/>
<path fill-rule="evenodd" clip-rule="evenodd" d="M27.8471 8.238C11.9091 17.652 6.41306 22.682 3.47206 30.542C0.43406 38.663 -0.760939 51.613 0.491061 62.845C3.50506 89.873 17.0381 117.5 43.4281 150.5C55.3201 165.372 86.1331 196.673 100.902 208.888C138.997 240.391 172.834 256.012 202.902 255.975C217.702 255.957 231.289 251.488 236.931 244.784C240.41 240.649 255.035 215.909 255.721 213C256.658 209.022 254.782 202.909 251.721 199.966C246.883 195.316 196.424 162.087 192.343 160.864C189.111 159.896 187.712 159.992 183.911 161.443C180.03 162.926 178.013 164.912 170.307 174.842C165.331 181.254 160.134 186.936 158.758 187.469C156.744 188.248 155.199 187.884 150.844 185.604C143.013 181.504 132.997 174.637 124.402 167.473C113.983 158.791 89.9521 134.024 83.1901 125C75.1241 114.235 68.4021 102.436 68.4021 99.043C68.4021 95.545 68.7391 95.193 81.7971 85.081C93.5571 75.975 95.9371 72.438 95.1291 65.27C94.7101 61.55 91.5471 56.224 75.7651 32.662C55.5001 2.408 53.3031 0 45.9491 0C42.5371 0 39.2901 1.478 27.8471 8.238ZM31.2151 16.327C13.7171 27.066 11.6281 29.617 9.39706 42.962C6.27106 61.665 12.1101 85.047 26.2041 110.261C51.7971 156.047 110.884 213.086 154.902 234.499C175.17 244.358 189.11 247.651 206.622 246.716C224.853 245.742 228.419 243.311 239.873 224.05C245.976 213.784 247.489 210.482 246.992 208.503C246.51 206.582 239.961 201.718 219.132 187.814C204.155 177.816 190.889 169.44 189.651 169.201C186.944 168.678 182.953 172.549 173.282 185.074C163.267 198.046 158.5 199.536 146.803 193.352C118.199 178.23 79.3651 139.919 63.9221 111.588C58.8711 102.323 58.0861 96.663 61.1571 91.656C62.1171 90.091 68.0771 84.691 74.4021 79.656C83.6311 72.308 85.9671 69.934 86.2301 67.635C86.4941 65.317 83.0791 59.546 68.3681 37.449C58.3641 22.423 49.5171 9.874 48.7091 9.564C45.4181 8.301 42.3761 9.478 31.2151 16.327ZM142.101 35.444C137.94 39.605 141.438 42.536 151.526 43.343C181.237 45.72 207.346 67.84 214.914 97.045C215.761 100.317 216.781 106.204 217.179 110.128C217.761 115.872 218.326 117.543 220.079 118.704C222.039 120.003 222.464 119.938 224.354 118.048C226.226 116.176 226.381 115.223 225.792 109.225C221.823 68.806 190.874 37.671 151.393 34.379C145.02 33.847 143.526 34.019 142.101 35.444ZM141.203 62.537C139.517 66.239 141.576 67.748 149.929 68.933C158.691 70.176 164.455 72.184 170.625 76.143C181.473 83.104 189.869 96.871 191.272 109.998C192.087 117.627 193.927 120.477 197.249 119.254C199.676 118.361 200.37 116.934 200.387 112.799C200.496 86.343 174.194 60 147.67 60C142.955 60 142.229 60.285 141.203 62.537ZM142.129 86.749C141.179 87.799 140.402 89.152 140.402 89.757C140.402 91.742 143.493 94 146.223 94.01C147.697 94.015 151.26 95.117 154.142 96.459C158.052 98.28 160.146 100.103 162.392 103.645C164.047 106.256 165.405 109.091 165.408 109.946C165.421 113.789 167.551 118.806 169.371 119.282C175.104 120.781 176.435 111.716 171.86 102.339C167.501 93.404 158.56 86.994 148.379 85.503C144.661 84.959 143.549 85.181 142.129 86.749Z" fill="black"/>
</svg>
