<svg width="382" height="481" viewBox="0 0 382 481" fill="none" xmlns="http://www.w3.org/2000/svg">
<path d="M373.5 406H11.5V464.5L215 474.5L373.5 464.5V406Z" fill="#E17577" stroke="#FFD571"/>
<path d="M9 15.5V128.5H377V33L356 6.5H76.5L9 15.5Z" fill="#26A6FE" stroke="#FFD571"/>
<ellipse cx="87.5" cy="70" rx="44.5" ry="40" fill="white"/>
<path fill-rule="evenodd" clip-rule="evenodd" d="M16.627 1.514C10.884 3.562 5.845 8.101 2.75 14.018L0 19.274V240.046V460.818L2.793 466.164C5.914 472.139 12.075 477.417 17.775 479C22.953 480.438 359.047 480.438 364.225 479C369.925 477.417 376.086 472.139 379.207 466.164L382 460.818V240.046V19.274L379.207 13.928C376.086 7.953 369.925 2.675 364.225 1.092C361.724 0.397001 304.657 0.0700012 190.5 0.0950012C48.545 0.127001 19.861 0.362002 16.627 1.514ZM21.357 17.033C15.911 19.242 16 18.309 16 73.269V124.046H191H366V73.102V22.158L363.587 19.352L361.173 16.546L192.337 16.355C98.49 16.249 22.548 16.55 21.357 17.033ZM75.5 23.453C51.79 29.317 35.689 52.661 39.039 76.317C40.787 88.661 45.505 97.718 54.311 105.635C78.204 127.117 116.113 119.643 129.913 90.729C147.027 54.868 113.931 13.947 75.5 23.453ZM155.229 35.715C153.142 36.555 150.79 42.073 151.431 44.626C151.757 45.927 153.004 47.903 154.201 49.018C156.334 51.005 157.503 51.046 212.633 51.046H268.888L271.504 48.796C274.961 45.823 275.167 40.917 271.979 37.523L269.651 35.046L213.076 35.125C181.959 35.168 155.928 35.434 155.229 35.715ZM78.929 39.358C63.29 43.763 54.329 56.121 55.227 72.046C55.46 76.171 56.198 80.565 56.868 81.81L58.085 84.074L62.592 80.31C66.069 77.406 66.953 76.089 66.458 74.546C66.105 73.446 65.593 70.071 65.32 67.046C64.896 62.351 65.245 60.743 67.706 56.061C75.429 41.367 95.581 40.396 104.772 54.275C107.117 57.815 107.493 59.389 107.448 65.47C107.42 69.362 107.06 73.446 106.649 74.546C106.052 76.141 106.826 77.319 110.473 80.365L115.045 84.183L116.635 80.376C118.937 74.868 118.106 62.044 115.06 56.046C108.472 43.076 92.28 35.598 78.929 39.358ZM81.818 63.546C80.428 66.597 81.897 70.524 84.703 71.258C89.597 72.538 93.446 67.616 91.05 63.139C89.344 59.951 83.335 60.216 81.818 63.546ZM153.806 65.086C151.262 67.63 150.867 68.65 151.386 71.336C151.727 73.102 152.955 75.333 154.114 76.296C156.088 77.935 162.117 78.046 249.156 78.046H342.091L344.545 75.591C348.541 71.596 347.531 65.987 342.316 63.209C340.701 62.349 316.244 62.046 248.489 62.046H156.846L153.806 65.086ZM77.5 89.936C75.3 90.951 72.416 92.959 71.09 94.398L68.681 97.015L72.249 98.506C81.856 102.52 91.278 102.682 99.803 98.98C103.563 97.347 103.975 96.868 103.07 95.177C102.501 94.113 99.688 92.073 96.821 90.644C90.526 87.507 83.334 87.244 77.5 89.936ZM153.923 91.969C150.348 95.544 150.185 98.987 153.413 102.74L155.827 105.546H220.333H284.839L287.419 103.122C291.564 99.228 290.833 93.045 285.928 90.509C283.533 89.27 273.42 89.046 219.973 89.046H156.846L153.923 91.969ZM16 436.49C16 457.717 16.024 457.963 18.413 460.74L20.827 463.546H191H361.173L363.587 460.74C365.976 457.963 366 457.717 366 436.49V415.046H191H16V436.49ZM37.174 436.36C34.003 439.736 34.223 445.29 37.635 447.973C39.877 449.737 41.674 450.046 49.68 450.046C58.338 450.046 59.287 449.85 61.545 447.591C64.582 444.555 64.733 440.247 61.927 436.681C59.929 434.14 59.487 434.046 49.602 434.046C40.177 434.046 39.173 434.233 37.174 436.36ZM73.174 436.36C70.003 439.736 70.223 445.29 73.635 447.973C75.877 449.737 77.674 450.046 85.68 450.046C94.338 450.046 95.287 449.85 97.545 447.591C100.582 444.555 100.733 440.247 97.927 436.681C95.929 434.14 95.487 434.046 85.602 434.046C76.177 434.046 75.173 434.233 73.174 436.36ZM109.174 436.36C106.003 439.736 106.223 445.29 109.635 447.973C111.877 449.737 113.674 450.046 121.68 450.046C130.338 450.046 131.287 449.85 133.545 447.591C136.793 444.344 136.857 439.199 133.686 436.22C131.627 434.287 130.262 434.046 121.36 434.046C112.188 434.046 111.166 434.24 109.174 436.36ZM250.114 435.796C248.955 436.758 247.727 438.99 247.386 440.756C246.867 443.442 247.262 444.462 249.806 447.006L252.846 450.046H298.867H344.888L347.389 447.796C351.079 444.477 351.265 439.303 347.811 436.085C345.674 434.093 344.538 434.046 298.922 434.046C255.915 434.046 252.055 434.184 250.114 435.796Z" fill="black"/>
<rect x="17" y="140" width="348" height="258" fill="#F4F4F4"/>
<path fill-rule="evenodd" clip-rule="evenodd" d="M180.531 191.281C180.299 191.438 177.387 198.671 174.058 207.352L168.006 223.137L171.755 223.38C178.431 223.813 182.823 225.796 192.821 232.893C203.397 240.4 208.6 242.801 214.594 242.942L217.612 243.014L216.74 245.547C216.261 246.94 213.289 255.271 210.137 264.06C206.985 272.849 204.234 280.522 204.023 281.111C203.743 281.895 203.377 282.183 202.66 282.183C202.028 282.183 201.177 282.715 200.266 283.678C195.059 289.184 193.848 290.3 192.177 291.136C187.96 293.245 183.245 292.233 180.817 288.7C177.922 284.485 174.551 282.676 170.311 283.061C167.444 283.321 165.402 284.369 163.292 286.661C159.971 290.269 159.267 293.979 160.678 300.429C162.33 307.982 160.694 315.73 155.068 327.004C152.273 332.603 150.235 338.03 148.848 343.568C147.657 348.324 147.066 352.336 147.557 352.339C147.732 352.339 150.636 352.516 154.009 352.732C160.431 353.142 166.024 354.059 170.438 355.424C173.875 356.487 175.798 356.447 180.532 355.209C184.127 354.269 193.411 350.883 194.745 350.026C195.209 349.727 194.88 348.787 192.867 344.667C191.524 341.919 189.914 338.835 189.289 337.813C188.663 336.792 188.151 335.736 188.151 335.466C188.151 335.197 189.817 330.349 191.853 324.694C193.888 319.038 195.492 314.349 195.416 314.273C195.34 314.196 194.485 314.429 193.516 314.788L191.756 315.442L188.916 323.464C187.354 327.876 185.961 331.621 185.821 331.787C185.568 332.084 183.571 329.852 181.367 326.809C180.746 325.951 179.304 324.09 178.163 322.673C175.915 319.881 175.874 319.724 176.531 316.504L176.973 314.337L174.293 311.609C170.395 307.642 167.661 301.897 166.376 294.974C165.791 291.821 166.224 290.101 167.972 288.627C170.204 286.746 174.228 287.565 175.432 290.146C175.739 290.803 176.364 292.921 176.82 294.85C177.869 299.291 179.554 302.753 181.541 304.551C182.396 305.325 183.256 305.957 183.453 305.957C183.869 305.957 184.489 304.112 184.842 301.82L185.089 300.217L188.603 300.016C191.694 299.839 192.488 299.631 195.193 298.284C196.885 297.442 198.269 296.893 198.269 297.064C198.269 297.235 197.919 298.297 197.491 299.425C197.063 300.553 196.713 301.652 196.713 301.867C196.712 302.083 197.338 302.455 198.103 302.695C199.713 303.2 199.294 303.887 201.999 296.302C203.158 293.053 204.222 290.833 205.318 289.38C206.797 287.418 206.913 287.092 206.727 285.441C206.544 283.812 207.839 279.967 220.276 245.204C227.839 224.064 233.906 206.654 233.756 206.516C233.607 206.378 232.935 206.149 232.263 206.007C231.059 205.754 231.026 205.787 230.106 208.207C229.243 210.477 229.073 210.674 227.885 210.79C223.854 211.182 216.06 208.244 210.137 204.1C196.322 194.434 192.675 192.415 187.204 191.408C184.569 190.923 181.154 190.858 180.531 191.281ZM259.265 220.482C258.891 220.58 258.58 220.691 258.573 220.729C258.568 220.767 257.982 224.364 257.272 228.722L255.982 236.645L258.159 236.402C260.868 236.099 264.043 236.922 270.258 239.539C274.329 241.254 275.005 241.422 277.749 241.411C279.658 241.403 280.757 241.551 280.743 241.816C280.73 242.046 279.977 246.794 279.067 252.368L277.414 262.501L267.251 265.081C257.946 267.443 256.944 267.779 255.377 269.065C251.632 272.139 246.428 273.459 241.894 272.485C240.21 272.123 239.244 272.159 236.657 272.68C232.593 273.498 230.606 274.443 228.071 276.764C225.577 279.047 224.025 281.9 222.415 287.159C219.44 296.878 218.55 304.407 219.27 313.752C219.94 322.444 221.484 326.35 225.135 328.593C226.777 329.602 227.173 330.494 227.869 334.752C228.38 337.875 228.317 340.912 227.67 344.296C226.014 352.965 220.651 360.014 210.732 366.558C205.608 369.938 204.47 371.217 203.969 374.163C203.293 378.126 206.124 382.147 210.235 383.065C212.59 383.59 214.628 383.016 218.286 380.797C231.291 372.905 239.806 362.149 242.97 349.621C243.421 347.831 243.851 346.307 243.924 346.234C244.149 346.008 247.209 352.773 248.094 355.455C249.545 359.846 250.376 364.424 250.819 370.46C251.337 377.518 251.648 378.836 253.212 380.62C256.188 384.015 260.722 384.36 264.236 381.459C267.122 379.076 267.648 376.048 266.733 367.091C265.726 357.244 263.26 348.673 259.125 340.645C255.698 333.991 252.208 329.219 246.915 323.946L242.444 319.493L242.296 315.172L242.149 310.851L240.222 308.697C230.854 298.221 227.017 282.317 232.982 278.684C235.066 277.414 236.955 277.309 239.021 278.347C241.719 279.702 242.371 280.842 242.672 284.725C242.907 287.745 244.376 293.096 244.972 293.096C245.331 293.096 246.529 285.935 246.631 283.18L246.716 280.865L260.141 277.501C267.525 275.651 274.061 274.011 274.667 273.858C275.605 273.62 275.739 273.682 275.571 274.276C275.462 274.659 275.256 275.73 275.112 276.657L274.85 278.341L276.154 278.216C277.434 278.093 277.464 278.047 277.846 275.62C278.199 273.383 278.349 273.102 279.436 272.646C282.876 271.201 283.714 266.878 281.067 264.228L279.842 263.001L283.025 243.32C284.776 232.495 286.111 223.482 285.993 223.29C285.874 223.099 285.353 222.942 284.835 222.942C284.153 222.942 283.825 223.212 283.647 223.92C283.145 225.925 278.456 225.755 273.153 223.538C266.536 220.772 264.729 220.228 262.281 220.267C260.997 220.287 259.64 220.384 259.265 220.482ZM129.05 241.613C128.588 241.906 127.529 246.404 127.468 248.336C127.455 248.72 128.292 249.458 129.539 250.163C131.906 251.501 133.711 253.498 134.878 256.07C135.316 257.035 135.793 258.055 135.938 258.338C136.342 259.122 142.104 261.536 145.048 262.154C146.898 262.542 148.138 262.597 149.273 262.342C150.871 261.982 150.878 261.986 150.679 263.02C150.569 263.592 150.177 266.046 149.808 268.473C149.216 272.365 149.034 272.926 148.268 273.218C147.79 273.4 146.437 274.921 145.26 276.599C142.469 280.579 139.702 283.121 136.554 284.596C134.263 285.67 133.725 285.771 131.197 285.609C127.556 285.375 123.901 283.51 120.188 279.992C116.54 276.535 115.086 275.824 111.652 275.82C108.267 275.817 106.025 276.789 103.77 279.24C101.496 281.711 100.511 283.896 100.292 286.957C100.188 288.404 100.218 289.588 100.357 289.588C100.497 289.588 101.761 288.367 103.167 286.874C104.572 285.382 106.525 283.628 107.507 282.977C110.877 280.741 114.657 281.72 115.778 285.12C116.563 287.502 115.989 288.616 111.898 292.661C104.501 299.976 103.202 306.299 106.632 318.29C107.293 320.602 107.291 320.734 106.583 322.162C105.56 324.225 104.026 325.25 101.959 325.25C99.5863 325.25 98.2773 324.16 97.1247 321.225C96.606 319.905 96.0892 318.917 95.976 319.03C95.8631 319.143 93.9906 324.36 91.815 330.622L87.8591 342.009L89.4429 342.494C94.8635 344.155 109.744 344.901 116.162 343.833C120.586 343.097 127.291 341.434 127.939 340.913C128.43 340.518 127.572 338.718 122.147 328.758C118.402 321.88 115.778 316.632 115.777 316.013C115.772 314.653 117.16 307.45 117.921 304.885C118.424 303.186 118.679 302.861 119.68 302.641C122.473 302.027 124.702 298.762 125.018 294.826L125.209 292.441L127.398 292.957C133.482 294.392 139.515 292.878 144.755 288.604C146.626 287.077 146.897 286.956 146.719 287.724C146.459 288.852 144.958 298.405 144.958 298.935C144.958 299.154 145.48 299.332 146.118 299.332C147.483 299.332 147.27 300.036 148.806 290.467C149.887 283.732 150.02 283.256 151.346 281.448C154.07 277.731 154.308 275.898 152.337 273.791C151.607 273.01 151.63 272.789 153.919 258.631C155.197 250.729 156.243 244.191 156.243 244.101C156.243 244.012 155.673 243.994 154.978 244.061C154.015 244.154 153.684 244.389 153.591 245.047C153.32 246.957 148.301 246.725 143.134 244.564C136.553 241.812 134.759 241.276 132.117 241.274C130.725 241.273 129.346 241.425 129.05 241.613ZM241.435 243.327C237.513 244.441 234.308 247.144 232.234 251.087C231.248 252.962 231.15 253.515 231.15 257.239C231.15 260.99 231.245 261.52 232.289 263.584C233.693 266.361 236.493 269.041 239.432 270.421C241.329 271.311 242.174 271.465 245.159 271.465C249.767 271.465 252.585 270.248 255.645 266.938C258.371 263.989 259.468 261.206 259.468 257.239C259.468 251.656 256.462 246.852 251.411 244.361C248.521 242.937 244.336 242.502 241.435 243.327ZM120.338 249.48C116.272 250.12 112.586 252.953 110.751 256.85C109.403 259.714 109.329 264.304 110.588 267.052C111.712 269.505 114.341 272.283 116.73 273.544C118.454 274.454 119.139 274.579 122.388 274.579C125.638 274.579 126.322 274.454 128.046 273.544C133.481 270.676 136.331 264.352 134.709 258.763C132.843 252.334 126.84 248.457 120.338 249.48ZM173.505 254.537C169.305 255.1 165.181 258.455 163.649 262.556C161.329 268.768 164.117 275.788 170.057 278.688C172.878 280.065 177.05 280.21 180.162 279.039C183.304 277.858 186.165 274.993 187.351 271.843C188.605 268.513 188.373 264.12 186.791 261.209C184.139 256.329 179.084 253.791 173.505 254.537ZM234.653 279.212C234.011 279.506 233.048 280.22 232.512 280.8C231.669 281.715 231.522 282.286 231.404 285.091C230.969 295.495 238.663 307.768 251.866 317.729C256.439 321.179 257.96 321.697 260.11 320.534C261.827 319.605 263.254 317.516 263.252 315.936C263.25 314.009 262.036 312.503 258.094 309.535C247.568 301.612 241.493 292.428 241.468 284.405C241.462 282.249 240.737 280.614 239.399 279.736C238.011 278.825 235.99 278.602 234.653 279.212ZM108.38 283.793C106.335 285.035 101.744 289.917 100.264 292.422C98.4921 295.423 97.1593 298.831 96.4468 302.186C95.2888 307.638 96.3768 317.555 98.6135 321.935C99.0789 322.846 99.7871 323.479 100.754 323.848C102.034 324.336 102.353 324.325 103.559 323.748C104.432 323.332 105.123 322.614 105.484 321.748C106.004 320.502 105.968 320.134 105.028 316.977C103.677 312.442 103.349 306.425 104.257 302.835C105.515 297.865 108.425 293.39 112.209 290.608C114.585 288.861 115.251 287.453 114.613 285.52C114.362 284.758 113.781 283.871 113.322 283.548C112.138 282.718 109.973 282.825 108.38 283.793ZM168.987 289.23C168.612 289.448 168.028 290.164 167.69 290.82C167.165 291.837 167.14 292.397 167.521 294.601C168.121 298.069 169.621 302.461 171.3 305.66C175.191 313.077 182.353 316.622 189.708 314.771C192.623 314.037 197.325 311.831 199.023 310.4C201.036 308.703 200.983 305.996 198.904 304.31C197.572 303.229 195.994 303.498 192.108 305.469C188.836 307.128 188.192 307.319 185.847 307.32C183.699 307.321 182.978 307.148 181.802 306.347C178.898 304.37 176.631 300.033 175.296 293.899C174.737 291.328 174.338 290.361 173.556 289.686C172.467 288.743 170.207 288.518 168.987 289.23ZM123.801 343.844C118.171 345.294 111.742 346.101 105.83 346.101H100.986V349.332C100.986 356.717 98.1252 362.633 90.7208 370.56C87.1913 374.339 86.754 375.208 87.0952 377.758C87.5073 380.836 90.1468 383.127 93.2805 383.127C94.3296 383.127 95.6604 382.882 96.2387 382.582C98.0571 381.64 104.754 374.379 107.03 370.883C111.415 364.145 113.368 358.531 113.714 351.671C113.971 346.579 113.517 346.606 118.609 351.386L121.955 354.527L123.37 366.781C124.148 373.52 124.948 379.673 125.147 380.454C125.61 382.269 128.092 384.552 129.991 384.909C133.149 385.503 136.85 383.104 137.418 380.095C137.851 377.803 134.584 350.22 133.672 348.467C133.273 347.702 131.841 346.104 130.489 344.915L128.031 342.755L123.801 343.844ZM187.373 353.908C182.727 355.775 181.755 356.301 181.866 356.887C181.941 357.279 182.595 359.667 183.321 362.194C184.047 364.722 185.197 369.72 185.878 373.302C187.069 379.571 187.167 379.867 188.523 381.238C191.684 384.436 196.436 383.885 198.576 380.072C199.639 378.178 199.647 377.032 198.637 371.405C197.244 363.635 193.956 351.491 193.276 351.599C193.133 351.622 190.477 352.661 187.373 353.908ZM152.93 357.679C150.653 361.906 147.298 366.854 144.258 370.469C140.493 374.947 139.973 376.663 141.418 379.851C142.747 382.782 146.282 384.158 149.41 382.962C151.474 382.172 155.485 377.557 159.935 370.85C163.871 364.918 168.015 356.983 167.464 356.431C167.296 356.263 159.671 354.904 156.579 354.492L154.775 354.252L152.93 357.679Z" fill="black"/>
</svg>
