<svg width="352" height="448" viewBox="0 0 352 448" fill="none" xmlns="http://www.w3.org/2000/svg">
<rect x="12" y="12" width="327" height="425" fill="#F4F4F4"/>
<path fill-rule="evenodd" clip-rule="evenodd" d="M15.6969 1.15646C8.11091 3.87946 1.40991 11.7415 0.358911 19.1535C0.0389115 21.4155 -0.0920895 115.066 0.0689105 227.266C0.338911 415.992 0.486912 431.495 2.03891 434.327C4.13691 438.155 9.42091 443.417 13.3609 445.602C16.1239 447.135 28.9649 447.266 175.861 447.266C323.269 447.266 335.593 447.139 338.422 445.588C342.25 443.49 347.512 438.206 349.697 434.266C351.234 431.495 351.361 415.431 351.361 223.766C351.361 29.3734 351.252 16.0675 349.64 13.1225C347.439 9.10146 342.526 4.18846 338.505 1.98746C335.573 0.382457 324.693 0.252454 177.361 0.0544544C48.9039 -0.118546 18.6759 0.0874556 15.6969 1.15646ZM20.2249 16.9365C19.0499 17.5045 17.5879 19.0705 16.9749 20.4155C15.3899 23.8935 15.3869 423.631 16.9709 427.109C17.5819 428.449 19.1779 430.045 20.5179 430.656C23.9829 432.234 327.739 432.234 331.204 430.656C332.544 430.045 334.14 428.449 334.751 427.109C336.332 423.638 336.332 23.8945 334.751 20.4235C334.14 19.0835 332.544 17.4875 331.204 16.8765C327.891 15.3675 23.3449 15.4255 20.2249 16.9365ZM42.3159 226.221C40.7679 227.768 39.8609 229.818 39.8609 231.766C39.8609 233.714 40.7679 235.764 42.3159 237.311L44.7699 239.766H174.227H303.683L306.272 236.689C309.531 232.816 309.531 230.716 306.272 226.843L303.683 223.766H174.227H44.7699L42.3159 226.221ZM42.3159 306.221C40.7679 307.768 39.8609 309.818 39.8609 311.766C39.8609 313.714 40.7679 315.764 42.3159 317.311L44.7699 319.766H174.227H303.683L306.272 316.689C309.531 312.816 309.531 310.716 306.272 306.843L303.683 303.766H174.227H44.7699L42.3159 306.221ZM42.3159 386.221C40.7679 387.768 39.8609 389.818 39.8609 391.766C39.8609 393.714 40.7679 395.764 42.3159 397.311L44.7699 399.766H174.227H303.683L306.272 396.689C309.531 392.816 309.531 390.716 306.272 386.843L303.683 383.766H174.227H44.7699L42.3159 386.221Z" fill="black"/>
<rect x="47.5" y="36.5" width="162" height="162" rx="7.5" fill="#71A8DD" stroke="black" stroke-width="7"/>
<path fill-rule="evenodd" clip-rule="evenodd" d="M148.17 51.3027C147.81 51.4491 146.98 53.1808 146.325 55.1508C145.671 57.1208 144.816 58.8553 144.426 59.005C144.036 59.1547 142.202 58.512 140.351 57.5765C137.814 56.2943 136.739 56.0071 135.987 56.4099C134.467 57.2243 130.961 61.298 130.961 62.25C130.961 62.7134 131.594 64.3422 132.367 65.8698C133.14 67.3974 133.697 69.0267 133.604 69.4906C133.509 69.9617 131.901 70.89 129.964 71.5911C128.055 72.2822 126.335 73.0064 126.141 73.2006C125.681 73.6612 125.681 81.0647 126.141 81.5253C126.335 81.7195 128.055 82.4437 129.964 83.1349C131.901 83.8359 133.509 84.7643 133.604 85.2353C133.697 85.6992 133.14 87.3286 132.367 88.8562C131.594 90.3837 130.961 92.0126 130.961 92.4759C130.961 93.4279 134.467 97.5016 135.987 98.316C136.739 98.7188 137.814 98.4316 140.351 97.1494C142.202 96.214 144.036 95.5712 144.426 95.7209C144.816 95.8706 145.669 97.5996 146.321 99.5619C146.973 101.525 147.885 103.276 148.347 103.453C149.436 103.872 154.806 103.872 155.895 103.453C156.357 103.276 157.269 101.525 157.921 99.5619C158.573 97.5996 159.426 95.8706 159.816 95.7209C160.206 95.5712 162.04 96.214 163.891 97.1494C166.428 98.4316 167.503 98.7188 168.255 98.316C169.752 97.5143 173.281 93.4345 173.281 92.5062C173.281 92.0599 172.625 90.3557 171.824 88.7197C171.022 87.0837 170.499 85.3987 170.661 84.9761C170.823 84.5535 172.317 83.7776 173.982 83.2521C177.881 82.0217 178.484 81.2331 178.484 77.363C178.484 73.4928 177.881 72.7043 173.982 71.4738C172.317 70.9483 170.823 70.1724 170.661 69.7498C170.499 69.3272 171.022 67.6422 171.824 66.0063C172.625 64.3703 173.281 62.666 173.281 62.2198C173.281 61.2914 169.752 57.2116 168.255 56.4099C167.503 56.0071 166.428 56.2943 163.891 57.5765C162.04 58.512 160.206 59.1547 159.816 59.005C159.426 58.8553 158.573 57.1264 157.921 55.164C157.269 53.2012 156.357 51.4502 155.895 51.2725C154.907 50.8933 149.119 50.9159 148.17 51.3027ZM150.004 58.6765C149.127 61.8346 148.95 62.058 146.483 63.1167L143.886 64.231L140.747 62.7293C138.17 61.4961 137.459 61.3509 136.775 61.9193C136.04 62.5301 136.101 62.9247 137.299 65.2914C138.88 68.4143 138.951 69.7768 137.667 72.3879C136.888 73.9732 136.227 74.4366 133.709 75.164C131.123 75.9113 130.686 76.2294 130.686 77.363C130.686 78.4965 131.123 78.8146 133.709 79.5619C136.227 80.2894 136.888 80.7527 137.667 82.3381C138.951 84.9491 138.88 86.3116 137.299 89.4345C136.101 91.8013 136.04 92.1958 136.775 92.8066C137.459 93.3751 138.17 93.2298 140.747 91.9966L143.886 90.4949L146.483 91.6092C148.95 92.6679 149.127 92.8914 150.004 96.0494C150.771 98.8113 151.129 99.3742 152.121 99.3742C153.112 99.3742 153.471 98.8113 154.238 96.0494C155.115 92.8914 155.292 92.6679 157.759 91.6092L160.356 90.4949L163.495 91.9966C166.072 93.2298 166.783 93.3751 167.466 92.8066C168.202 92.1958 168.141 91.8013 166.943 89.4345C165.362 86.3116 165.291 84.9491 166.574 82.3381C167.354 80.7527 168.014 80.2894 170.533 79.5619C173.119 78.8146 173.556 78.4965 173.556 77.363C173.556 76.2294 173.119 75.9113 170.533 75.164C168.014 74.4366 167.354 73.9732 166.574 72.3879C165.291 69.7768 165.362 68.4143 166.943 65.2914C168.141 62.9247 168.202 62.5301 167.466 61.9193C166.783 61.3509 166.072 61.4961 163.495 62.7293L160.356 64.231L157.759 63.1167C155.292 62.058 155.115 61.8346 154.238 58.6765C153.471 55.9146 153.112 55.3517 152.121 55.3517C151.129 55.3517 150.771 55.9146 150.004 58.6765ZM178.867 56.3147C178.258 57.4912 176.286 67.9097 176.616 68.2024C176.747 68.318 177.745 68.5739 178.835 68.7709L180.817 69.1291L181.351 66.2297L181.884 63.3308L182.571 64.9816C184.355 69.2634 184.952 73.2469 184.671 79.0072C184.345 85.7245 183.068 89.96 179.884 94.8927L177.784 98.1455L179.421 99.3577C180.947 100.487 181.127 100.508 182.056 99.6659C182.604 99.169 183.833 97.2969 184.787 95.5052C190.581 84.6223 191.025 73.7806 186.169 61.7542C185.835 60.9244 185.956 60.7846 186.8 61.0251C187.375 61.1885 188.634 61.4813 189.6 61.6755C191.27 62.0118 191.372 61.9336 191.727 60.0401C191.932 58.9467 191.957 57.9094 191.783 57.735C191.384 57.3355 182.217 55.4023 180.582 55.3732C179.913 55.3616 179.141 55.7853 178.867 56.3147ZM147.999 67.2345C143.676 69.1093 141.226 72.7731 141.226 77.363C141.226 82.0117 143.71 85.67 148.119 87.514C152.007 89.1406 156.512 88.2327 159.727 85.1753C162.083 82.9346 163.016 80.7191 163.016 77.363C163.016 74.0068 162.083 71.7914 159.727 69.5506C156.52 66.5004 151.828 65.5743 147.999 67.2345ZM149.271 71.5652C148.308 71.9845 147.133 73.0768 146.661 73.9925C143.809 79.5135 148.517 85.3332 154.291 83.4254C159.475 81.7124 159.855 73.6354 154.85 71.5415C152.554 70.5813 151.521 70.5857 149.271 71.5652ZM108.185 77.3288L106.58 79.0067L107.874 80.3857L109.169 81.7652H105.023C90.9159 81.7652 75.7907 88.1887 65.5873 98.5136L62.044 102.099L63.3471 103.488C64.0638 104.252 64.8487 104.877 65.091 104.877C65.3329 104.877 67.2037 103.243 69.2488 101.245C78.4475 92.2591 90.2371 87.1299 103.481 86.3529L109.252 86.0139L107.904 87.4826L106.557 88.9508L108.209 90.6044L109.86 92.258L113.54 88.4407C115.565 86.3414 117.221 84.3224 117.221 83.9548C117.221 83.5866 115.549 81.5682 113.506 79.4689L109.79 75.6516L108.185 77.3288ZM101.099 95.7842C100.653 96.231 99.9783 98.3298 99.6007 100.447C98.9401 104.147 98.8379 104.323 96.9824 104.936C95.0566 105.573 95.0434 105.565 91.9222 102.199C90.2014 100.343 88.6284 98.824 88.4273 98.824C87.5303 98.824 81.6721 102.116 80.7504 103.138C79.7528 104.243 79.7611 104.364 81.1082 108.375L82.4866 112.48L80.9482 113.956L79.4093 115.431L75.4791 114.164C72.5607 113.223 71.3082 113.045 70.6146 113.473C69.3345 114.263 66.1078 119.706 66.1078 121.074C66.1078 121.732 67.3779 123.325 69.2142 124.969C72.1732 127.619 72.303 127.845 71.9468 129.744C71.5797 131.705 71.5088 131.752 67.6038 132.627C61.9193 133.902 62.0001 133.81 62.0001 138.995C62.0001 144.179 61.9193 144.087 67.6038 145.362C71.5088 146.237 71.5797 146.284 71.9468 148.245C72.303 150.144 72.1732 150.37 69.2142 153.02C67.3779 154.664 66.1078 156.257 66.1078 156.915C66.1078 158.284 69.3345 163.726 70.6146 164.516C71.3082 164.944 72.5607 164.766 75.4791 163.825L79.4093 162.558L80.9482 164.033L82.4866 165.509L81.1082 169.614C79.7611 173.625 79.7528 173.746 80.7504 174.851C81.6721 175.873 87.5303 179.165 88.4273 179.165C88.6284 179.165 90.1904 177.658 91.8975 175.817C94.8873 172.592 95.0698 172.487 96.8714 172.954C98.6812 173.424 98.7703 173.578 99.6551 177.732C100.157 180.093 100.915 182.244 101.337 182.512C101.761 182.781 103.838 183 105.954 183C108.07 183 110.148 182.781 110.571 182.512C110.993 182.244 111.751 180.093 112.253 177.732C113.138 173.578 113.227 173.424 115.037 172.954C116.839 172.487 117.021 172.592 120.011 175.817C121.718 177.658 123.28 179.165 123.481 179.165C124.378 179.165 130.236 175.873 131.158 174.851C132.155 173.746 132.147 173.625 130.8 169.614L129.422 165.509L130.96 164.033L132.499 162.558L136.429 163.825C139.348 164.766 140.6 164.944 141.294 164.516C142.573 163.727 145.799 158.287 145.808 156.903C145.813 156.224 144.582 154.676 142.703 152.999C139.742 150.353 139.61 150.123 139.963 148.235C140.329 146.286 140.404 146.236 144.304 145.362C149.989 144.087 149.908 144.179 149.908 138.995C149.908 133.81 149.989 133.902 144.304 132.627C140.404 131.753 140.329 131.703 139.963 129.754C139.61 127.866 139.742 127.636 142.703 124.99C144.582 123.313 145.813 121.765 145.808 121.086C145.799 119.702 142.573 114.262 141.294 113.473C140.6 113.045 139.348 113.223 136.429 114.164L132.499 115.431L130.96 113.956L129.422 112.48L130.8 108.375C132.147 104.364 132.155 104.243 131.158 103.138C130.236 102.116 124.378 98.824 123.481 98.824C123.28 98.824 121.718 100.331 120.011 102.172C117.021 105.397 116.839 105.502 115.037 105.035C113.227 104.565 113.138 104.412 112.253 100.257C111.751 97.8956 110.993 95.7446 110.571 95.4766C109.242 94.6347 102.013 94.8696 101.099 95.7842ZM104.43 99.7556C104.29 99.9999 103.868 101.874 103.49 103.921C103.113 105.968 102.524 107.823 102.181 108.044C101.559 108.446 98.0547 109.492 94.9972 110.19C93.538 110.523 93.1082 110.248 90.5201 107.328C87.848 104.312 87.5655 104.14 86.2739 104.729L84.89 105.36L86.2404 109.618L87.5908 113.876L84.4234 117.081C82.6817 118.843 80.8543 120.285 80.3635 120.285C79.8721 120.285 78.0326 119.79 76.2755 119.184C72.3266 117.824 72.4437 117.821 71.7479 119.322C71.2367 120.425 71.5264 120.891 74.392 123.587L77.6094 126.614L76.852 129.365C76.4354 130.878 75.943 132.806 75.7578 133.648C75.3763 135.381 74.3475 135.928 69.8176 136.808C66.8542 137.383 66.6574 137.519 66.6574 138.988C66.6574 140.424 66.8882 140.604 69.4324 141.15C70.9586 141.478 72.5189 141.746 72.8998 141.746C74.453 141.746 75.4978 143.333 76.5212 147.249L77.6 151.376L74.3871 154.402C71.5264 157.097 71.2367 157.565 71.7479 158.667C72.4437 160.168 72.3266 160.165 76.2755 158.805C78.0326 158.199 79.8721 157.704 80.3635 157.704C80.8543 157.704 82.6817 159.146 84.4234 160.908L87.5908 164.113L86.2404 168.371L84.89 172.629L86.2739 173.26C87.566 173.849 87.8485 173.676 90.541 170.638L93.4243 167.384L97.6584 168.44C99.9871 169.021 102.103 169.752 102.359 170.066C102.615 170.379 103.167 172.369 103.585 174.488C104.32 178.205 104.403 178.34 105.954 178.34C107.505 178.34 107.588 178.205 108.323 174.488C108.742 172.369 109.294 170.379 109.55 170.066C109.806 169.752 111.921 169.021 114.25 168.44L118.484 167.384L121.367 170.638C124.06 173.676 124.342 173.849 125.634 173.26L127.018 172.629L125.668 168.371L124.318 164.113L127.485 160.908C129.227 159.146 131.054 157.704 131.545 157.704C132.036 157.704 133.876 158.199 135.633 158.805C139.581 160.165 139.463 160.168 140.17 158.667C140.692 157.561 140.411 157.105 137.53 154.389L134.307 151.349L135.06 148.611C135.475 147.105 135.965 145.184 136.151 144.341C136.532 142.608 137.561 142.061 142.091 141.181C145.058 140.605 145.251 140.471 145.251 138.995C145.251 137.518 145.058 137.384 142.091 136.808C137.561 135.928 136.532 135.381 136.151 133.648C135.965 132.806 135.475 130.884 135.06 129.378L134.307 126.64L137.53 123.6C140.411 120.884 140.692 120.428 140.17 119.322C139.463 117.821 139.581 117.824 135.633 119.184C133.876 119.79 132.036 120.285 131.545 120.285C131.054 120.285 129.227 118.843 127.485 117.081L124.318 113.876L125.668 109.618L127.018 105.36L125.634 104.729C124.345 104.141 124.058 104.312 121.423 107.254C119.867 108.99 118.246 110.404 117.819 110.395C116.885 110.377 111.235 108.776 110.076 108.201C109.595 107.963 108.897 106.096 108.4 103.721C107.623 100.004 107.424 99.6345 106.117 99.4804C105.329 99.3874 104.57 99.5113 104.43 99.7556ZM168.225 106.665C167.747 107.044 167.07 108.26 166.72 109.368C165.914 111.916 165.111 112.21 162.054 111.075C159.89 110.272 159.421 110.258 158.123 110.954C157.311 111.389 156.016 112.573 155.244 113.587C153.951 115.284 153.898 115.567 154.568 117.169C154.969 118.126 155.325 119.616 155.358 120.48C155.411 121.856 155.114 122.164 152.964 122.965C150.847 123.753 150.442 124.162 150.024 125.934C149.743 127.123 149.743 128.855 150.024 130.044C150.442 131.816 150.847 132.224 152.964 133.013C155.114 133.814 155.411 134.122 155.358 135.498C155.325 136.362 154.969 137.852 154.568 138.809C153.898 140.411 153.951 140.694 155.244 142.391C156.016 143.404 157.311 144.589 158.123 145.024C159.421 145.72 159.89 145.706 162.054 144.902C165.111 143.768 165.914 144.062 166.72 146.609C167.582 149.338 168.595 150 171.907 150C175.218 150 176.232 149.338 177.094 146.609C177.899 144.062 178.703 143.768 181.759 144.902C183.923 145.706 184.392 145.72 185.691 145.024C186.502 144.589 187.797 143.404 188.57 142.391C189.862 140.694 189.916 140.411 189.245 138.809C188.844 137.852 188.489 136.362 188.456 135.498C188.403 134.122 188.699 133.814 190.849 133.013C192.966 132.224 193.371 131.816 193.79 130.044C194.07 128.855 194.07 127.123 193.79 125.934C193.371 124.162 192.966 123.753 190.849 122.965C188.699 122.164 188.403 121.856 188.456 120.48C188.489 119.616 188.844 118.126 189.245 117.169C189.916 115.567 189.862 115.284 188.57 113.587C187.797 112.573 186.502 111.389 185.691 110.954C184.392 110.258 183.923 110.272 181.759 111.075C178.703 112.21 177.899 111.916 177.094 109.368C176.232 106.64 175.218 105.978 171.907 105.978C170.36 105.978 168.703 106.287 168.225 106.665ZM170.385 112.582C169.682 114.374 169.032 114.993 166.887 115.914C164.374 116.993 164.159 117.003 162.219 116.126C159.419 114.862 158.809 115.404 159.915 118.174C160.679 120.084 160.708 120.716 160.109 122.415C159.177 125.061 158.114 126.202 156.186 126.626C154.017 127.103 154.017 128.875 156.186 129.352C158.114 129.776 159.177 130.916 160.109 133.563C160.708 135.262 160.679 135.894 159.915 137.804C158.809 140.573 159.419 141.115 162.219 139.851C164.159 138.975 164.374 138.985 166.887 140.064C169.032 140.984 169.682 141.603 170.385 143.396C170.86 144.607 171.545 145.598 171.907 145.598C172.268 145.598 172.953 144.607 173.428 143.396C174.132 141.603 174.782 140.984 176.926 140.064C179.463 138.975 179.638 138.968 181.66 139.881C184.459 141.144 185.216 140.409 183.921 137.689C183.082 135.927 183.052 135.413 183.684 133.619C184.637 130.917 185.689 129.778 187.628 129.352C188.681 129.12 189.219 128.659 189.219 127.989C189.219 127.319 188.681 126.858 187.628 126.626C185.699 126.202 184.637 125.061 183.705 122.415C183.105 120.716 183.135 120.084 183.898 118.174C185.004 115.404 184.394 114.862 181.594 116.126C179.654 117.003 179.439 116.993 176.926 115.914C174.782 114.993 174.132 114.374 173.428 112.582C172.953 111.371 172.268 110.38 171.907 110.38C171.545 110.38 170.86 111.371 170.385 112.582ZM98.9731 115.845C94.468 117.287 91.3781 119.266 88.2047 122.743C79.5808 132.19 79.5808 145.799 88.2047 155.247C98.8653 166.925 117.038 165.54 126.097 152.358C130.681 145.685 131.396 136.184 127.875 128.731C126.165 125.112 121.739 120.174 118.502 118.275C112.654 114.844 105.054 113.898 98.9731 115.845ZM100.133 120.228C91.6694 122.939 86.469 130.081 86.469 138.995C86.469 148.088 91.937 155.367 100.696 157.931C106.142 159.525 111.686 158.654 116.807 155.398C128.332 148.072 128.332 129.917 116.807 122.591C111.552 119.25 105.751 118.428 100.133 120.228ZM167.867 120.118C163.505 122.269 161.829 128.361 164.436 132.585C169.023 140.014 180.637 136.72 180.637 127.989C180.637 121.51 173.706 117.237 167.867 120.118ZM169.233 124.727C168.116 125.607 167.785 126.353 167.785 127.989C167.785 129.625 168.116 130.371 169.233 131.25C170.029 131.878 171.232 132.391 171.907 132.391C172.581 132.391 173.784 131.878 174.581 131.25C175.698 130.371 176.029 129.625 176.029 127.989C176.029 126.353 175.698 125.607 174.581 124.727C173.784 124.1 172.581 123.587 171.907 123.587C171.232 123.587 170.029 124.1 169.233 124.727Z" fill="black"/>
<path fill-rule="evenodd" clip-rule="evenodd" d="M104.43 99.7556C104.29 99.9999 103.868 101.874 103.49 103.921C103.113 105.968 102.524 107.823 102.181 108.044C101.559 108.446 98.0547 109.492 94.9972 110.19C93.538 110.523 93.1082 110.248 90.5201 107.328C87.848 104.312 87.5655 104.14 86.2739 104.729L84.89 105.36L86.2404 109.618L87.5908 113.876L84.4234 117.081C82.6817 118.843 80.8543 120.285 80.3635 120.285C79.8721 120.285 78.0326 119.79 76.2755 119.184C72.3266 117.824 72.4437 117.821 71.7479 119.322C71.2367 120.425 71.5264 120.891 74.392 123.587L77.6094 126.614L76.852 129.365C76.4354 130.878 75.943 132.806 75.7578 133.648C75.3763 135.381 74.3475 135.928 69.8176 136.808C66.8542 137.383 66.6574 137.519 66.6574 138.988C66.6574 140.424 66.8882 140.604 69.4324 141.15C70.9586 141.478 72.5189 141.746 72.8998 141.746C74.453 141.746 75.4978 143.333 76.5212 147.249L77.6 151.376L74.3871 154.402C71.5264 157.097 71.2367 157.565 71.7479 158.667C72.4437 160.168 72.3266 160.165 76.2755 158.805C78.0326 158.199 79.8721 157.704 80.3635 157.704C80.8543 157.704 82.6817 159.146 84.4234 160.908L87.5908 164.113L86.2404 168.371L84.89 172.629L86.2739 173.26C87.566 173.849 87.8485 173.676 90.541 170.638L93.4243 167.384L97.6584 168.44C99.9871 169.021 102.103 169.752 102.359 170.066C102.615 170.379 103.167 172.369 103.585 174.488C104.32 178.205 104.403 178.34 105.954 178.34C107.505 178.34 107.588 178.205 108.323 174.488C108.742 172.369 109.294 170.379 109.55 170.066C109.806 169.752 111.921 169.021 114.25 168.44L118.484 167.384L121.367 170.638C124.06 173.676 124.342 173.849 125.634 173.26L127.018 172.629L125.668 168.371L124.318 164.113L127.485 160.908C129.227 159.146 131.054 157.704 131.545 157.704C132.036 157.704 133.876 158.199 135.633 158.805C139.581 160.165 139.463 160.168 140.17 158.667C140.692 157.561 140.411 157.105 137.53 154.389L134.307 151.349L135.06 148.611C135.475 147.105 135.965 145.184 136.151 144.341C136.532 142.608 137.561 142.061 142.091 141.181C145.058 140.605 145.251 140.471 145.251 138.995C145.251 137.518 145.058 137.384 142.091 136.808C137.561 135.928 136.532 135.381 136.151 133.648C135.965 132.806 135.475 130.884 135.06 129.378L134.307 126.64L137.53 123.6C140.411 120.884 140.692 120.428 140.17 119.322C139.463 117.821 139.581 117.824 135.633 119.184C133.876 119.79 132.036 120.285 131.545 120.285C131.054 120.285 129.227 118.843 127.485 117.081L124.318 113.876L125.668 109.618L127.018 105.36L125.634 104.729C124.345 104.141 124.058 104.312 121.423 107.254C119.867 108.99 118.246 110.404 117.819 110.395C116.885 110.377 111.235 108.776 110.076 108.201C109.595 107.963 108.897 106.096 108.4 103.721C107.623 100.004 107.424 99.6345 106.117 99.4804C105.329 99.3874 104.57 99.5113 104.43 99.7556ZM88.2047 122.743C91.3781 119.266 94.468 117.287 98.9731 115.845C105.054 113.898 112.654 114.844 118.502 118.275C121.739 120.174 126.165 125.112 127.875 128.731C131.396 136.184 130.681 145.685 126.097 152.358C117.038 165.54 98.8653 166.925 88.2047 155.247C79.5808 145.799 79.5808 132.19 88.2047 122.743Z" fill="#FFD571"/>
<path fill-rule="evenodd" clip-rule="evenodd" d="M170.385 112.582C169.682 114.374 169.032 114.993 166.887 115.914C164.374 116.993 164.159 117.003 162.219 116.126C159.419 114.862 158.809 115.404 159.915 118.174C160.679 120.084 160.708 120.716 160.109 122.415C159.177 125.061 158.114 126.202 156.186 126.626C154.017 127.103 154.017 128.875 156.186 129.352C158.114 129.776 159.177 130.916 160.109 133.563C160.708 135.262 160.679 135.894 159.915 137.804C158.809 140.573 159.419 141.115 162.219 139.851C164.159 138.975 164.374 138.985 166.887 140.064C169.032 140.984 169.682 141.603 170.385 143.396C170.86 144.607 171.545 145.598 171.907 145.598C172.268 145.598 172.953 144.607 173.428 143.396C174.132 141.603 174.782 140.984 176.926 140.064C179.463 138.975 179.638 138.968 181.66 139.881C184.459 141.144 185.216 140.409 183.921 137.689C183.082 135.927 183.052 135.413 183.684 133.619C184.637 130.917 185.689 129.778 187.628 129.352C188.681 129.12 189.219 128.659 189.219 127.989C189.219 127.319 188.681 126.858 187.628 126.626C185.699 126.202 184.637 125.061 183.705 122.415C183.105 120.716 183.135 120.084 183.898 118.174C185.004 115.404 184.394 114.862 181.594 116.126C179.654 117.003 179.439 116.993 176.926 115.914C174.782 114.993 174.132 114.374 173.428 112.582C172.953 111.371 172.268 110.38 171.907 110.38C171.545 110.38 170.86 111.371 170.385 112.582ZM164.436 132.585C161.829 128.361 163.505 122.269 167.867 120.118C173.706 117.237 180.637 121.51 180.637 127.989C180.637 136.72 169.023 140.014 164.436 132.585Z" fill="#FFD571"/>
<path fill-rule="evenodd" clip-rule="evenodd" d="M150.004 58.6765C149.127 61.8346 148.95 62.058 146.483 63.1167L143.886 64.231L140.747 62.7293C138.17 61.4961 137.459 61.3509 136.775 61.9193C136.04 62.5301 136.101 62.9247 137.299 65.2914C138.88 68.4143 138.951 69.7768 137.667 72.3879C136.888 73.9732 136.227 74.4366 133.709 75.164C131.123 75.9113 130.686 76.2294 130.686 77.363C130.686 78.4965 131.123 78.8146 133.709 79.5619C136.227 80.2894 136.888 80.7527 137.667 82.3381C138.951 84.9491 138.88 86.3116 137.299 89.4345C136.101 91.8013 136.04 92.1958 136.775 92.8066C137.459 93.3751 138.17 93.2298 140.747 91.9966L143.886 90.4949L146.483 91.6092C148.95 92.6679 149.127 92.8914 150.004 96.0494C150.771 98.8113 151.129 99.3742 152.121 99.3742C153.112 99.3742 153.471 98.8113 154.238 96.0494C155.115 92.8914 155.292 92.6679 157.759 91.6092L160.356 90.4949L163.495 91.9966C166.072 93.2298 166.783 93.3751 167.466 92.8066C168.202 92.1958 168.141 91.8013 166.943 89.4345C165.362 86.3116 165.291 84.9491 166.574 82.3381C167.354 80.7527 168.014 80.2894 170.533 79.5619C173.119 78.8146 173.556 78.4965 173.556 77.363C173.556 76.2294 173.119 75.9113 170.533 75.164C168.014 74.4366 167.354 73.9732 166.574 72.3879C165.291 69.7768 165.362 68.4143 166.943 65.2914C168.141 62.9247 168.202 62.5301 167.466 61.9193C166.783 61.3509 166.072 61.4961 163.495 62.7293L160.356 64.231L157.759 63.1167C155.292 62.058 155.115 61.8346 154.238 58.6765C153.471 55.9146 153.112 55.3517 152.121 55.3517C151.129 55.3517 150.771 55.9146 150.004 58.6765ZM141.226 77.363C141.226 72.7731 143.676 69.1093 147.999 67.2345C151.828 65.5743 156.52 66.5004 159.727 69.5506C162.083 71.7914 163.016 74.0068 163.016 77.363C163.016 80.7191 162.083 82.9346 159.727 85.1753C156.512 88.2327 152.007 89.1406 148.119 87.514C143.71 85.67 141.226 82.0117 141.226 77.363Z" fill="#FFD571"/>
</svg>
