<svg width="174" height="175" viewBox="0 0 174 175" fill="none" xmlns="http://www.w3.org/2000/svg">
<path fill-rule="evenodd" clip-rule="evenodd" d="M68.5064 6.61802C39.5914 18.393 39.0064 18.668 39.0064 20.488C39.0064 21.421 41.9314 26.199 45.5064 31.106C50.9544 38.585 52.0064 40.681 52.0064 44.058C52.0064 47.004 51.4684 48.423 50.0064 49.336C48.2794 50.414 48.0064 51.668 48.0064 58.505C48.0064 66.604 49.2314 69.568 52.5774 69.568C53.3634 69.568 54.0164 70.355 54.0284 71.318C54.0664 74.35 57.6684 81.188 61.4074 85.326C64.6174 88.88 65.0064 89.903 65.0064 94.796V100.281L52.2564 100.842C37.7474 101.482 31.3034 103.273 22.5064 109.112C11.9264 116.135 3.36441 129.023 1.02141 141.454C-0.432594 149.17 -0.301593 171.86 1.20641 173.368C2.12041 174.282 22.4284 174.568 86.5064 174.568C150.584 174.568 170.892 174.282 171.806 173.368C173.632 171.542 173.391 146.489 171.476 139.028C167.11 122.026 155.489 109.143 139.425 103.496C135.246 102.027 129.905 101.248 121.256 100.846L109.006 100.277V94.943C109.006 90.255 109.494 88.969 113.027 84.338C115.238 81.44 117.622 77.13 118.325 74.761C119.153 71.97 120.467 70.024 122.055 69.234C124.336 68.099 124.526 67.414 124.794 59.324C125.054 51.489 124.882 50.508 123.044 49.36C121.531 48.415 121.006 47.03 121.006 43.98C121.006 40.476 121.96 38.608 127.506 31.256C131.081 26.516 134.006 21.806 134.006 20.789C134.006 19.32 129.366 17.03 111.388 9.63001C98.9494 4.50901 88.0364 0.17902 87.1384 0.00702036C86.2414 -0.16398 77.8564 2.81002 68.5064 6.61802ZM66.5064 14.492C56.0564 18.802 47.6064 22.72 47.7294 23.198C47.8524 23.677 49.5484 26.206 51.4994 28.818L55.0454 33.568H86.4804H117.915L121.915 28.322C124.115 25.437 125.598 22.796 125.21 22.452C124.229 21.583 87.3624 6.55802 86.3384 6.61102C85.8814 6.63502 76.9564 10.181 66.5064 14.492ZM79.9294 13.491C72.2854 21.135 80.4774 33.323 90.4564 29.153C97.7124 26.122 98.6534 15.505 91.9724 12.051C87.3814 9.67602 83.2504 10.171 79.9294 13.491ZM83.9364 18.152C82.1604 20.292 83.9474 23.068 87.1014 23.068C89.8224 23.068 90.8494 20.289 88.9664 18.02C87.3984 16.13 85.5744 16.178 83.9364 18.152ZM59.0064 47.162C59.0064 52.914 58.7514 53.822 57.0064 54.278C54.2854 54.99 54.2284 61.073 56.9214 63.408C57.9744 64.321 59.5714 67.69 60.4714 70.895C62.4914 78.09 68.3864 84.879 75.5064 88.21C91.1784 95.54 110.304 85.486 113.545 68.214C113.935 66.133 115.099 63.903 116.13 63.258C118.44 61.816 118.843 54.568 116.613 54.568C114.688 54.568 114.006 52.324 114.006 45.986V40.568H86.5064H59.0064V47.162ZM71.0064 98.081C71.0064 102.4 71.6224 103.617 78.1424 112.179C82.0674 117.332 85.8554 122.027 86.5594 122.612C87.5394 123.426 89.4984 121.351 94.9234 113.753C101.537 104.49 102.006 103.485 102.006 98.593C102.006 93.985 101.795 93.444 100.256 94.102C97.1814 95.415 88.6414 97.568 86.5064 97.568C84.3714 97.568 75.8314 95.415 72.7564 94.102C71.2314 93.45 71.0064 93.961 71.0064 98.081ZM36.4934 109.367C29.1404 111.909 22.9344 115.837 18.2614 120.907C14.4014 125.094 9.00641 134.205 9.00641 136.535C9.00641 137.16 12.1834 137.568 17.0564 137.568C26.5454 137.568 30.0444 139.02 32.3714 143.925C34.4034 148.206 34.4174 149.872 32.4574 153.662C29.7664 158.867 25.6704 160.56 15.7564 160.564L7.00641 160.568V164.068V167.568H86.5064H166.006V164.068V160.568H157.974C148.342 160.568 143.792 158.906 141.032 154.378C138.583 150.362 138.51 148.414 140.641 143.925C142.968 139.02 146.467 137.568 155.956 137.568C161.188 137.568 164.006 137.179 164.006 136.458C164.006 135.847 162.596 132.703 160.874 129.471C156.833 121.89 149.68 115.256 141.229 111.253C134.801 108.208 133.892 108.056 120.506 107.793L106.506 107.518L97.9904 119.793C92.5904 127.575 88.7474 132.17 87.4904 132.347C85.9864 132.558 83.2084 129.593 76.0114 120.097L66.5154 107.568L54.0114 107.601C44.8104 107.625 40.1814 108.091 36.4934 109.367ZM115.841 122.511C114.4 125.978 113.053 127.724 111.616 127.988C99.5784 130.2 98.5194 131.733 104.792 137.859L108.654 141.63L107.656 147.139C106.82 151.749 106.916 152.906 108.242 154.233C109.688 155.679 110.294 155.55 115.182 152.753L120.538 149.689L125.855 152.759C130.402 155.384 131.375 155.627 132.567 154.436C133.654 153.349 133.764 151.834 133.068 147.555L132.176 142.068L136.186 137.933C142.375 131.552 141.484 130.229 129.506 128.004C128.33 127.786 126.476 125.663 125.006 122.851C121.381 115.916 118.624 115.814 115.841 122.511ZM118.568 131.448C117.278 133.943 116.322 134.568 113.793 134.568H110.632L113.373 137.429C115.488 139.637 115.966 140.881 115.464 142.878C114.832 145.399 114.894 145.437 117.84 144.325C120.148 143.454 121.502 143.473 123.552 144.407C126.158 145.594 126.219 145.551 125.568 142.961C125.042 140.865 125.488 139.674 127.639 137.429L130.38 134.568H127.178C124.666 134.568 123.568 133.897 122.079 131.448L120.182 128.328L118.568 131.448ZM81.5774 139.139C80.7134 140.004 80.0064 140.872 80.0064 141.068C80.0064 142.554 83.7474 144.568 86.5064 144.568C89.2654 144.568 93.0064 142.554 93.0064 141.068C93.0064 139.582 89.2654 137.568 86.5064 137.568C84.6604 137.568 82.4424 138.275 81.5774 139.139ZM7.00641 148.568V153.568H15.8064C25.1464 153.568 27.0064 152.799 27.0064 148.939C27.0064 144.704 24.5594 143.568 15.4354 143.568H7.00641V148.568ZM147.661 145.397C145.717 147.545 145.513 150.675 147.206 152.368C147.958 153.12 151.695 153.568 157.206 153.568H166.006V148.568V143.568H157.661C150.846 143.568 149.012 143.903 147.661 145.397ZM81.0064 149.068C78.9914 151.496 81.5234 153.568 86.5064 153.568C89.0684 153.568 91.2564 152.971 92.0064 152.068C94.0214 149.64 91.4894 147.568 86.5064 147.568C83.9444 147.568 81.7564 148.165 81.0064 149.068ZM81.0064 158.068C78.9914 160.496 81.5234 162.568 86.5064 162.568C89.0684 162.568 91.2564 161.971 92.0064 161.068C94.0214 158.64 91.4894 156.568 86.5064 156.568C83.9444 156.568 81.7564 157.165 81.0064 158.068Z" fill="black"/>
<path d="M59.0064 47.162C59.0064 52.914 58.7514 53.822 57.0064 54.278C54.2854 54.99 54.2284 61.073 56.9214 63.408C57.9744 64.321 59.5714 67.69 60.4714 70.895C62.4914 78.09 68.3864 84.879 75.5064 88.21C91.1784 95.54 110.304 85.486 113.545 68.214C113.935 66.133 115.099 63.903 116.13 63.258C118.44 61.816 118.843 54.568 116.613 54.568C114.688 54.568 114.006 52.324 114.006 45.986V40.568H86.5064H59.0064V47.162Z" fill="#FFF0CE"/>
<path d="M71.0064 98.081C71.0064 102.4 71.6224 103.617 78.1424 112.179C82.0674 117.332 85.8554 122.027 86.5594 122.612C87.5394 123.426 89.4984 121.351 94.9234 113.753C101.537 104.49 102.006 103.485 102.006 98.593C102.006 93.985 101.795 93.444 100.256 94.102C97.1814 95.415 88.6414 97.568 86.5064 97.568C84.3714 97.568 75.8314 95.415 72.7564 94.102C71.2314 93.45 71.0064 93.961 71.0064 98.081Z" fill="#FFF0CE"/>
<path fill-rule="evenodd" clip-rule="evenodd" d="M66.5064 14.492C56.0564 18.802 47.6064 22.72 47.7294 23.198C47.8524 23.677 49.5484 26.206 51.4994 28.818L55.0454 33.568H86.4804H117.915L121.915 28.322C124.115 25.437 125.598 22.796 125.21 22.452C124.229 21.583 87.3624 6.55802 86.3384 6.61102C85.8814 6.63502 76.9564 10.181 66.5064 14.492ZM90.4564 29.153C80.4774 33.323 72.2854 21.135 79.9294 13.491C83.2504 10.171 87.3814 9.67602 91.9724 12.051C98.6534 15.505 97.7124 26.122 90.4564 29.153Z" fill="#26A6FE"/>
<path fill-rule="evenodd" clip-rule="evenodd" d="M36.4934 109.367C29.1404 111.909 22.9344 115.837 18.2614 120.907C14.4014 125.094 9.00641 134.205 9.00641 136.535C9.00641 137.16 12.1834 137.568 17.0564 137.568C26.5454 137.568 30.0444 139.02 32.3714 143.925C34.4034 148.206 34.4174 149.872 32.4574 153.662C29.7664 158.867 25.6704 160.56 15.7564 160.564L7.00641 160.568V164.068V167.568H86.5064H166.006V164.068V160.568H157.974C148.342 160.568 143.792 158.906 141.032 154.378C138.583 150.362 138.51 148.414 140.641 143.925C142.968 139.02 146.467 137.568 155.956 137.568C161.188 137.568 164.006 137.179 164.006 136.458C164.006 135.847 162.596 132.703 160.874 129.471C156.833 121.89 149.68 115.256 141.229 111.253C134.801 108.208 133.892 108.056 120.506 107.793L106.506 107.518L97.9904 119.793C92.5904 127.575 88.7474 132.17 87.4904 132.347C85.9864 132.558 83.2084 129.593 76.0114 120.097L66.5154 107.568L54.0114 107.601C44.8104 107.625 40.1814 108.091 36.4934 109.367ZM111.616 127.988C113.053 127.724 114.4 125.978 115.841 122.511C118.624 115.814 121.381 115.916 125.006 122.851C126.476 125.663 128.33 127.786 129.506 128.004C141.484 130.229 142.375 131.552 136.186 137.933L132.176 142.068L133.068 147.555C133.764 151.834 133.654 153.349 132.567 154.436C131.375 155.627 130.402 155.384 125.855 152.759L120.538 149.689L115.182 152.753C110.294 155.55 109.688 155.679 108.242 154.233C106.916 152.906 106.82 151.749 107.656 147.139L108.654 141.63L104.792 137.859C98.5194 131.733 99.5784 130.2 111.616 127.988ZM80.0064 141.068C80.0064 140.872 80.7134 140.004 81.5774 139.139C82.4424 138.275 84.6604 137.568 86.5064 137.568C89.2654 137.568 93.0064 139.582 93.0064 141.068C93.0064 142.554 89.2654 144.568 86.5064 144.568C83.7474 144.568 80.0064 142.554 80.0064 141.068ZM86.5064 153.568C81.5234 153.568 78.9914 151.496 81.0064 149.068C81.7564 148.165 83.9444 147.568 86.5064 147.568C91.4894 147.568 94.0214 149.64 92.0064 152.068C91.2564 152.971 89.0684 153.568 86.5064 153.568ZM86.5064 162.568C81.5234 162.568 78.9914 160.496 81.0064 158.068C81.7564 157.165 83.9444 156.568 86.5064 156.568C91.4894 156.568 94.0214 158.64 92.0064 161.068C91.2564 161.971 89.0684 162.568 86.5064 162.568Z" fill="#26A6FE"/>
<path d="M118.568 131.448C117.278 133.943 116.322 134.568 113.793 134.568H110.632L113.373 137.429C115.488 139.637 115.966 140.881 115.464 142.878C114.832 145.399 114.894 145.437 117.84 144.325C120.148 143.454 121.502 143.473 123.552 144.407C126.158 145.594 126.219 145.551 125.568 142.961C125.042 140.865 125.488 139.674 127.639 137.429L130.38 134.568H127.178C124.666 134.568 123.568 133.897 122.079 131.448L120.182 128.328L118.568 131.448Z" fill="#FFD700"/>
</svg>
