<svg width="174" height="175" viewBox="0 0 174 175" fill="none" xmlns="http://www.w3.org/2000/svg">
<path d="M59.0064 47.162C59.0064 52.914 58.7514 53.822 57.0064 54.278C54.2854 54.99 54.2284 61.073 56.9214 63.408C57.9744 64.321 59.5714 67.69 60.4714 70.895C62.4914 78.09 68.3864 84.879 75.5064 88.21C91.1784 95.54 110.304 85.486 113.545 68.214C113.935 66.133 115.099 63.903 116.13 63.258C118.44 61.816 118.843 54.568 116.613 54.568C114.688 54.568 114.006 52.324 114.006 45.986V40.568H86.5064H59.0064V47.162Z" fill="#FFF0CE"/>
<path d="M68.5 99C67.5 103.5 66.5154 100.568 66.5154 100.568C70.4404 105.721 85 132.347 87.1804 132.347C88.1604 133.161 94.85 124.098 100.275 116.5C106.506 107.518 108.5 112.5 104 99C103 94.5 101.452 85.842 99.9128 86.5C96.8378 87.813 88.2978 89.966 86.1628 89.966C84.0278 89.966 75.4878 87.813 72.4128 86.5C70.8878 85.848 69.5 94.943 68.5 99Z" fill="#FFF0CE"/>
<path fill-rule="evenodd" clip-rule="evenodd" d="M66.5064 14.492C56.0564 18.802 47.6064 22.72 47.7294 23.198C47.8524 23.677 49.5484 26.206 51.4994 28.818L54.9034 38H86.3384H117.773L121.915 28.322C124.115 25.437 125.598 22.796 125.21 22.452C124.229 21.583 87.3624 6.55802 86.3384 6.61102C85.8814 6.63502 76.9564 10.181 66.5064 14.492ZM90.4564 29.153C80.4774 33.323 72.2854 21.135 79.9294 13.491C83.2504 10.171 87.3814 9.67602 91.9724 12.051C98.6534 15.505 97.7124 26.122 90.4564 29.153Z" fill="#26A6FE"/>
<path fill-rule="evenodd" clip-rule="evenodd" d="M36.4934 102.367C29.1404 104.909 22.9344 108.837 18.2614 113.907C14.4014 118.094 9.00641 127.205 9.00641 129.535C9.00641 129.535 8.5 133.5 8 139.5C7.5 144 7.00641 153.568 7.00641 153.568V157.068V160.568H86.5064H166.006V157.068V153.568L166 153.5C166 153.5 165.5 144 165.5 142.5C165.5 141.006 164.5 130.5 164.006 129.458C164.006 128.847 162.596 125.703 160.874 122.471C156.833 114.89 149.68 108.256 141.229 104.253C134.801 101.208 133.892 101.056 120.506 100.793L106.506 100.518L97.9904 112.793C92.5904 120.575 88.7474 125.17 87.4904 125.347C85.9864 125.558 83.2084 122.593 76.0114 113.097L66.5154 100.568L54.0114 100.601C44.8104 100.625 40.1814 101.091 36.4934 102.367ZM111.616 120.988C113.053 120.724 114.4 118.978 115.841 115.511C118.624 108.814 121.381 108.916 125.006 115.851C126.476 118.663 128.33 120.786 129.506 121.004C141.484 123.229 142.375 124.552 136.186 130.933L132.176 135.068L133.068 140.555C133.764 144.834 133.654 146.349 132.567 147.436C131.375 148.627 130.402 148.384 125.855 145.759L123.381 144.331L120.538 142.689L117.37 144.502L115.182 145.753C110.294 148.55 109.688 148.679 108.242 147.233C106.916 145.906 106.82 144.749 107.656 140.139L108.654 134.63L104.792 130.859C98.5194 124.733 99.5784 123.2 111.616 120.988ZM80.0064 134.068C80.0064 133.872 80.7134 133.004 81.5774 132.139C82.4424 131.275 84.6604 130.568 86.5064 130.568C89.2654 130.568 93.0064 132.582 93.0064 134.068C93.0064 135.554 89.2654 137.568 86.5064 137.568C83.7474 137.568 80.0064 135.554 80.0064 134.068ZM86.5064 146.568C81.5234 146.568 78.9914 144.496 81.0064 142.068C81.7564 141.165 83.9444 140.568 86.5064 140.568C91.4894 140.568 94.0214 142.64 92.0064 145.068C91.2564 145.971 89.0684 146.568 86.5064 146.568ZM86.5064 155.568C81.5234 155.568 78.9914 153.496 81.0064 151.068C81.7564 150.165 83.9444 149.568 86.5064 149.568C91.4894 149.568 94.0214 151.64 92.0064 154.068C91.2564 154.971 89.0684 155.568 86.5064 155.568Z" fill="#26A6FE"/>
<path fill-rule="evenodd" clip-rule="evenodd" d="M90.4564 29.153C80.4774 33.323 72.2854 21.135 79.9294 13.491C83.2504 10.171 87.3814 9.67602 91.9724 12.051C98.6534 15.505 97.7124 26.122 90.4564 29.153ZM87.1014 23.068C83.9474 23.068 82.1604 20.292 83.9364 18.152C85.5744 16.178 87.3984 16.13 88.9664 18.02C90.8494 20.289 89.8224 23.068 87.1014 23.068ZM111.616 120.988C113.053 120.724 114.4 118.978 115.841 115.511C118.624 108.814 121.381 108.916 125.006 115.851C126.476 118.663 128.33 120.786 129.506 121.004C141.484 123.229 142.375 124.552 136.186 130.933L132.176 135.068L133.068 140.555C133.764 144.834 133.654 146.349 132.567 147.436C131.375 148.627 130.402 148.384 125.855 145.759L123.381 144.331L120.538 142.689L117.37 144.502L115.182 145.753C110.294 148.55 109.688 148.679 108.242 147.233C106.916 145.906 106.82 144.749 107.656 140.139L108.654 134.63L104.792 130.859C98.5194 124.733 99.5784 123.2 111.616 120.988ZM113.793 134.568C116.322 134.568 117.278 133.943 118.568 131.448L120.182 128.328L122.079 131.448C123.568 133.897 124.666 134.568 127.178 134.568H130.38L127.639 137.429C125.488 139.674 125.042 140.865 125.568 142.961C126.219 145.551 126.158 145.594 123.552 144.407C123.522 144.393 123.492 144.38 123.462 144.366L123.456 144.364C123.431 144.352 123.406 144.341 123.381 144.331C121.426 143.473 120.084 143.478 117.84 144.325C117.675 144.388 117.518 144.447 117.37 144.502C117.353 144.508 117.337 144.514 117.321 144.52C114.889 145.423 114.872 145.241 115.464 142.878C115.966 140.881 115.488 139.637 113.373 137.429L110.632 134.568H113.793ZM80.0064 134.068C80.0064 133.872 80.7134 133.004 81.5774 132.139C82.4424 131.275 84.6604 130.568 86.5064 130.568C89.2654 130.568 93.0064 132.582 93.0064 134.068C93.0064 135.554 89.2654 137.568 86.5064 137.568C83.7474 137.568 80.0064 135.554 80.0064 134.068ZM86.5064 146.568C81.5234 146.568 78.9914 144.496 81.0064 142.068C81.7564 141.165 83.9444 140.568 86.5064 140.568C91.4894 140.568 94.0214 142.64 92.0064 145.068C91.2564 145.971 89.0684 146.568 86.5064 146.568ZM86.5064 155.568C81.5234 155.568 78.9914 153.496 81.0064 151.068C81.7564 150.165 83.9444 149.568 86.5064 149.568C91.4894 149.568 94.0214 151.64 92.0064 154.068C91.2564 154.971 89.0684 155.568 86.5064 155.568Z" fill="#FFD700"/>
<path fill-rule="evenodd" clip-rule="evenodd" d="M123.456 144.364C123.431 144.352 123.406 144.341 123.381 144.331L120.538 142.689L117.37 144.502C117.353 144.508 117.337 144.514 117.321 144.52C117.483 144.46 117.656 144.395 117.84 144.325C120.112 143.468 121.46 143.473 123.456 144.364Z" fill="#FFD700"/>
<path d="M118.568 131.448C117.278 133.943 116.322 134.568 113.793 134.568H110.632L113.373 137.429C115.488 139.637 115.966 140.881 115.464 142.878C114.872 145.241 114.889 145.423 117.321 144.52L117.37 144.502L120.538 142.689L123.381 144.331C123.406 144.341 123.431 144.352 123.456 144.364L123.462 144.366C123.492 144.38 123.522 144.393 123.552 144.407C126.158 145.594 126.219 145.551 125.568 142.961C125.042 140.865 125.488 139.674 127.639 137.429L130.38 134.568H127.178C124.666 134.568 123.568 133.897 122.079 131.448L120.182 128.328L118.568 131.448Z" fill="#FFD700"/>
</svg>
