<svg width="512" height="512" viewBox="0 0 512 512" fill="none" xmlns="http://www.w3.org/2000/svg">
<path fill-rule="evenodd" clip-rule="evenodd" d="M494.549 1.24999C494.336 1.93799 493.469 5.73699 492.621 9.69299C489.917 22.322 479.185 41.513 467.315 54.946C459.188 64.143 441.159 78.786 427.5 87.286C412.452 96.649 383.814 111.57 366.5 119.067C359.9 121.925 354.321 124.421 354.101 124.613C353.882 124.806 354.522 128.684 355.523 133.232C357.964 144.322 357.996 162.315 355.589 170.448C351.552 184.089 343.533 195.183 333.848 200.526C328.988 203.207 327.633 203.477 319 203.488C310.62 203.499 308.903 203.185 304.437 200.828C298.724 197.813 293.074 192.026 290.043 186.085C287.142 180.398 287.182 168.322 290.121 162.25C293.659 154.941 302.941 150.506 309.49 152.996C313.057 154.352 313.964 155.615 313.985 159.25C314.005 162.874 315.162 162.719 318.771 158.608C324 152.652 325.222 141.307 321.433 133.898C319.122 129.381 313.502 125.273 308.024 124.099C305.201 123.493 301.228 121.861 299.195 120.472C289.8 114.052 269.14 111.645 255.137 115.338C229.997 121.969 206.824 146.779 198.93 175.513C197.723 179.906 195.97 188.225 195.034 194L193.333 204.5L189.207 204.315C175.715 203.709 161.501 188.155 156.515 168.54C154.475 160.513 154.488 140.258 156.538 132.968C157.384 129.961 158.171 126.882 158.288 126.128C158.426 125.235 150.988 121.382 137 115.1C109.233 102.63 90.2949 92.742 76.1719 83.342C63.7969 75.105 48.0009 60.67 38.9479 49.324C29.4839 37.463 20.9309 20.114 17.9599 6.74999C17.2569 3.58699 16.2749 0.999988 15.7769 0.999988C14.1129 0.999988 6.0789 19.517 3.8199 28.56C1.9739 35.949 1.5789 40.362 1.5429 54C1.4929 73.048 2.4179 76.494 11.0129 89.304C26.5799 112.504 59.0579 134.361 109.424 155.531C117.082 158.75 122.764 161.579 122.049 161.817C119.648 162.617 102.61 159.83 89.4999 156.492C57.8979 148.446 31.2669 135.143 9.6389 116.598C4.7659 112.419 0.536899 109 0.242899 109C-0.695101 109 1.0039 131.229 2.4769 138.246C8.0319 164.701 30.0139 181.706 72.4999 192.412C83.5769 195.204 142.775 204.491 152.927 205.03C153.242 205.047 152.6 205.605 151.5 206.269C148.709 207.955 102.906 208.515 85.2659 207.078C67.2509 205.61 55.8389 203.669 37.2289 198.907C19.7779 194.442 17.7719 194.209 18.7059 196.75C20.2659 200.996 29.8699 214.013 35.4899 219.5C46.1819 229.938 59.1779 235.974 78.9999 239.71C87.1299 241.242 93.6719 241.479 124.363 241.351C144.088 241.269 162.763 240.939 165.863 240.617L171.5 240.032L167.328 241.942C151.667 249.112 117.575 253.971 82.8089 253.989C71.4289 253.995 61.8699 254.402 61.5669 254.892C60.9069 255.96 72.0259 266.546 78.4499 270.966C85.7169 275.965 96.9549 280.887 105.035 282.609C120.105 285.82 142.453 283.293 181.249 273.992C185.787 272.904 190.4 272.025 191.5 272.039L193.5 272.064L191.5 273.615C188.071 276.275 163.876 287.599 155.917 290.268C151.746 291.667 142.296 294.019 134.917 295.496C127.538 296.972 121.122 298.54 120.66 298.98C120.198 299.42 121.998 300.483 124.66 301.342C138.542 305.824 159.041 306.62 173.02 303.219C182.79 300.843 197.181 295.767 200.717 293.45C202.04 292.583 203.6 292.033 204.183 292.228C205.684 292.728 188.189 308.984 177.75 316.788C172.938 320.386 169 323.468 169 323.636C169 323.804 171.411 325.082 174.358 326.476C180.246 329.262 190.842 337.006 195.437 341.883C197.052 343.597 198.913 345 199.572 345C200.23 345 204.923 339.6 210 333C222.211 317.125 223.07 317.062 215.988 332.559C208.974 347.909 198.601 361.918 187.701 370.762C180.954 376.236 163.209 385.365 156.677 386.722C149.223 388.27 152.453 390.806 165.208 393.42C169.447 394.289 175.155 395 177.892 395C182.573 395 194.378 392.946 198.25 391.458C201.557 390.188 199.988 392.645 193.183 399.389C185.072 407.429 175.493 414.292 169.119 416.627C166.579 417.558 163.959 418.811 163.298 419.41C161.406 421.127 153.032 447.374 154.044 448.417C156.033 450.467 169.68 441.903 183.987 429.628C187.004 427.039 189.618 425.355 189.795 425.886C190.781 428.843 180.143 444.779 170.317 455.063L162.944 462.781L169.222 468.282C178.33 476.262 193.155 487.111 194.416 486.72C195.793 486.293 204.709 469.427 215.279 447.255C219.801 437.77 223.646 430.447 223.825 430.981C224.309 432.424 219.439 458.327 215.403 475.782C213.459 484.187 212.011 492.062 212.185 493.282C212.435 495.044 215.87 497.216 228.884 503.842C241.351 510.189 245.462 511.87 246.078 510.874C246.523 510.153 247.176 506.625 247.528 503.032C248.985 488.166 255.081 437.364 255.611 435.675C255.925 434.671 256.345 434.011 256.543 434.21C256.741 434.408 257.834 443.779 258.971 455.035C261.085 475.943 264.592 504.707 265.521 508.75C266.274 512.027 268.332 511.574 279.5 505.672C292.17 498.977 297.948 495.298 298.644 493.485C298.946 492.699 297.158 482.48 294.67 470.778C292.183 459.075 289.864 446.8 289.518 443.5C288.928 437.885 288.99 437.628 290.487 439.5C291.367 440.6 295.499 448.025 299.669 456C308.659 473.192 315.951 486 316.748 486C317.509 486 330.657 476.143 339.798 468.72L347.095 462.794L342.116 457.529C335.089 450.099 318.816 424.842 320.183 423.486C320.357 423.313 322.975 425.41 326 428.146C337.917 438.923 355.684 450.982 357.286 449.381C358.032 448.635 351.161 422.928 349.568 420.5C348.845 419.4 345.998 417.712 343.239 416.749C340.481 415.785 335.586 413.233 332.362 411.077C326.253 406.992 309.313 391.353 310.122 390.545C310.377 390.29 313.419 390.963 316.882 392.04C320.592 393.195 326.035 394 330.131 394C340.264 394 360.254 389.76 358.342 388.016C357.879 387.594 353.675 386.004 349 384.484C333.805 379.542 329.55 376.84 316.971 364.14C305.836 352.898 305.216 352.038 298.818 339C295.174 331.575 291.904 324.375 291.551 323C290.961 320.704 291.166 320.786 294.068 324C297.337 327.62 307.645 341.276 309.624 344.607C310.664 346.357 311.194 346.08 316.624 340.962C323.995 334.014 327.666 331.413 336.412 326.946C340.239 324.991 343.51 322.966 343.681 322.446C343.852 321.926 341.109 320.009 337.585 318.187C328.31 313.391 304.556 293.111 306.24 291.427C306.572 291.095 311.025 292.706 316.135 295.007C333.793 302.958 351.433 305.878 370.478 304.002C383.266 302.743 391.172 301.031 391.704 299.408C391.924 298.735 386.958 297.316 378.781 295.714C371.476 294.283 361.225 291.724 356 290.026C345.34 286.563 313.858 271.664 316.221 271.201C317.06 271.037 324.673 272.477 333.14 274.402C372.347 283.317 394.089 285.729 407.243 282.624C419.285 279.781 431.602 272.45 443.888 260.813L449.497 255.5L425.999 254.879C403.572 254.286 392.455 253.127 373.5 249.405C363.591 247.459 342.009 242.104 340.36 241.182C339.689 240.807 360.596 240.5 386.82 240.5C440.868 240.5 439.923 240.61 456.898 232.372C464.722 228.575 467.754 226.361 474.995 219.156C483.72 210.473 494.4 196.456 493.455 194.927C493.177 194.478 490.824 194.783 488.225 195.605C462.514 203.739 431.316 208.059 398.213 208.07C377.75 208.077 364.467 207.281 362 205.9C360.826 205.243 360.8 205.054 361.877 205.03C365.438 204.952 417.183 196.565 430.5 193.908C478.536 184.324 501.428 168.105 509.065 138.244C510.129 134.084 511 128.979 511 126.899C511 124.819 511.45 122.84 512 122.5C512.55 122.16 512.964 118.646 512.921 114.691C512.878 110.736 512.614 108.065 512.336 108.756C512.057 109.447 511.462 109.786 511.014 109.509C510.565 109.231 506.666 111.962 502.349 115.576C478.869 135.233 452.423 147.971 415.112 157.595C407.748 159.495 398.298 161.291 394.112 161.587L386.5 162.125L403.5 155.217C439.28 140.677 467.713 123.996 487.22 106.101C503.232 91.413 512 72.729 512 53.298C512 39.487 507 19.637 500.275 6.74999C496.836 0.159988 495.335 -1.28201 494.549 1.24999ZM0.335899 116C0.335899 120.125 0.512899 121.813 0.727899 119.75C0.943899 117.688 0.943899 114.313 0.727899 112.25C0.512899 110.188 0.335899 111.875 0.335899 116ZM249.837 132.02C231.886 141.289 215.748 166.039 210.403 192.5C207.431 207.211 207.387 249.676 210.344 248.737C210.98 248.535 216.191 240.658 221.924 231.233C227.657 221.808 232.652 214.285 233.024 214.515C233.395 214.744 233.956 218.894 234.27 223.737C235.143 237.208 241.275 258.661 248.148 272.288C252.637 281.189 253.403 279.264 252.597 261.102C252.216 252.521 251.638 244.429 251.311 243.12C250.947 241.658 251.124 240.886 251.77 241.12C252.349 241.329 258.875 248.7 266.273 257.5C285.41 280.263 286.606 281.065 283.757 269.228C281.589 260.224 276.104 247.364 270.033 237.053C267.298 232.408 265.2 228.466 265.372 228.295C265.543 228.123 269.692 229.841 274.592 232.113C285.493 237.167 304.274 244.485 308.934 245.495C311.905 246.139 310.621 244.756 299.434 235.258C277.541 216.668 269.688 207.21 262.87 191.22C259.897 184.249 259.574 182.53 259.539 173.5C259.492 161.372 261.503 154.388 267.711 145.13C270.07 141.613 272 138.482 272 138.172C272 137.863 270.795 136.352 269.323 134.815C267.85 133.278 266.909 131.758 267.23 131.436C267.552 131.115 270.009 131.631 272.691 132.584C276.978 134.107 277.918 134.146 280.46 132.908C282.051 132.134 283.536 130.938 283.759 130.25C284.073 129.288 280.867 129.011 269.833 129.048C255.994 129.095 255.305 129.197 249.837 132.02ZM134.809 332.019C128.929 333.597 122.739 335.601 121.055 336.472C111.647 341.337 108.129 359.718 114.518 370.621C117.704 376.058 129 385.352 129 382.537C129 382.282 128.1 379.791 127 377C124.627 370.98 124.483 367.174 126.449 362.468C128.282 358.08 129.541 358.08 130.989 362.465C133.181 369.108 147 382.023 147 377.43C147 376.538 146.284 373.345 145.409 370.335C143.621 364.186 144.126 360.595 147.248 357.25C149.706 354.617 153.813 354.335 158.02 356.51C161.88 358.506 163 360.837 163 366.875C163 369.629 163.472 372.173 164.048 372.53C165.431 373.385 171.208 367.189 173.468 362.427C174.452 360.352 175.462 355.919 175.711 352.577C176.119 347.108 175.862 346.03 173.134 341.797C169.709 336.482 164.922 333.616 157.712 332.564C155.078 332.18 151.38 331.221 149.494 330.433C147.608 329.645 145.937 329.034 145.782 329.075C145.627 329.117 140.689 330.441 134.809 332.019ZM355.5 332.07C341.805 334.168 335.412 341.011 336.289 352.636C336.804 359.471 340.311 367.008 345.119 371.614C348.194 374.56 348.326 374.387 348.025 367.818C347.725 361.254 352.393 355 357.593 355C365.219 355 367.074 358.16 366.277 369.795C365.967 374.308 366.012 378 366.377 378C367.72 378 374.58 373.14 377.157 370.363C378.618 368.789 380.508 365.813 381.356 363.75C384.046 357.208 386.015 359.372 385.978 368.832C385.965 372.318 385.188 376.193 383.96 378.899C382.863 381.318 382.126 383.459 382.323 383.656C383.058 384.392 390.739 378.116 393.678 374.378C398.67 368.026 400.2 364.18 400.2 357.977C400.2 351.827 397.457 344.18 393.889 340.382C392.782 339.203 388.641 336.731 384.688 334.887C378.634 332.065 376.238 331.505 369.5 331.343C365.1 331.238 358.8 331.565 355.5 332.07Z" fill="black"/>
</svg>
