<svg width="28" height="20" viewBox="0 0 28 20" fill="none" xmlns="http://www.w3.org/2000/svg">
<path d="M1.128 18.84C0.968 18.84 0.776 18.76 0.552 18.6C0.344 18.456 0.24 18.312 0.24 18.168C0.24 15.416 0.432 12.928 0.816 10.704C1.024 9.504 1.256 8.376 1.512 7.32C1.768 6.248 2.072 5.256 2.424 4.344L2.856 3.192C2.92 3.016 3.032 2.928 3.192 2.928C3.496 2.928 3.648 3.056 3.648 3.312C3.648 3.424 3.56 3.696 3.384 4.128C3.208 4.544 2.976 5.2 2.688 6.096C1.584 9.472 1.032 13.336 1.032 17.688C1.352 17.432 1.776 17.016 2.304 16.44C2.832 15.864 3.44 15.12 4.128 14.208C4.736 13.424 5.392 12.592 6.096 11.712C6.816 10.816 7.56 9.92 8.328 9.024C9.096 8.112 9.856 7.24 10.608 6.408C11.376 5.56 12.104 4.792 12.792 4.104C15.288 1.624 17.104 0.383999 18.24 0.383999C18.368 0.383999 18.488 0.408 18.6 0.456C18.728 0.487999 18.792 0.599999 18.792 0.792C18.792 1.048 18.672 1.176 18.432 1.176C18.368 1.176 18.312 1.168 18.264 1.152C18.216 1.136 18.16 1.128 18.096 1.128C17.248 1.128 15.608 2.344 13.176 4.776C12.344 5.608 11.592 6.4 10.92 7.152C10.248 7.888 9.584 8.648 8.928 9.432C8.288 10.216 7.6 11.088 6.864 12.048C6.128 12.992 5.272 14.088 4.296 15.336C3.512 16.328 2.84 17.16 2.28 17.832C1.72 18.504 1.336 18.84 1.128 18.84ZM17.0179 19.032C15.9939 19.032 15.0259 18.864 14.1139 18.528C13.2179 18.192 12.4899 17.712 11.9299 17.088C11.3699 16.464 11.0899 15.728 11.0899 14.88C11.0899 14.608 11.1379 14.32 11.2339 14.016C11.3619 13.6 11.5059 13.392 11.6659 13.392C11.9059 13.392 12.0259 13.528 12.0259 13.8C12.0259 13.912 11.9939 14.064 11.9299 14.256C11.8659 14.448 11.8339 14.632 11.8339 14.808C11.8339 15.512 12.0739 16.128 12.5539 16.656C13.0339 17.168 13.6499 17.56 14.4019 17.832C15.1699 18.104 15.9699 18.24 16.8019 18.24C18.6099 18.24 20.1459 17.808 21.4099 16.944C22.0659 16.496 22.6099 15.96 23.0419 15.336C23.4739 14.696 23.6899 14.016 23.6899 13.296C23.6899 12.64 23.5219 12.096 23.1859 11.664C22.8659 11.232 22.4179 10.864 21.8419 10.56C21.2659 10.24 20.6019 9.952 19.8499 9.696C17.7059 8.944 16.6339 8.032 16.6339 6.96C16.6339 6.384 16.8499 5.832 17.2819 5.304C17.7139 4.776 18.2419 4.312 18.8659 3.912C19.4899 3.496 20.0899 3.184 20.6659 2.976C21.5139 2.656 22.2979 2.44 23.0179 2.328C23.7539 2.2 24.4339 2.136 25.0579 2.136C25.9059 2.136 26.5059 2.336 26.8579 2.736C27.2099 3.12 27.3859 3.6 27.3859 4.176C27.3859 4.624 27.2739 5.056 27.0499 5.472C26.8419 5.888 26.5539 6.248 26.1859 6.552C25.7699 6.904 25.4339 7.08 25.1779 7.08C24.9059 7.08 24.7699 6.952 24.7699 6.696C24.7699 6.552 24.8419 6.448 24.9859 6.384C26.0579 5.84 26.5939 5.096 26.5939 4.152C26.5939 3.736 26.4739 3.432 26.2339 3.24C26.0099 3.032 25.6179 2.928 25.0579 2.928C24.5459 2.928 23.9699 2.984 23.3299 3.096C22.7059 3.208 22.0659 3.376 21.4099 3.6C20.8339 3.808 20.2499 4.088 19.6579 4.44C19.0659 4.792 18.5699 5.176 18.1699 5.592C17.7859 6.008 17.5939 6.424 17.5939 6.84C17.5939 7.72 18.4419 8.424 20.1379 8.952C23.0659 9.88 24.5299 11.304 24.5299 13.224C24.5299 13.8 24.3939 14.368 24.1219 14.928C23.8659 15.488 23.5219 16 23.0899 16.464C22.6739 16.928 22.2259 17.328 21.7459 17.664C21.0579 18.144 20.3059 18.488 19.4899 18.696C18.6899 18.92 17.8659 19.032 17.0179 19.032Z" fill="black"/>
</svg>
