<svg width="385" height="385" viewBox="0 0 385 385" fill="none" xmlns="http://www.w3.org/2000/svg">
<circle cx="192.5" cy="192.5" r="192.5" fill="#FF695A"/>
<path d="M82.5 171.5V304.5H303V105L181 61V127L82.5 171.5Z" fill="#FAFAFA"/>
<path fill-rule="evenodd" clip-rule="evenodd" d="M178.557 57.223C177.229 59.118 177 64.013 177 90.514V121.582L127.404 143.541C87.312 161.292 77.635 165.944 76.904 167.815C76.397 169.115 76 200.051 76 238.343C76 298.462 76.185 306.819 77.557 308.777L79.113 311H192.5H305.887L307.443 308.777C308.827 306.802 309 295.334 309 205.388C309 110.506 308.891 104.091 307.25 102.121C306.069 100.703 285.755 92.705 244.745 77.51C211.33 65.13 183.118 55 182.052 55C180.986 55 179.413 56 178.557 57.223ZM188 124.845C188 178.646 187.902 181.779 186.171 183.345C185.165 184.255 183.421 185 182.294 185C177.899 185 177.528 183.065 177 157.403L176.5 133.109L132 152.886L87.5 172.664L87.241 221.832L86.981 271H94.991H103V253.723C103 239.703 103.294 236.026 104.557 234.223C106.097 232.023 106.383 232 132 232C157.617 232 157.903 232.023 159.443 234.223C160.706 236.026 161 239.703 161 253.723V271H169H177V247.5C177 225.333 177.113 223.887 179 222C180.1 220.9 181.675 220 182.5 220C183.325 220 184.9 220.9 186 222C187.931 223.931 188 225.333 188 262.5V301H193H198V285.655C198 272.059 198.208 270.121 199.829 268.655C202.375 266.35 205.6 266.591 207.443 269.223C208.682 270.991 209 274.466 209 286.223V301H214.5H220V274.2C220 254.689 220.326 247.074 221.2 246.2C222.897 244.503 263.103 244.503 264.8 246.2C265.674 247.074 266 254.689 266 274.2V301H271.5H277V286.223C277 270.066 277.877 267 282.5 267C287.123 267 288 270.066 288 286.223V301H293H298V204.669V108.337L243.61 88.169C213.695 77.076 188.945 68 188.61 68C188.274 68 188 93.58 188 124.845ZM199.557 104.223C198.242 106.1 198 110.605 198 133.223C198 158.667 198.1 160.1 200 162C201.826 163.826 203.333 164 217.345 164C230.941 164 232.879 163.792 234.345 162.171C235.787 160.578 236 157.296 236 136.694C236 109.013 237.788 112.489 220.255 106.098C207.278 101.369 201.897 100.881 199.557 104.223ZM209 133.525V154H217.5H226V136.5C226 126.875 225.806 119 225.568 119C225.331 119 221.506 117.661 217.068 116.025L209 113.05V133.525ZM252.219 120.559C250.057 122.074 250 122.609 250 141.485C250 157.763 250.251 161.108 251.571 162.429C252.864 163.721 255.879 164 268.571 164C288.844 164 288 164.754 288 146.655C288 134.722 287.795 133.124 286.062 131.556C284.996 130.591 278.359 127.661 271.312 125.045C253.993 118.614 254.744 118.79 252.219 120.559ZM260 142.893V154H268.5H277V146.116V138.232L270.25 135.705C266.537 134.316 262.713 132.865 261.75 132.482C260.147 131.844 260 132.716 260 142.893ZM122 173.616C113.475 177.204 105.682 181.095 104.682 182.264C103.063 184.156 102.9 186.069 103.182 199.777C103.469 213.647 103.692 215.305 105.441 216.583C106.993 217.716 112.362 218 132.191 218C155.667 218 157.107 217.893 159 216C160.875 214.125 161 212.667 161 192.723C161 165.698 161.666 166.983 147.693 167.046L137.5 167.092L122 173.616ZM127.25 182.71L114 188.321V198.16V208H132H150V192.5V177L145.25 177.05C141.8 177.086 136.875 178.635 127.25 182.71ZM199.655 178.829C198.221 180.414 198 183.588 198 202.638C198 220.026 198.296 225.023 199.417 226.559C200.692 228.305 202.354 228.532 215.981 228.823C228.549 229.091 231.543 228.874 233.564 227.55L236 225.954V202.677C236 185.906 235.665 179.065 234.8 178.2C233.966 177.366 228.679 177 217.455 177C203.084 177 201.128 177.201 199.655 178.829ZM251.2 178.2C250.335 179.065 250 185.906 250 202.677V225.954L252.436 227.55C254.457 228.874 257.451 229.091 270.019 228.823C283.646 228.532 285.308 228.305 286.583 226.559C288.76 223.577 288.639 182.357 286.443 179.223C284.943 177.081 284.295 177 268.643 177C257.343 177 252.035 177.365 251.2 178.2ZM209 202.5V218H217.5H226V202.5V187H217.5H209V202.5ZM260 202.5V218H268.5H277V202.5V187H268.5H260V202.5ZM178.408 200.5C176.891 202.816 176.891 203.184 178.408 205.5C179.419 207.042 180.986 208 182.5 208C184.014 208 185.581 207.042 186.592 205.5C188.109 203.184 188.109 202.816 186.592 200.5C185.581 198.958 184.014 198 182.5 198C180.986 198 179.419 198.958 178.408 200.5ZM114 256.5V271H132H150V256.5V242H132H114V256.5ZM230 278V301H243H256V278V255H243H230V278ZM87 291.5V301H132H177V291.5V282H132H87V291.5Z" fill="black"/>
</svg>
