<svg width="512" height="467" viewBox="0 0 512 467" fill="none" xmlns="http://www.w3.org/2000/svg">
<path d="M158.5 40L193.5 13H497V454H127V71.5L158.5 40Z" fill="#EBE1DC"/>
<path d="M26.3235 371.897L78.1169 371.897L53.005 417.225L26.3235 371.897Z" fill="#FFD571"/>
<path fill-rule="evenodd" clip-rule="evenodd" d="M255.023 59.193C256.132 57.375 258.493 55.255 260.27 54.483C262.962 53.312 278.459 53.072 353.282 53.039C357.115 53.0373 360.793 53.0353 364.324 53.0334C439.378 52.9928 447.385 52.9885 450.524 56.8955C450.899 57.3622 451.205 57.8845 451.546 58.4693C451.681 58.6997 451.822 58.9398 451.974 59.19C453.876 62.309 453.993 64.173 453.993 91.5C453.993 118.827 453.876 120.691 451.974 123.81C451.823 124.058 451.683 124.296 451.55 124.525L451.549 124.526C451.206 125.112 450.9 125.635 450.525 126.102C447.384 130.009 439.381 130.009 364.452 130.001C360.95 130 357.301 130 353.5 130C349.699 130 346.05 130 342.548 130.001C267.619 130.009 259.616 130.009 256.475 126.102C256.1 125.635 255.794 125.112 255.451 124.526C255.317 124.297 255.177 124.058 255.026 123.81C253.124 120.691 253.007 118.827 253.007 91.5C253.007 64.184 253.125 62.308 255.023 59.193ZM175.249 170.763C175.78 165.23 178.665 161.463 183.445 160.059C185.192 159.546 241.925 159.234 316 159.331C420.878 159.468 445.938 159.75 447.804 160.814C450.978 162.624 453.992 167.875 453.996 171.602C454.001 175.918 450.136 181.257 445.965 182.694C441.398 184.267 189.44 184.528 183.814 182.965C181.787 182.402 178.926 180.513 177.457 178.766C175.16 176.036 174.85 174.913 175.249 170.763ZM176.494 230.989C173.303 224.818 175.156 218.705 181.367 214.918C184.408 213.063 188.28 213.007 313.782 213.004C321.297 213.004 328.392 213.003 335.092 213.001C439.275 212.984 447.821 212.982 450.715 217.025C450.973 217.387 451.186 217.78 451.419 218.209C451.586 218.518 451.763 218.844 451.974 219.19C454.362 223.105 454.509 225.847 452.579 230.466C452.399 230.898 452.266 231.301 452.143 231.678C451.979 232.178 451.83 232.631 451.605 233.042C449.416 237.026 439.972 237.024 339.001 237.003C331.157 237.002 322.76 237 313.772 237C304.101 237 295.124 237.002 286.791 237.004C188.167 237.027 179.758 237.029 177.553 233.331C177.348 232.987 177.196 232.61 177.03 232.198C176.88 231.825 176.718 231.422 176.494 230.989ZM176.517 285.033C173.347 278.903 175.574 271.456 181.449 268.545C184.132 267.216 200.317 267.062 315.731 267.267L446.962 267.5L450.231 270.769C453.061 273.6 453.5 274.717 453.5 279.096C453.5 283.659 453.135 284.488 449.765 287.577L446.029 291H314.965C306.825 291 299.173 291.001 291.979 291.002C188.496 291.019 179.928 291.02 177.547 287.183C177.332 286.836 177.167 286.459 176.988 286.047C176.85 285.73 176.703 285.392 176.517 285.033ZM176.706 339.08C173.398 333.48 175.359 325.497 180.763 322.565C183.143 321.274 200.561 321.075 314.346 321.04C435.925 321.003 445.396 321.121 448.08 322.706C453.915 326.153 455.62 335.447 451.295 340.226C451.102 340.439 450.929 340.643 450.764 340.837C450.54 341.101 450.33 341.348 450.104 341.58C446.755 345.009 439.894 345.009 331.408 345.001C328.606 345.001 325.736 345 322.797 345C320.075 345 317.293 345 314.451 345C306.825 345 299.631 345.001 292.845 345.002H292.803C188.838 345.017 180.528 345.018 177.853 341.136C177.621 340.799 177.431 340.432 177.224 340.034C177.069 339.734 176.905 339.417 176.706 339.08ZM182.636 397.621C173.741 393.905 172.379 382.05 180.217 376.561C182.208 375.166 196.385 375 313.772 375C321.949 375 329.634 374.999 336.857 374.998H336.858C440.503 374.981 449.075 374.98 451.454 378.818C451.669 379.164 451.833 379.541 452.012 379.952C452.15 380.27 452.297 380.608 452.483 380.967C455.681 387.152 452.895 394.892 446.51 397.56C441.462 399.669 187.678 399.728 182.636 397.621Z" fill="black"/>
<rect x="23" y="115" width="58" height="246" fill="#26A6FE"/>
<path d="M27.2115 80.2056C34.1289 71.7018 69.9669 72.1644 76.6977 80.2056C80.3981 84.6263 80.0629 102.686 79.9251 107.048C79.9082 107.583 79.4692 108 78.9344 108L24.9992 108C24.4547 108 24.0112 107.568 24.0064 107.023C23.9674 102.559 24.0053 84.147 27.2115 80.2056Z" fill="#FF7F87"/>
<rect x="277" y="77" width="155" height="28" fill="#B4AAAA"/>
<path d="M187 41V69H151L187 41Z" fill="#B4AAAA"/>
</svg>
