<svg width="246" height="245" viewBox="0 0 246 245" fill="none" xmlns="http://www.w3.org/2000/svg">
<path d="M32.5 9V47.5V51.5L44 43L88.5 42L93.5 37.5L96 13L88.5 4H39.5L32.5 9Z" fill="#D2D1CF" stroke="black"/>
<path d="M206.5 9V47.5V51.5L195 43L150.5 42L145.5 37.5L143 13L150.5 4H199.5L206.5 9Z" fill="#D2D1CF" stroke="black"/>
<path d="M111.626 64.256C93.1002 72.801 96.5232 98.969 116.738 103.329C127.947 105.747 140.098 94.844 140.12 82.348C140.129 77.424 135.398 69.11 130.887 66.125C126.101 62.958 116.467 62.023 111.626 64.256Z" fill="#599ECB"/>
<path d="M111.126 108.448C100.238 111.466 91.2132 119.735 87.5862 130.017C86.4382 133.269 86.1262 140.205 86.1262 162.472V190.79L88.5392 193.596L90.9532 196.402H119.517H148.081L150.853 193.631L153.626 190.86L153.926 166.376C154.244 140.388 153.563 133.512 149.923 125.967C143.294 112.226 125.874 104.36 111.126 108.448Z" fill="#599ECB"/>
<path fill-rule="evenodd" clip-rule="evenodd" d="M30.1252 10.845C31.2882 6.66001 35.6502 2.16101 39.7302 0.940011C41.3232 0.464011 52.3012 0.0450148 64.1262 0.0100148C88.5642 -0.0629852 91.9872 0.705013 95.9712 7.15201C97.8562 10.201 98.1262 12.104 98.1262 22.32C98.1262 34.89 97.4112 37.442 92.6432 41.902C89.9912 44.382 89.7912 44.406 67.2322 44.902L44.4932 45.402L39.5602 49.482C29.2422 58.015 29.1242 57.836 29.1322 33.53C29.1352 23.009 29.5822 12.801 30.1252 10.845ZM141.13 22.886C141.125 8.99502 142.442 5.60601 149.2 2.11601C153.491 -0.0999863 154.332 -0.160986 176.805 0.116014C198.412 0.383014 200.172 0.542013 202.744 2.46401C209.417 7.45101 209.595 8.13501 209.953 30.099C210.291 50.862 209.948 54.916 207.857 54.882C207.18 54.871 203.761 52.621 200.258 49.882L193.891 44.902L172.758 44.898C153.436 44.895 151.347 44.724 148.367 42.907C142.36 39.245 141.134 35.854 141.13 22.886ZM35.3522 28.971C35.0522 10.201 35.4192 8.57201 40.4552 6.32301C42.9372 5.21501 48.3672 4.96101 65.4602 5.15501L87.2942 5.40201L90.2102 8.66801C93.0592 11.858 93.1262 12.188 93.1262 22.995C93.1262 33.887 93.0812 34.101 90.2032 36.979L87.2802 39.902H65.3402H43.4012L39.5142 42.993L35.6262 46.084L35.3522 28.971ZM148.578 9.14101C150.017 7.43101 152.191 5.83901 153.41 5.60301C154.629 5.36701 164.528 5.11301 175.408 5.03801C205.125 4.83401 205.126 4.83402 205.126 30.37C205.126 38.913 204.788 45.889 204.376 45.874C203.964 45.859 201.858 44.509 199.698 42.874L195.77 39.902H174.004C152.443 39.902 152.211 39.879 149.432 37.491C146.707 35.149 146.616 34.751 146.294 23.665C145.972 12.585 146.039 12.158 148.578 9.14101ZM14.1262 82.797C14.1262 74.681 18.6912 67.722 26.1332 64.495C39.3122 58.78 54.1262 68.517 54.1262 82.894C54.1262 94.735 45.7742 103.225 34.1262 103.225C27.8502 103.225 24.0242 101.535 19.4372 96.737C15.4362 92.552 14.1262 89.114 14.1262 82.797Z" fill="#D2D1CF"/>
<path d="M22.0462 115.194C11.4372 119.655 4.66817 126.971 1.60417 137.288C-0.351831 143.876 -0.604832 234.203 1.32117 238.43C3.80717 243.888 3.95017 243.902 56.1262 243.902C108.302 243.902 108.445 243.888 110.931 238.43C111.588 236.988 112.126 232.194 112.126 227.778C112.126 220.236 111.948 219.57 109.203 216.825L106.28 213.902H88.8582C73.4402 213.902 71.2512 213.698 69.8292 212.126C68.4282 210.578 68.1842 205.739 67.9242 174.376L67.6262 138.402L64.9782 132.754C59.4032 120.863 48.4812 113.691 35.1262 113.151C29.0462 112.905 26.5692 113.292 22.0462 115.194Z" fill="#E17577"/>
<circle cx="20" cy="20" r="20" transform="matrix(-1 0 0 1 54 63)" fill="#E17577"/>
<path d="M107 224V229V234C107 234.5 106 235.5 105.5 236C105.1 236.4 102 237.167 100.5 237.5L93 238.5H61L10 237.5C8.83334 237.333 6.4 236.9 6 236.5C5.6 236.1 5.5 235 5.5 234.5L5 218.5V190.5V156C5.33334 151 6.1 140.5 6.5 138.5C7 136 10 132 12 129C14 126 20.5 121.5 23 120.5C25.5 119.5 33.5 118.5 35.5 118.5C37.1 118.5 41.8333 119.5 44 120C47 121 53.5 126.5 55.5 128.5C57.5 130.5 60.8333 136.333 62 139.5C62.6667 163.833 63.5 212.6 63.5 213C63.5 213.5 64.5 215 65.5 216C66.3 216.8 68.8333 218 70 218.5C80.3333 218.667 101.2 219.1 102 219.5C103 220 104.5 220.5 105.5 221C106.3 221.4 106.833 223.167 107 224Z" fill="#E17577"/>
<path d="M204.5 118.941C195.794 121.24 188.599 127.31 184.801 135.561C182.565 140.419 182.486 141.607 182 177.399L181.5 214.238L178.694 216.649C175.962 218.998 175.435 219.061 158.516 219.061H158.422C145.523 219.061 140.771 219.061 139.021 221.353C138 222.69 138 224.806 138 228.157V228.198C138 229.097 137.965 229.915 137.934 230.659C137.854 232.557 137.794 233.973 138.381 235.028C140.108 238.131 147.43 238.119 176.271 238.074C180.119 238.068 184.349 238.061 189 238.061C237.07 238.061 237.949 238.025 239.011 236.041C239.754 234.652 240 219.411 239.796 187.291C239.502 140.943 239.481 140.52 237.199 135.561C234.294 129.249 229.822 124.558 223.754 121.457C218.621 118.833 209.447 117.635 204.5 118.941Z" fill="#FFD571"/>
<path d="M204.036 70.3109C190.28 77.3649 195.474 98.0609 211 98.0609C226.676 98.0609 231.592 76.8829 217.5 70.0609C212.187 67.4889 209.439 67.5399 204.036 70.3109Z" fill="#FFD571"/>
<path fill-rule="evenodd" clip-rule="evenodd" d="M203.007 64.6539C195.527 67.8979 191 74.8348 191 83.0528C191 94.8938 199.352 103.384 211 103.384C217.276 103.384 221.102 101.694 225.689 96.8959C229.69 92.7109 231 89.2728 231 82.9558C231 68.6778 216.137 58.9599 203.007 64.6539ZM211 98.0609C195.474 98.0609 190.28 77.3649 204.036 70.3109C209.439 67.5399 212.187 67.4889 217.5 70.0609C231.592 76.8829 226.676 98.0609 211 98.0609Z" fill="#FFD571"/>
<path fill-rule="evenodd" clip-rule="evenodd" d="M200.844 114.405C190.69 118.17 184.147 124.159 179.729 133.731C177.575 138.399 177.49 139.767 177.202 174.535C176.942 205.898 176.698 210.737 175.297 212.285C173.875 213.857 171.686 214.061 156.268 214.061H138.846L135.923 216.984C133.178 219.729 133 220.395 133 227.937C133 237.111 134.224 240.609 138.145 242.636C142.275 244.772 235.775 244.746 239.909 242.608C245.034 239.958 245.096 239.247 244.787 187.015L244.5 138.561L241.852 132.913C236.269 121.005 225.334 113.832 212 113.331C207.46 113.16 203.057 113.584 200.844 114.405ZM184.801 135.561C188.599 127.31 195.794 121.24 204.5 118.941C209.447 117.635 218.621 118.833 223.754 121.457C229.822 124.558 234.294 129.249 237.199 135.561C239.481 140.52 239.502 140.943 239.796 187.291C240 219.411 239.754 234.652 239.011 236.041C237.949 238.025 237.07 238.061 189 238.061C184.349 238.061 180.119 238.068 176.271 238.074C147.43 238.119 140.108 238.131 138.381 235.028C137.794 233.973 137.854 232.557 137.934 230.659C137.965 229.915 138 229.097 138 228.198V228.157C138 224.806 138 222.69 139.021 221.353C140.771 219.061 145.523 219.061 158.422 219.061H158.516C175.435 219.061 175.962 218.998 178.694 216.649L181.5 214.238L182 177.399C182.486 141.607 182.565 140.419 184.801 135.561Z" fill="#FFD571"/>
</svg>
