<svg width="383" height="481" viewBox="0 0 383 481" fill="none" xmlns="http://www.w3.org/2000/svg">
<path d="M382.874 398H0.383987C0.383987 398 -0.479978 455.822 0.383978 459.327C0.930392 461.544 2.56448 467.451 5.84812 469.672C6.9409 470.41 202.011 469.672 202.011 469.672H373.038C375.77 469.672 377.873 470.579 380.142 465.977C382.41 461.376 382.327 462.283 382.874 457.849C383.158 455.545 382.874 398 382.874 398Z" fill="#E17577"/>
<ellipse cx="88.5" cy="70" rx="44.5" ry="40" fill="white"/>
<path d="M7 32C7 18.7452 17.7452 8 31 8H353C366.255 8 377 18.7452 377 32V128H7V32Z" fill="#26A6FE"/>
<path fill-rule="evenodd" clip-rule="evenodd" d="M40.039 76.317C36.689 52.661 52.79 29.317 76.5 23.453C114.931 13.947 148.027 54.868 130.913 90.729C117.113 119.643 79.204 127.117 55.311 105.635C46.505 97.718 41.787 88.661 40.039 76.317ZM152.431 44.626C151.79 42.073 154.142 36.555 156.229 35.715C156.928 35.434 182.959 35.168 214.076 35.125L270.651 35.046L272.979 37.523C276.167 40.917 275.961 45.823 272.504 48.796L269.888 51.046H213.633C158.503 51.046 157.334 51.005 155.201 49.018C154.004 47.903 152.757 45.927 152.431 44.626ZM56.227 72.046C55.329 56.121 64.29 43.763 79.929 39.358C93.28 35.598 109.472 43.076 116.06 56.046C119.106 62.044 119.937 74.868 117.635 80.376L116.045 84.183L111.473 80.365C107.826 77.319 107.052 76.141 107.649 74.546C108.06 73.446 108.42 69.362 108.448 65.47C108.493 59.389 108.117 57.815 105.772 54.275C96.581 40.396 76.429 41.367 68.706 56.061C66.245 60.743 65.896 62.351 66.32 67.046C66.593 70.071 67.105 73.446 67.458 74.546C67.953 76.089 67.069 77.406 63.592 80.31L59.085 84.074L57.868 81.81C57.198 80.565 56.46 76.171 56.227 72.046ZM85.703 71.258C82.897 70.524 81.428 66.597 82.818 63.546C84.335 60.216 90.344 59.951 92.05 63.139C94.446 67.616 90.597 72.538 85.703 71.258ZM152.386 71.336C151.867 68.65 152.262 67.63 154.806 65.086L157.846 62.046H249.489C317.244 62.046 341.701 62.349 343.316 63.209C348.531 65.987 349.541 71.596 345.545 75.591L343.091 78.046H250.156C163.117 78.046 157.088 77.935 155.114 76.296C153.955 75.333 152.727 73.102 152.386 71.336ZM72.09 94.398C73.416 92.959 76.3 90.951 78.5 89.936C84.334 87.244 91.526 87.507 97.821 90.644C100.688 92.073 103.501 94.113 104.07 95.177C104.975 96.868 104.563 97.347 100.803 98.98C92.278 102.682 82.856 102.52 73.249 98.506L69.681 97.015L72.09 94.398ZM154.413 102.74C151.185 98.987 151.348 95.544 154.923 91.969L157.846 89.046H220.973C274.42 89.046 284.533 89.27 286.928 90.509C291.833 93.045 292.564 99.228 288.419 103.122L285.839 105.546H221.333H156.827L154.413 102.74ZM38.635 447.973C35.223 445.29 35.003 439.736 38.174 436.36C40.173 434.233 41.177 434.046 50.602 434.046C60.487 434.046 60.929 434.14 62.927 436.681C65.733 440.247 65.582 444.555 62.545 447.591C60.287 449.85 59.338 450.046 50.68 450.046C42.674 450.046 40.877 449.737 38.635 447.973ZM74.635 447.973C71.223 445.29 71.003 439.736 74.174 436.36C76.173 434.233 77.177 434.046 86.602 434.046C96.487 434.046 96.929 434.14 98.927 436.681C101.733 440.247 101.582 444.555 98.545 447.591C96.287 449.85 95.338 450.046 86.68 450.046C78.674 450.046 76.877 449.737 74.635 447.973ZM110.635 447.973C107.223 445.29 107.003 439.736 110.174 436.36C112.166 434.24 113.188 434.046 122.36 434.046C131.262 434.046 132.627 434.287 134.686 436.22C137.857 439.199 137.793 444.344 134.545 447.591C132.287 449.85 131.338 450.046 122.68 450.046C114.674 450.046 112.877 449.737 110.635 447.973ZM248.386 440.756C248.727 438.99 249.955 436.758 251.114 435.796C253.055 434.184 256.915 434.046 299.922 434.046C345.538 434.046 346.674 434.093 348.811 436.085C352.265 439.303 352.079 444.477 348.389 447.796L345.888 450.046H299.867H253.846L250.806 447.006C248.262 444.462 247.867 443.442 248.386 440.756Z" fill="black"/>
<rect x="18" y="140" width="348" height="258" fill="#F4F4F4"/>
<path fill-rule="evenodd" clip-rule="evenodd" d="M181.531 191.281C181.299 191.438 178.387 198.671 175.058 207.352L169.006 223.137L172.755 223.38C179.431 223.813 183.823 225.796 193.821 232.893C204.397 240.4 209.6 242.801 215.594 242.942L218.612 243.014L217.74 245.547C217.261 246.94 214.289 255.271 211.137 264.06C207.985 272.849 205.234 280.522 205.023 281.111C204.743 281.895 204.377 282.183 203.66 282.183C203.028 282.183 202.177 282.715 201.266 283.678C196.059 289.184 194.848 290.3 193.177 291.136C188.96 293.245 184.245 292.233 181.817 288.7C178.922 284.485 175.551 282.676 171.311 283.061C168.444 283.321 166.402 284.369 164.292 286.661C160.971 290.269 160.267 293.979 161.678 300.429C163.33 307.982 161.694 315.73 156.068 327.004C153.273 332.603 151.235 338.03 149.848 343.568C148.657 348.324 148.066 352.336 148.557 352.339C148.732 352.339 151.636 352.516 155.009 352.732C161.431 353.142 167.024 354.059 171.438 355.424C174.875 356.487 176.798 356.447 181.532 355.209C185.127 354.269 194.411 350.883 195.745 350.026C196.209 349.727 195.88 348.787 193.867 344.667C192.524 341.919 190.914 338.835 190.289 337.813C189.663 336.792 189.151 335.736 189.151 335.466C189.151 335.197 190.817 330.349 192.853 324.694C194.888 319.038 196.492 314.349 196.416 314.273C196.34 314.196 195.485 314.429 194.516 314.788L192.756 315.442L189.916 323.464C188.354 327.876 186.961 331.621 186.821 331.787C186.568 332.084 184.571 329.852 182.367 326.809C181.746 325.951 180.304 324.09 179.163 322.673C176.915 319.881 176.874 319.724 177.531 316.504L177.973 314.337L175.293 311.609C171.395 307.642 168.661 301.897 167.376 294.974C166.791 291.821 167.224 290.101 168.972 288.627C171.204 286.746 175.228 287.565 176.432 290.146C176.739 290.803 177.364 292.921 177.82 294.85C178.869 299.291 180.554 302.753 182.541 304.551C183.396 305.325 184.256 305.957 184.453 305.957C184.869 305.957 185.489 304.112 185.842 301.82L186.089 300.217L189.603 300.016C192.694 299.839 193.488 299.631 196.193 298.284C197.885 297.442 199.269 296.893 199.269 297.064C199.269 297.235 198.919 298.297 198.491 299.425C198.063 300.553 197.713 301.652 197.713 301.867C197.712 302.083 198.338 302.455 199.103 302.695C200.713 303.2 200.294 303.887 202.999 296.302C204.158 293.053 205.222 290.833 206.318 289.38C207.797 287.418 207.913 287.092 207.727 285.441C207.544 283.812 208.839 279.967 221.276 245.204C228.839 224.064 234.906 206.654 234.757 206.516C234.607 206.378 233.935 206.149 233.263 206.007C232.059 205.754 232.026 205.787 231.106 208.207C230.243 210.477 230.073 210.674 228.885 210.79C224.854 211.182 217.06 208.244 211.137 204.1C197.322 194.434 193.675 192.415 188.204 191.408C185.569 190.923 182.154 190.858 181.531 191.281ZM260.265 220.482C259.891 220.58 259.58 220.691 259.573 220.729C259.568 220.767 258.982 224.364 258.272 228.722L256.982 236.645L259.159 236.402C261.868 236.099 265.043 236.922 271.258 239.539C275.329 241.254 276.005 241.422 278.749 241.411C280.658 241.403 281.757 241.551 281.743 241.816C281.73 242.046 280.977 246.794 280.067 252.368L278.414 262.501L268.251 265.081C258.946 267.443 257.944 267.779 256.377 269.065C252.632 272.139 247.428 273.459 242.894 272.485C241.21 272.123 240.244 272.159 237.657 272.68C233.593 273.498 231.606 274.443 229.071 276.764C226.577 279.047 225.025 281.9 223.415 287.159C220.44 296.878 219.55 304.407 220.27 313.752C220.94 322.444 222.484 326.35 226.135 328.593C227.777 329.602 228.173 330.494 228.869 334.752C229.38 337.875 229.317 340.912 228.67 344.296C227.014 352.965 221.651 360.014 211.732 366.558C206.608 369.938 205.47 371.217 204.968 374.163C204.293 378.126 207.124 382.147 211.235 383.065C213.59 383.59 215.628 383.016 219.286 380.797C232.291 372.905 240.806 362.149 243.97 349.621C244.421 347.831 244.851 346.307 244.924 346.234C245.149 346.008 248.209 352.773 249.094 355.455C250.545 359.846 251.376 364.424 251.819 370.46C252.337 377.518 252.648 378.836 254.212 380.62C257.188 384.015 261.722 384.36 265.236 381.459C268.122 379.076 268.648 376.048 267.733 367.091C266.726 357.244 264.26 348.673 260.125 340.645C256.698 333.991 253.208 329.219 247.915 323.946L243.444 319.493L243.296 315.172L243.149 310.851L241.222 308.697C231.854 298.221 228.017 282.317 233.982 278.684C236.066 277.414 237.955 277.309 240.021 278.347C242.719 279.702 243.371 280.842 243.672 284.725C243.907 287.745 245.376 293.096 245.972 293.096C246.331 293.096 247.529 285.935 247.631 283.18L247.716 280.865L261.141 277.501C268.525 275.651 275.061 274.011 275.667 273.858C276.605 273.62 276.739 273.682 276.571 274.276C276.462 274.659 276.256 275.73 276.112 276.657L275.85 278.341L277.154 278.216C278.434 278.093 278.464 278.047 278.846 275.62C279.199 273.383 279.349 273.102 280.436 272.646C283.876 271.201 284.714 266.878 282.067 264.228L280.842 263.001L284.025 243.32C285.776 232.495 287.111 223.482 286.993 223.29C286.874 223.099 286.353 222.942 285.835 222.942C285.153 222.942 284.825 223.212 284.647 223.92C284.145 225.925 279.456 225.755 274.153 223.538C267.536 220.772 265.729 220.228 263.281 220.267C261.997 220.287 260.64 220.384 260.265 220.482ZM130.05 241.613C129.588 241.906 128.529 246.404 128.468 248.336C128.455 248.72 129.292 249.458 130.539 250.163C132.906 251.501 134.711 253.498 135.878 256.07C136.316 257.035 136.793 258.055 136.938 258.338C137.342 259.122 143.104 261.536 146.048 262.154C147.898 262.542 149.138 262.597 150.273 262.342C151.871 261.982 151.878 261.986 151.679 263.02C151.569 263.592 151.177 266.046 150.808 268.473C150.216 272.365 150.034 272.926 149.268 273.218C148.79 273.4 147.437 274.921 146.26 276.599C143.469 280.579 140.702 283.121 137.554 284.596C135.263 285.67 134.725 285.771 132.197 285.609C128.556 285.375 124.901 283.51 121.188 279.992C117.54 276.535 116.086 275.824 112.652 275.82C109.267 275.817 107.025 276.789 104.77 279.24C102.496 281.711 101.511 283.896 101.292 286.957C101.188 288.404 101.218 289.588 101.357 289.588C101.497 289.588 102.761 288.367 104.167 286.874C105.572 285.382 107.525 283.628 108.507 282.977C111.877 280.741 115.657 281.72 116.778 285.12C117.563 287.502 116.989 288.616 112.898 292.661C105.501 299.976 104.202 306.299 107.632 318.29C108.293 320.602 108.291 320.734 107.583 322.162C106.56 324.225 105.026 325.25 102.959 325.25C100.586 325.25 99.2773 324.16 98.1247 321.225C97.606 319.905 97.0892 318.917 96.976 319.03C96.8631 319.143 94.9906 324.36 92.815 330.622L88.8591 342.009L90.4429 342.494C95.8635 344.155 110.744 344.901 117.162 343.833C121.586 343.097 128.291 341.434 128.939 340.913C129.43 340.518 128.572 338.718 123.147 328.758C119.402 321.88 116.778 316.632 116.777 316.013C116.772 314.653 118.16 307.45 118.921 304.885C119.424 303.186 119.679 302.861 120.68 302.641C123.473 302.027 125.702 298.762 126.018 294.826L126.209 292.441L128.398 292.957C134.482 294.392 140.515 292.878 145.755 288.604C147.626 287.077 147.897 286.956 147.719 287.724C147.459 288.852 145.958 298.405 145.958 298.935C145.958 299.154 146.48 299.332 147.118 299.332C148.483 299.332 148.27 300.036 149.806 290.467C150.887 283.732 151.02 283.256 152.346 281.448C155.07 277.731 155.308 275.898 153.337 273.791C152.607 273.01 152.63 272.789 154.919 258.631C156.197 250.729 157.243 244.191 157.243 244.101C157.243 244.012 156.673 243.994 155.978 244.061C155.015 244.154 154.684 244.389 154.591 245.047C154.32 246.957 149.301 246.725 144.134 244.564C137.553 241.812 135.759 241.276 133.117 241.274C131.725 241.273 130.346 241.425 130.05 241.613ZM242.435 243.327C238.513 244.441 235.308 247.144 233.234 251.087C232.248 252.962 232.15 253.515 232.15 257.239C232.15 260.99 232.245 261.52 233.289 263.584C234.693 266.361 237.493 269.041 240.432 270.421C242.329 271.311 243.174 271.465 246.159 271.465C250.767 271.465 253.585 270.248 256.645 266.938C259.371 263.989 260.468 261.206 260.468 257.239C260.468 251.656 257.462 246.852 252.411 244.361C249.521 242.937 245.336 242.502 242.435 243.327ZM121.338 249.48C117.272 250.12 113.586 252.953 111.751 256.85C110.403 259.714 110.329 264.304 111.588 267.052C112.712 269.505 115.341 272.283 117.73 273.544C119.454 274.454 120.139 274.579 123.388 274.579C126.638 274.579 127.322 274.454 129.046 273.544C134.481 270.676 137.331 264.352 135.709 258.763C133.843 252.334 127.84 248.457 121.338 249.48ZM174.505 254.537C170.305 255.1 166.181 258.455 164.649 262.556C162.329 268.768 165.117 275.788 171.057 278.688C173.878 280.065 178.05 280.21 181.162 279.039C184.304 277.858 187.165 274.993 188.351 271.843C189.605 268.513 189.373 264.12 187.791 261.209C185.139 256.329 180.084 253.791 174.505 254.537ZM235.653 279.212C235.011 279.506 234.048 280.22 233.512 280.8C232.669 281.715 232.522 282.286 232.404 285.091C231.969 295.495 239.663 307.768 252.866 317.729C257.439 321.179 258.96 321.697 261.11 320.534C262.827 319.605 264.254 317.516 264.252 315.936C264.25 314.009 263.036 312.503 259.094 309.535C248.568 301.612 242.493 292.428 242.468 284.405C242.462 282.249 241.737 280.614 240.399 279.736C239.011 278.825 236.99 278.602 235.653 279.212ZM109.38 283.793C107.335 285.035 102.744 289.917 101.264 292.422C99.4921 295.423 98.1593 298.831 97.4468 302.186C96.2888 307.638 97.3768 317.555 99.6135 321.935C100.079 322.846 100.787 323.479 101.754 323.848C103.034 324.336 103.353 324.325 104.559 323.748C105.432 323.332 106.123 322.614 106.484 321.748C107.004 320.502 106.968 320.134 106.028 316.978C104.677 312.442 104.349 306.425 105.257 302.835C106.515 297.865 109.425 293.39 113.209 290.608C115.585 288.861 116.251 287.453 115.613 285.52C115.362 284.758 114.781 283.871 114.322 283.548C113.138 282.718 110.973 282.825 109.38 283.793ZM169.987 289.23C169.612 289.448 169.028 290.164 168.69 290.82C168.165 291.837 168.14 292.397 168.521 294.601C169.121 298.069 170.621 302.461 172.3 305.66C176.191 313.077 183.353 316.622 190.708 314.771C193.623 314.037 198.325 311.831 200.023 310.4C202.036 308.703 201.983 305.996 199.904 304.31C198.572 303.229 196.994 303.498 193.108 305.469C189.836 307.128 189.192 307.319 186.847 307.32C184.699 307.321 183.978 307.148 182.802 306.347C179.898 304.37 177.631 300.033 176.296 293.899C175.737 291.328 175.338 290.361 174.556 289.686C173.467 288.743 171.207 288.518 169.987 289.23ZM124.801 343.844C119.171 345.294 112.742 346.101 106.83 346.101H101.986V349.332C101.986 356.717 99.1252 362.633 91.7208 370.56C88.1913 374.339 87.754 375.208 88.0952 377.758C88.5073 380.836 91.1468 383.127 94.2805 383.127C95.3296 383.127 96.6604 382.882 97.2387 382.582C99.0571 381.64 105.754 374.379 108.03 370.883C112.415 364.145 114.368 358.531 114.714 351.671C114.971 346.579 114.517 346.606 119.609 351.386L122.955 354.527L124.37 366.781C125.148 373.52 125.948 379.673 126.147 380.454C126.61 382.269 129.092 384.552 130.991 384.909C134.149 385.503 137.85 383.104 138.418 380.095C138.851 377.803 135.584 350.22 134.672 348.467C134.273 347.702 132.841 346.104 131.489 344.915L129.031 342.755L124.801 343.844ZM188.373 353.908C183.727 355.775 182.755 356.301 182.866 356.887C182.941 357.279 183.595 359.667 184.321 362.194C185.047 364.722 186.197 369.72 186.878 373.302C188.069 379.571 188.167 379.867 189.523 381.238C192.684 384.436 197.436 383.885 199.576 380.072C200.639 378.178 200.647 377.032 199.637 371.405C198.244 363.635 194.956 351.491 194.276 351.599C194.133 351.622 191.477 352.661 188.373 353.908ZM153.93 357.679C151.653 361.906 148.298 366.854 145.258 370.469C141.493 374.947 140.973 376.663 142.418 379.851C143.747 382.782 147.282 384.158 150.41 382.962C152.474 382.172 156.485 377.557 160.935 370.85C164.871 364.918 169.015 356.983 168.464 356.431C168.296 356.263 160.671 354.904 157.579 354.492L155.775 354.251L153.93 357.679Z" fill="black"/>
</svg>
