<svg width="508" height="430" viewBox="0 0 508 430" fill="none" xmlns="http://www.w3.org/2000/svg">
<path fill-rule="evenodd" clip-rule="evenodd" d="M35.816 0.722173C19.572 3.12917 5.86696 15.7232 1.57996 32.1832C-0.206037 39.0402 -0.605037 75.7622 1.04296 81.6922C2.15996 85.7132 7.17496 91.0082 11.362 92.5872C13.129 93.2532 25.875 93.6482 45.597 93.6482H77.017L77.282 251.398C77.524 395.617 77.689 409.46 79.2 412.788C81.767 418.44 87.551 424.177 93.305 426.778L98.547 429.148H235.047H371.547L376.835 426.759C383.532 423.732 389.572 416.985 391.552 410.32C393.82 402.682 393.646 376.353 391.295 371.648C388.925 366.903 384.096 364.651 376.285 364.65L370.022 364.648L370.285 328.084L370.547 291.52L379.593 287.733C393.677 281.836 407.999 274.163 420.81 265.65C434.953 256.251 441.047 251.125 441.047 248.629C441.047 246.105 439.583 245.327 432.547 244.112L426.547 243.076L444.047 236.193C453.672 232.408 462.604 228.374 463.895 227.229C470.7 221.198 490.5 186.795 489.835 182.159C489.626 180.699 488.353 179.86 485.19 179.097L480.834 178.047L487.19 175.558C491.497 173.872 493.929 172.276 494.73 170.609C498.301 163.182 505.906 130.329 504.751 127.318C504.421 126.46 502.441 125.479 500.35 125.137C492.474 123.851 492.249 123.19 498.847 120.723C502.223 119.46 505.438 117.882 505.991 117.216C506.544 116.549 507.296 110.406 507.661 103.564C508.541 87.1072 508.534 87.1002 495.253 91.5932C483.254 95.6522 469.019 102.007 456.836 108.744C451.727 111.569 447.322 114.09 447.047 114.346C446.772 114.603 446.322 117.588 446.047 120.98L445.547 127.148L443.331 123.398C442.112 121.335 440.594 119.648 439.958 119.648C438.395 119.648 427.73 127.329 421.442 132.983L416.336 137.573L415.668 148.861C415.301 155.069 414.725 162.124 414.389 164.538L413.778 168.928L409.662 161.038C404.411 150.969 402.938 150.604 396.789 157.845C390.995 164.666 382.316 178.096 377.529 187.648C373.964 194.762 373.704 195.945 372.481 210.648C371.772 219.173 371.053 226.373 370.883 226.648C370.714 226.923 370.344 181.473 370.061 125.648L369.547 24.1482L367.165 18.8782C364.242 12.4092 355.963 4.57617 349.333 2.00417C344.752 0.227171 338.064 0.14217 193.047 0.0111699C109.722 -0.0648301 38.968 0.255173 35.816 0.722173ZM96.459 93.0172C96.17 93.7702 96.071 96.8042 96.24 99.7582C96.49 104.139 96.904 105.197 98.481 105.497C102.307 106.226 104.614 98.4442 102.012 93.5822C100.821 91.3562 97.236 90.9922 96.459 93.0172ZM96.482 115.956C96.206 116.676 96.108 122.633 96.264 129.194C96.522 140.073 96.717 141.157 98.481 141.495C101.935 142.157 103.047 138.967 103.047 128.391C103.047 122.96 102.581 117.646 102.012 116.582C100.838 114.388 97.24 113.981 96.482 115.956Z" fill="black" fill-opacity="0.071"/>
<path d="M359.047 285.648L360.547 257.648L366.547 228.148L371 226.5C371 226.5 373.877 198 375 194.5C376.764 189 396.5 152.778 403 153.5C406 153.833 414 169.5 414 169.5L417 137.5C417 137.5 438 120 440 120C442 120 445.5 127.5 445.5 127.5L447 114C447 114 502.77 85.7321 506 89.5C509 93 506.5 109.5 506.5 109.5L505.5 117C505.5 117 493.47 122.5 493.5 123C493.62 125 500.887 125.01 504.5 127.5C506 128.534 495 170.227 493.5 171.5C489.5 174.895 480.5 178 480.5 178C480.5 178 488.503 180.004 489.5 181.5C491.167 184 468.874 222.126 464 227C460 231 427 243 427 243C427 243 440.312 246 441 247.5C442.835 251.5 409.5 273 409.5 273L369.5 291.5L363 287.861L349.5 305.5H348L362.355 287.5L359.047 285.648Z" fill="#FFD571"/>
<path d="M362.355 287.5L359.047 285.648L360.547 257.648L366.547 228.148L371 226.5C371 226.5 373.877 198 375 194.5C376.764 189 396.5 152.778 403 153.5C406 153.833 414 169.5 414 169.5L417 137.5C417 137.5 438 120 440 120C442 120 445.5 127.5 445.5 127.5L447 114C447 114 502.77 85.7321 506 89.5C509 93 506.5 109.5 506.5 109.5L505.5 117C505.5 117 493.47 122.5 493.5 123C493.62 125 500.887 125.01 504.5 127.5C506 128.534 495 170.227 493.5 171.5C489.5 174.895 480.5 178 480.5 178C480.5 178 488.503 180.004 489.5 181.5C491.167 184 468.874 222.126 464 227C460 231 427 243 427 243C427 243 440.312 246 441 247.5C442.835 251.5 409.5 273 409.5 273L369.5 291.5L363 287.861M362.355 287.5L348 305.5H349.5L363 287.861M362.355 287.5L363 287.861" stroke="#FFD571"/>
<path fill-rule="evenodd" clip-rule="evenodd" d="M235.981 49.6132C234.086 48.5982 233.385 45.6432 234.723 44.3062C235.095 43.9342 257.926 43.7462 285.459 43.8892C334.047 44.1402 335.531 44.2052 335.892 46.0822C336.748 50.5272 335.412 50.6482 285.29 50.6482C254.546 50.6482 237.237 50.2852 235.981 49.6132ZM126.687 88.1532C126.37 87.3252 126.37 85.9712 126.687 85.1432C127.197 83.8152 139.46 83.6692 231.406 83.8932L335.547 84.1482V86.6482V89.1482L231.406 89.4032C139.46 89.6272 127.197 89.4812 126.687 88.1532ZM126.047 126.519C126.047 126.119 126.754 125.084 127.618 124.219C129.026 122.811 139.772 122.648 230.927 122.648C322.671 122.648 335.246 122.558 335.991 125.48C336.131 126.031 335.851 126.689 335.602 127.474L334.912 129.648H231.68C128.682 129.648 126.047 129.57 126.047 126.519ZM126.714 167.482C125.951 166.273 126.024 165.381 126.977 164.232C128.161 162.806 138.512 162.648 231.047 162.648C323.582 162.648 333.933 162.806 335.117 164.232C336.07 165.381 336.143 166.273 335.38 167.482C334.41 169.019 326.344 169.148 231.047 169.148C135.75 169.148 127.684 169.019 126.714 167.482ZM129.407 209.181C126.783 208.548 125.614 205.874 127.152 204.021C128.105 202.873 145.144 202.648 231.047 202.648C323.582 202.648 333.933 202.806 335.117 204.232C336.07 205.381 336.143 206.273 335.38 207.482C334.412 209.016 326.289 209.17 232.938 209.423C177.173 209.574 130.584 209.465 129.407 209.181ZM129.366 249.036C126.694 248.319 125.616 245.872 127.156 244.017C128.117 242.859 144.885 242.679 231.91 242.893C333.439 243.143 335.527 243.187 335.892 245.082C336.019 245.74 336.168 246.302 336.032 246.784C335.202 249.715 323.779 249.647 232.106 249.634C176.798 249.627 130.566 249.357 129.366 249.036ZM127.156 287.279C125.736 285.569 126.662 282.909 128.882 282.321C129.798 282.078 176.023 281.828 231.606 281.764C323.741 281.659 335.203 281.577 336.034 284.508C336.17 284.99 336.019 285.555 335.892 286.214C335.527 288.109 333.439 288.153 231.91 288.403C144.885 288.617 128.117 288.437 127.156 287.279ZM127.247 327.448C125.666 325.867 125.732 325.105 127.618 323.219C129.004 321.834 134.919 321.648 177.547 321.648C220.175 321.648 226.09 321.834 227.476 323.219C229.362 325.105 229.428 325.867 227.847 327.448C226.118 329.177 128.976 329.177 127.247 327.448Z" fill="black" fill-opacity="0.992"/>
</svg>
