<svg width="304" height="55" viewBox="0 0 304 55" fill="none" xmlns="http://www.w3.org/2000/svg">
<path d="M7.74 41.575C7.44 41.575 7.08 41.425 6.66 41.125C6.27 40.855 6.075 40.585 6.075 40.315C6.075 35.155 6.435 30.49 7.155 26.32C7.545 24.07 7.98 21.955 8.46 19.975C8.94 17.965 9.51 16.105 10.17 14.395L10.98 12.235C11.1 11.905 11.31 11.74 11.61 11.74C12.18 11.74 12.465 11.98 12.465 12.46C12.465 12.67 12.3 13.18 11.97 13.99C11.64 14.77 11.205 16 10.665 17.68C8.595 24.01 7.56 31.255 7.56 39.415C8.16 38.935 8.955 38.155 9.945 37.075C10.935 35.995 12.075 34.6 13.365 32.89C14.505 31.42 15.735 29.86 17.055 28.21C18.405 26.53 19.8 24.85 21.24 23.17C22.68 21.46 24.105 19.825 25.515 18.265C26.955 16.675 28.32 15.235 29.61 13.945C34.29 9.295 37.695 6.97 39.825 6.97C40.065 6.97 40.29 7.015 40.5 7.105C40.74 7.165 40.86 7.375 40.86 7.735C40.86 8.215 40.635 8.455 40.185 8.455C40.065 8.455 39.96 8.44 39.87 8.41C39.78 8.38 39.675 8.365 39.555 8.365C37.965 8.365 34.89 10.645 30.33 15.205C28.77 16.765 27.36 18.25 26.1 19.66C24.84 21.04 23.595 22.465 22.365 23.935C21.165 25.405 19.875 27.04 18.495 28.84C17.115 30.61 15.51 32.665 13.68 35.005C12.21 36.865 10.95 38.425 9.9 39.685C8.85 40.945 8.13 41.575 7.74 41.575ZM28.4973 40.45C26.7573 40.45 25.8873 39.625 25.8873 37.975C25.8873 36.895 26.1423 35.74 26.6523 34.51C27.1923 33.25 27.9123 32.035 28.8123 30.865C29.7123 29.665 30.7173 28.585 31.8273 27.625C32.9373 26.635 34.0773 25.855 35.2473 25.285C36.4173 24.685 37.5423 24.385 38.6223 24.385C40.5423 24.385 41.5023 25.33 41.5023 27.22C41.5023 28.45 41.2023 29.065 40.6023 29.065C40.0623 29.065 39.7923 28.81 39.7923 28.3C39.7923 28.09 39.8373 27.88 39.9273 27.67C40.0473 27.43 40.1073 27.175 40.1073 26.905C40.1073 26.065 39.5373 25.645 38.3973 25.645C36.5673 25.645 34.2723 27.04 31.5123 29.83C30.8523 30.52 30.2073 31.33 29.5773 32.26C28.9473 33.19 28.4223 34.135 28.0023 35.095C27.6123 36.025 27.4173 36.91 27.4173 37.75C27.4173 38.56 27.8673 38.965 28.7673 38.965C29.5473 38.965 30.3723 38.725 31.2423 38.245C32.1423 37.765 32.9223 37.27 33.5823 36.76C34.9023 35.77 36.2523 34.42 37.6323 32.71C37.8423 32.47 38.1123 32.155 38.4423 31.765C38.7723 31.375 39.1473 30.94 39.5673 30.46C39.7173 30.31 39.8973 30.235 40.1073 30.235C40.5873 30.235 40.8273 30.475 40.8273 30.955L39.1173 33.52C37.9773 35.2 37.4073 36.58 37.4073 37.66C37.4073 38.44 37.7823 38.83 38.5323 38.83C39.1623 38.83 39.8523 38.665 40.6023 38.335C41.3523 38.005 41.9673 37.675 42.4473 37.345C43.4073 36.715 44.4123 35.935 45.4623 35.005C46.5123 34.045 47.5173 33.085 48.4773 32.125C48.5973 32.005 48.7773 31.945 49.0173 31.945C49.4673 31.945 49.6923 32.125 49.6923 32.485C49.6923 32.815 49.4823 33.19 49.0623 33.61C47.8623 34.81 46.7823 35.845 45.8223 36.715C44.8623 37.555 43.9473 38.245 43.0773 38.785C42.5073 39.115 41.8023 39.46 40.9623 39.82C40.1223 40.18 39.1623 40.36 38.0823 40.36C36.6123 40.36 35.8773 39.58 35.8773 38.02C35.8773 37.42 35.9523 36.925 36.1023 36.535C33.3723 39.145 30.8373 40.45 28.4973 40.45ZM51.9019 41.215C50.5219 41.215 49.4569 40.795 48.7069 39.955C47.9869 39.085 47.6269 37.945 47.6269 36.535C47.6269 35.515 47.8069 34.285 48.1669 32.845C48.7969 30.415 49.8619 27.595 51.3619 24.385C52.5319 21.955 53.7919 19.57 55.1419 17.23C56.4919 14.86 57.9769 12.535 59.5969 10.255C62.1769 6.595 63.9769 4.765 64.9969 4.765C65.6569 4.765 65.9869 4.945 65.9869 5.305C65.9869 5.815 65.1469 7.09 63.4669 9.13L60.3169 12.955C57.5869 16.255 55.3519 19.63 53.6119 23.08C51.9019 26.53 50.5669 29.98 49.6069 33.43C49.3369 34.42 49.2019 35.35 49.2019 36.22C49.2019 38.5 50.1319 39.64 51.9919 39.64C52.6519 39.64 53.3269 39.445 54.0169 39.055C54.7069 38.695 55.0819 38.515 55.1419 38.515C55.5019 38.515 55.6819 38.77 55.6819 39.28C55.6819 39.73 55.5169 40.075 55.1869 40.315C54.1669 40.915 53.0719 41.215 51.9019 41.215ZM62.4393 40.81C61.1793 40.81 60.1893 40.375 59.4693 39.505C58.7493 38.635 58.3893 37.57 58.3893 36.31C58.3893 34.15 59.1093 31.93 60.5493 29.65C60.9393 29.02 61.3893 28.405 61.8993 27.805C62.4093 27.175 62.9643 26.575 63.5643 26.005C64.4643 25.135 65.4093 24.415 66.3993 23.845C67.3893 23.275 68.3493 22.99 69.2793 22.99C70.8093 22.99 71.5743 23.71 71.5743 25.15C71.5743 26.95 70.5243 28.585 68.4243 30.055C66.4743 31.375 64.5543 32.035 62.6643 32.035C62.3343 32.035 62.0343 32.02 61.7643 31.99C61.5243 31.93 61.2993 31.87 61.0893 31.81C60.7893 32.38 60.5193 33.115 60.2793 34.015C60.0393 34.915 59.9193 35.695 59.9193 36.355C59.9193 38.335 60.7893 39.325 62.5293 39.325C63.9393 39.325 65.2743 39.085 66.5343 38.605C67.7943 38.095 69.2943 37.15 71.0343 35.77C72.1143 34.93 72.9243 34.255 73.4643 33.745C74.0043 33.235 74.5893 32.695 75.2193 32.125C75.3993 32.005 75.5643 31.945 75.7143 31.945C75.8643 31.945 76.0143 31.99 76.1643 32.08C76.3143 32.17 76.3893 32.305 76.3893 32.485C76.3893 32.815 76.0893 33.28 75.4893 33.88C74.9793 34.36 74.4393 34.87 73.8693 35.41C73.2993 35.92 72.3993 36.64 71.1693 37.57C69.8493 38.59 68.4093 39.385 66.8493 39.955C65.2893 40.525 63.8193 40.81 62.4393 40.81ZM62.3943 30.595C63.3543 30.595 64.2693 30.445 65.1393 30.145C66.0093 29.845 66.8343 29.41 67.6143 28.84C69.3543 27.55 70.2243 26.335 70.2243 25.195C70.2243 24.685 69.9093 24.43 69.2793 24.43C68.0793 24.43 66.6843 25.165 65.0943 26.635C64.3143 27.355 63.6693 28.015 63.1593 28.615C62.6793 29.185 62.2293 29.815 61.8093 30.505C61.9893 30.565 62.1843 30.595 62.3943 30.595ZM72.1846 41.125C71.7046 41.125 71.4646 40.93 71.4646 40.54C71.4646 40.36 71.5096 40.18 71.5996 40C71.7196 39.82 71.8096 39.67 71.8696 39.55L75.9646 31.27C77.7046 27.73 78.5746 25.765 78.5746 25.375C78.5746 24.955 78.7846 24.745 79.2046 24.745C79.7746 24.745 80.0596 25.03 80.0596 25.6C80.0596 25.9 79.9246 26.38 79.6546 27.04C79.3846 27.7 79.0396 28.465 78.6196 29.335C77.8996 30.895 77.2996 32.095 76.8196 32.935C77.7196 31.885 78.6346 30.895 79.5646 29.965C80.4946 29.035 81.4396 28.15 82.3996 27.31C85.2496 24.82 87.4396 23.575 88.9696 23.575C90.0196 23.575 90.5446 24.07 90.5446 25.06C90.5446 26.02 90.2296 26.5 89.5996 26.5C89.2996 26.5 89.0746 26.245 88.9246 25.735C88.8346 25.375 88.6246 25.195 88.2946 25.195C87.7846 25.195 86.7946 25.75 85.3246 26.86C83.7046 28.06 82.0696 29.485 80.4196 31.135C78.7996 32.785 77.0746 34.885 75.2446 37.435L72.9946 40.585C72.8746 40.735 72.7546 40.855 72.6346 40.945C72.5446 41.065 72.3946 41.125 72.1846 41.125ZM97.8926 22.27C97.3826 22.27 97.1276 22.015 97.1276 21.505C97.1276 21.355 97.2326 21.085 97.4426 20.695C97.6526 20.275 97.8926 19.855 98.1626 19.435C98.4326 19.015 98.6426 18.73 98.7926 18.58C99.3026 18.01 99.6926 17.65 99.9626 17.5C100.263 17.35 100.533 17.275 100.773 17.275C101.403 17.275 101.718 17.56 101.718 18.13C101.718 18.34 101.583 18.595 101.313 18.895C101.073 19.165 100.788 19.42 100.458 19.66C99.9776 19.96 99.6776 20.2 99.5576 20.38L98.5676 21.775C98.5376 21.895 98.4626 22.015 98.3426 22.135C98.2526 22.225 98.1026 22.27 97.8926 22.27ZM90.2426 40.495C89.4026 40.495 88.7876 40.33 88.3976 40C88.0376 39.67 87.8576 39.175 87.8576 38.515C87.8576 37.885 88.0526 37.03 88.4426 35.95C88.8326 34.84 89.3276 33.655 89.9276 32.395C90.5576 31.135 91.2176 29.935 91.9076 28.795C92.5976 27.655 93.2576 26.725 93.8876 26.005C94.5476 25.255 95.0726 24.88 95.4626 24.88C96.0026 24.88 96.2726 25.12 96.2726 25.6C96.2726 25.9 96.0176 26.47 95.5076 27.31C94.9976 28.15 94.4426 29.02 93.8426 29.92C93.6026 30.25 93.2726 30.7 92.8526 31.27C92.4326 31.84 92.0276 32.38 91.6376 32.89C91.2476 33.37 90.9926 33.7 90.8726 33.88C90.5726 34.33 90.2576 35.065 89.9276 36.085C89.5676 37.105 89.3876 37.885 89.3876 38.425C89.3876 38.665 89.4326 38.845 89.5226 38.965C89.6426 39.085 89.8976 39.145 90.2876 39.145C91.0376 39.145 91.8776 38.905 92.8076 38.425C93.7376 37.945 94.6826 37.345 95.6426 36.625C96.6026 35.875 97.5026 35.11 98.3426 34.33C99.2126 33.55 99.9476 32.875 100.548 32.305C100.668 32.185 100.848 32.125 101.088 32.125C101.538 32.125 101.763 32.305 101.763 32.665C101.763 32.995 101.553 33.37 101.133 33.79C100.323 34.6 99.5726 35.32 98.8826 35.95C98.1926 36.58 97.5326 37.135 96.9026 37.615C95.9126 38.335 94.8176 38.995 93.6176 39.595C92.4176 40.195 91.2926 40.495 90.2426 40.495ZM108.879 22.27C108.369 22.27 108.114 22.015 108.114 21.505C108.114 21.355 108.219 21.085 108.429 20.695C108.639 20.275 108.879 19.855 109.149 19.435C109.419 19.015 109.629 18.73 109.779 18.58C110.289 18.01 110.679 17.65 110.949 17.5C111.249 17.35 111.519 17.275 111.759 17.275C112.389 17.275 112.704 17.56 112.704 18.13C112.704 18.34 112.569 18.595 112.299 18.895C112.059 19.165 111.774 19.42 111.444 19.66C110.964 19.96 110.664 20.2 110.544 20.38L109.554 21.775C109.524 21.895 109.449 22.015 109.329 22.135C109.239 22.225 109.089 22.27 108.879 22.27ZM101.229 40.495C100.389 40.495 99.7739 40.33 99.3839 40C99.0239 39.67 98.8439 39.175 98.8439 38.515C98.8439 37.885 99.0389 37.03 99.4289 35.95C99.8189 34.84 100.314 33.655 100.914 32.395C101.544 31.135 102.204 29.935 102.894 28.795C103.584 27.655 104.244 26.725 104.874 26.005C105.534 25.255 106.059 24.88 106.449 24.88C106.989 24.88 107.259 25.12 107.259 25.6C107.259 25.9 107.004 26.47 106.494 27.31C105.984 28.15 105.429 29.02 104.829 29.92C104.589 30.25 104.259 30.7 103.839 31.27C103.419 31.84 103.014 32.38 102.624 32.89C102.234 33.37 101.979 33.7 101.859 33.88C101.559 34.33 101.244 35.065 100.914 36.085C100.554 37.105 100.374 37.885 100.374 38.425C100.374 38.665 100.419 38.845 100.509 38.965C100.629 39.085 100.884 39.145 101.274 39.145C102.024 39.145 102.864 38.905 103.794 38.425C104.724 37.945 105.669 37.345 106.629 36.625C107.589 35.875 108.489 35.11 109.329 34.33C110.199 33.55 110.934 32.875 111.534 32.305C111.654 32.185 111.834 32.125 112.074 32.125C112.524 32.125 112.749 32.305 112.749 32.665C112.749 32.995 112.539 33.37 112.119 33.79C111.309 34.6 110.559 35.32 109.869 35.95C109.179 36.58 108.519 37.135 107.889 37.615C106.899 38.335 105.804 38.995 104.604 39.595C103.404 40.195 102.279 40.495 101.229 40.495ZM112.125 40.45C110.385 40.45 109.515 39.625 109.515 37.975C109.515 36.895 109.77 35.74 110.28 34.51C110.82 33.25 111.54 32.035 112.44 30.865C113.34 29.665 114.345 28.585 115.455 27.625C116.565 26.635 117.705 25.855 118.875 25.285C120.045 24.685 121.17 24.385 122.25 24.385C124.17 24.385 125.13 25.33 125.13 27.22C125.13 28.45 124.83 29.065 124.23 29.065C123.69 29.065 123.42 28.81 123.42 28.3C123.42 28.09 123.465 27.88 123.555 27.67C123.675 27.43 123.735 27.175 123.735 26.905C123.735 26.065 123.165 25.645 122.025 25.645C120.195 25.645 117.9 27.04 115.14 29.83C114.48 30.52 113.835 31.33 113.205 32.26C112.575 33.19 112.05 34.135 111.63 35.095C111.24 36.025 111.045 36.91 111.045 37.75C111.045 38.56 111.495 38.965 112.395 38.965C113.175 38.965 114 38.725 114.87 38.245C115.77 37.765 116.55 37.27 117.21 36.76C118.53 35.77 119.88 34.42 121.26 32.71C121.47 32.47 121.74 32.155 122.07 31.765C122.4 31.375 122.775 30.94 123.195 30.46C123.345 30.31 123.525 30.235 123.735 30.235C124.215 30.235 124.455 30.475 124.455 30.955L122.745 33.52C121.605 35.2 121.035 36.58 121.035 37.66C121.035 38.44 121.41 38.83 122.16 38.83C122.79 38.83 123.48 38.665 124.23 38.335C124.98 38.005 125.595 37.675 126.075 37.345C127.035 36.715 128.04 35.935 129.09 35.005C130.14 34.045 131.145 33.085 132.105 32.125C132.225 32.005 132.405 31.945 132.645 31.945C133.095 31.945 133.32 32.125 133.32 32.485C133.32 32.815 133.11 33.19 132.69 33.61C131.49 34.81 130.41 35.845 129.45 36.715C128.49 37.555 127.575 38.245 126.705 38.785C126.135 39.115 125.43 39.46 124.59 39.82C123.75 40.18 122.79 40.36 121.71 40.36C120.24 40.36 119.505 39.58 119.505 38.02C119.505 37.42 119.58 36.925 119.73 36.535C117 39.145 114.465 40.45 112.125 40.45ZM149.263 42.7C148.753 42.7 148.498 42.4 148.498 41.8C148.498 40.84 149.023 39.16 150.073 36.76C151.123 34.33 152.698 31.21 154.798 27.4L163.348 12.01H162.493C155.503 12.01 150.943 12.865 148.813 14.575C147.943 15.265 147.343 16.255 147.013 17.545C146.983 17.995 146.788 18.22 146.428 18.22C145.828 18.22 145.528 17.95 145.528 17.41C145.528 15.91 146.353 14.56 148.003 13.36C150.493 11.5 155.158 10.57 161.998 10.57C163.978 10.57 165.973 10.615 167.983 10.705L172.663 11.02C173.623 11.08 174.493 11.14 175.273 11.2C176.053 11.23 176.743 11.245 177.343 11.245C177.823 11.245 178.063 11.485 178.063 11.965C178.063 12.445 177.823 12.685 177.343 12.685C176.293 12.685 174.733 12.595 172.663 12.415C171.163 12.265 169.993 12.175 169.153 12.145C168.313 12.115 167.548 12.1 166.858 12.1C166.228 12.1 165.763 12.1 165.463 12.1C165.163 12.07 164.953 12.055 164.833 12.055C164.473 12.985 163.558 14.77 162.088 17.41L157.543 25.51C154.993 30.07 153.088 33.7 151.828 36.4C150.598 39.1 149.983 40.84 149.983 41.62V41.845C149.983 42.415 149.743 42.7 149.263 42.7ZM161.13 41.125C160.65 41.125 160.41 40.93 160.41 40.54C160.41 40.36 160.455 40.18 160.545 40C160.665 39.82 160.755 39.67 160.815 39.55L164.91 31.27C166.65 27.73 167.52 25.765 167.52 25.375C167.52 24.955 167.73 24.745 168.15 24.745C168.72 24.745 169.005 25.03 169.005 25.6C169.005 25.9 168.87 26.38 168.6 27.04C168.33 27.7 167.985 28.465 167.565 29.335C166.845 30.895 166.245 32.095 165.765 32.935C166.665 31.885 167.58 30.895 168.51 29.965C169.44 29.035 170.385 28.15 171.345 27.31C174.195 24.82 176.385 23.575 177.915 23.575C178.965 23.575 179.49 24.07 179.49 25.06C179.49 26.02 179.175 26.5 178.545 26.5C178.245 26.5 178.02 26.245 177.87 25.735C177.78 25.375 177.57 25.195 177.24 25.195C176.73 25.195 175.74 25.75 174.27 26.86C172.65 28.06 171.015 29.485 169.365 31.135C167.745 32.785 166.02 34.885 164.19 37.435L161.94 40.585C161.82 40.735 161.7 40.855 161.58 40.945C161.49 41.065 161.34 41.125 161.13 41.125ZM179.098 40.45C177.358 40.45 176.488 39.625 176.488 37.975C176.488 36.895 176.743 35.74 177.253 34.51C177.793 33.25 178.513 32.035 179.413 30.865C180.313 29.665 181.318 28.585 182.428 27.625C183.538 26.635 184.678 25.855 185.848 25.285C187.018 24.685 188.143 24.385 189.223 24.385C191.143 24.385 192.103 25.33 192.103 27.22C192.103 28.45 191.803 29.065 191.203 29.065C190.663 29.065 190.393 28.81 190.393 28.3C190.393 28.09 190.438 27.88 190.528 27.67C190.648 27.43 190.708 27.175 190.708 26.905C190.708 26.065 190.138 25.645 188.998 25.645C187.168 25.645 184.873 27.04 182.113 29.83C181.453 30.52 180.808 31.33 180.178 32.26C179.548 33.19 179.023 34.135 178.603 35.095C178.213 36.025 178.018 36.91 178.018 37.75C178.018 38.56 178.468 38.965 179.368 38.965C180.148 38.965 180.973 38.725 181.843 38.245C182.743 37.765 183.523 37.27 184.183 36.76C185.503 35.77 186.853 34.42 188.233 32.71C188.443 32.47 188.713 32.155 189.043 31.765C189.373 31.375 189.748 30.94 190.168 30.46C190.318 30.31 190.498 30.235 190.708 30.235C191.188 30.235 191.428 30.475 191.428 30.955L189.718 33.52C188.578 35.2 188.008 36.58 188.008 37.66C188.008 38.44 188.383 38.83 189.133 38.83C189.763 38.83 190.453 38.665 191.203 38.335C191.953 38.005 192.568 37.675 193.048 37.345C194.008 36.715 195.013 35.935 196.063 35.005C197.113 34.045 198.118 33.085 199.078 32.125C199.198 32.005 199.378 31.945 199.618 31.945C200.068 31.945 200.293 32.125 200.293 32.485C200.293 32.815 200.083 33.19 199.663 33.61C198.463 34.81 197.383 35.845 196.423 36.715C195.463 37.555 194.548 38.245 193.678 38.785C193.108 39.115 192.403 39.46 191.563 39.82C190.723 40.18 189.763 40.36 188.683 40.36C187.213 40.36 186.478 39.58 186.478 38.02C186.478 37.42 186.553 36.925 186.703 36.535C183.973 39.145 181.438 40.45 179.098 40.45ZM196.022 41.125C195.542 41.125 195.302 40.93 195.302 40.54C195.302 40.39 195.362 40.21 195.482 40C195.602 39.76 195.707 39.565 195.797 39.415L199.847 31.27C201.587 27.73 202.457 25.765 202.457 25.375C202.457 24.955 202.667 24.745 203.087 24.745C203.657 24.745 203.942 25.045 203.942 25.645C203.942 25.855 203.807 26.305 203.537 26.995C203.267 27.685 202.922 28.465 202.502 29.335C201.782 30.895 201.182 32.095 200.702 32.935C201.602 31.885 202.517 30.895 203.447 29.965C204.377 29.035 205.322 28.15 206.282 27.31C209.132 24.82 211.322 23.575 212.852 23.575C213.902 23.575 214.427 24.07 214.427 25.06C214.427 25.96 213.662 27.985 212.132 31.135C210.602 34.315 209.837 36.325 209.837 37.165C209.837 37.555 209.972 37.75 210.242 37.75C210.332 37.75 210.467 37.72 210.647 37.66C210.857 37.57 211.067 37.525 211.277 37.525C211.787 37.525 212.042 37.765 212.042 38.245C212.042 38.845 211.397 39.145 210.107 39.145C209.507 39.145 209.072 39.01 208.802 38.74C208.532 38.44 208.397 38.05 208.397 37.57C208.397 36.13 209.132 33.94 210.602 31C212.072 28.09 212.807 26.335 212.807 25.735C212.807 25.375 212.672 25.195 212.402 25.195C211.742 25.195 210.677 25.75 209.207 26.86C207.617 28.06 206.027 29.44 204.437 31C202.847 32.56 201.332 34.345 199.892 36.355L196.742 40.72C196.562 40.99 196.322 41.125 196.022 41.125ZM216.383 41.485C214.703 41.485 213.863 40.93 213.863 39.82C213.863 39.13 214.103 38.44 214.583 37.75C215.093 37.06 215.693 36.43 216.383 35.86C217.073 35.29 217.718 34.855 218.318 34.555C218.498 34.465 218.738 34.375 219.038 34.285C219.368 34.195 219.638 34.15 219.848 34.15C220.088 34.15 220.208 34.24 220.208 34.42C220.208 34.57 220.043 34.735 219.713 34.915C218.333 35.575 217.253 36.37 216.473 37.3C215.723 38.2 215.348 38.935 215.348 39.505C215.348 40.045 215.813 40.315 216.743 40.315C217.523 40.315 218.363 40.12 219.263 39.73C220.193 39.34 221.063 38.83 221.873 38.2C222.713 37.57 223.403 36.895 223.943 36.175C224.483 35.455 224.753 34.765 224.753 34.105C224.753 33.655 224.603 33.25 224.303 32.89C224.033 32.53 223.583 32.26 222.953 32.08L219.983 31.18C219.233 30.94 218.693 30.625 218.363 30.235C218.033 29.845 217.868 29.41 217.868 28.93C217.868 28.03 218.198 27.22 218.858 26.5C219.548 25.78 220.403 25.21 221.423 24.79C222.443 24.37 223.433 24.16 224.393 24.16C225.353 24.16 226.193 24.4 226.913 24.88C227.633 25.33 227.993 25.945 227.993 26.725C227.993 27.175 227.858 27.595 227.588 27.985C227.348 28.375 227.063 28.57 226.733 28.57C226.223 28.57 225.968 28.36 225.968 27.94C225.968 27.79 226.043 27.61 226.193 27.4C226.373 27.16 226.463 26.935 226.463 26.725C226.463 25.825 225.773 25.375 224.393 25.375C223.643 25.375 222.893 25.54 222.143 25.87C221.423 26.17 220.823 26.575 220.343 27.085C219.863 27.595 219.623 28.15 219.623 28.75C219.623 29.35 220.223 29.83 221.423 30.19L224.303 31.09C225.173 31.36 225.773 31.735 226.103 32.215C226.433 32.665 226.598 33.175 226.598 33.745C226.598 35.095 225.773 36.49 224.123 37.93C221.453 40.3 218.873 41.485 216.383 41.485ZM234.319 41.215C232.939 41.215 231.874 40.795 231.124 39.955C230.404 39.085 230.044 37.945 230.044 36.535C230.044 35.515 230.224 34.285 230.584 32.845C231.214 30.415 232.279 27.595 233.779 24.385C234.949 21.955 236.209 19.57 237.559 17.23C238.909 14.86 240.394 12.535 242.014 10.255C244.594 6.595 246.394 4.765 247.414 4.765C248.074 4.765 248.404 4.945 248.404 5.305C248.404 5.815 247.564 7.09 245.884 9.13L242.734 12.955C240.004 16.255 237.769 19.63 236.029 23.08C234.319 26.53 232.984 29.98 232.024 33.43C231.754 34.42 231.619 35.35 231.619 36.22C231.619 38.5 232.549 39.64 234.409 39.64C235.069 39.64 235.744 39.445 236.434 39.055C237.124 38.695 237.499 38.515 237.559 38.515C237.919 38.515 238.099 38.77 238.099 39.28C238.099 39.73 237.934 40.075 237.604 40.315C236.584 40.915 235.489 41.215 234.319 41.215ZM242.731 40.45C240.991 40.45 240.121 39.625 240.121 37.975C240.121 36.895 240.376 35.74 240.886 34.51C241.426 33.25 242.146 32.035 243.046 30.865C243.946 29.665 244.951 28.585 246.061 27.625C247.171 26.635 248.311 25.855 249.481 25.285C250.651 24.685 251.776 24.385 252.856 24.385C254.776 24.385 255.736 25.33 255.736 27.22C255.736 28.45 255.436 29.065 254.836 29.065C254.296 29.065 254.026 28.81 254.026 28.3C254.026 28.09 254.071 27.88 254.161 27.67C254.281 27.43 254.341 27.175 254.341 26.905C254.341 26.065 253.771 25.645 252.631 25.645C250.801 25.645 248.506 27.04 245.746 29.83C245.086 30.52 244.441 31.33 243.811 32.26C243.181 33.19 242.656 34.135 242.236 35.095C241.846 36.025 241.651 36.91 241.651 37.75C241.651 38.56 242.101 38.965 243.001 38.965C243.781 38.965 244.606 38.725 245.476 38.245C246.376 37.765 247.156 37.27 247.816 36.76C249.136 35.77 250.486 34.42 251.866 32.71C252.076 32.47 252.346 32.155 252.676 31.765C253.006 31.375 253.381 30.94 253.801 30.46C253.951 30.31 254.131 30.235 254.341 30.235C254.821 30.235 255.061 30.475 255.061 30.955L253.351 33.52C252.211 35.2 251.641 36.58 251.641 37.66C251.641 38.44 252.016 38.83 252.766 38.83C253.396 38.83 254.086 38.665 254.836 38.335C255.586 38.005 256.201 37.675 256.681 37.345C257.641 36.715 258.646 35.935 259.696 35.005C260.746 34.045 261.751 33.085 262.711 32.125C262.831 32.005 263.011 31.945 263.251 31.945C263.701 31.945 263.926 32.125 263.926 32.485C263.926 32.815 263.716 33.19 263.296 33.61C262.096 34.81 261.016 35.845 260.056 36.715C259.096 37.555 258.181 38.245 257.311 38.785C256.741 39.115 256.036 39.46 255.196 39.82C254.356 40.18 253.396 40.36 252.316 40.36C250.846 40.36 250.111 39.58 250.111 38.02C250.111 37.42 250.186 36.925 250.336 36.535C247.606 39.145 245.071 40.45 242.731 40.45ZM261.275 43.105C260.705 43.105 260.42 42.655 260.42 41.755C260.42 40.435 261.155 38.125 262.625 34.825C264.125 31.525 266.345 27.205 269.285 21.865C268.145 21.865 267.065 22.015 266.045 22.315C265.055 22.585 264.53 22.93 264.47 23.35C264.44 23.47 264.365 23.59 264.245 23.71C264.155 23.8 264.005 23.845 263.795 23.845C263.315 23.845 263.075 23.605 263.075 23.125C263.075 22.345 263.69 21.7 264.92 21.19C266.15 20.68 267.875 20.425 270.095 20.425L273.2 15.295C273.41 14.965 273.635 14.605 273.875 14.215C274.115 13.795 274.385 13.345 274.685 12.865C274.985 12.445 275.33 12.235 275.72 12.235C275.96 12.235 276.14 12.31 276.26 12.46C276.38 12.58 276.44 12.715 276.44 12.865C276.44 13.315 275.78 14.515 274.46 16.465C272.81 18.895 271.925 20.215 271.805 20.425C272.255 20.425 272.93 20.47 273.83 20.56C274.73 20.62 275.795 20.725 277.025 20.875C277.475 20.905 277.7 21.13 277.7 21.55C277.7 22.03 277.43 22.27 276.89 22.27C276.68 22.27 276.26 22.24 275.63 22.18C275 22.09 274.325 22.015 273.605 21.955C272.885 21.895 272.27 21.88 271.76 21.91L271.085 21.955C264.995 32.665 261.965 39.325 261.995 41.935L262.04 42.295V42.385C262.04 42.865 261.785 43.105 261.275 43.105ZM275.158 39.775C272.728 39.775 271.513 38.41 271.513 35.68C271.513 34.42 271.813 33.1 272.413 31.72C273.013 30.34 273.808 29.065 274.798 27.895C275.788 26.695 276.883 25.72 278.083 24.97C279.313 24.22 280.558 23.845 281.818 23.845C282.928 23.845 283.738 24.265 284.248 25.105C284.758 25.945 285.013 26.875 285.013 27.895C285.013 29.245 284.743 30.625 284.203 32.035C283.663 33.415 282.928 34.69 281.998 35.86C281.068 37.03 280.018 37.975 278.848 38.695C277.678 39.415 276.448 39.775 275.158 39.775ZM275.113 38.335C275.293 38.335 275.398 38.32 275.428 38.29C276.598 38.14 277.678 37.72 278.668 37.03C279.658 36.34 280.513 35.485 281.233 34.465C281.983 33.415 282.553 32.29 282.943 31.09C283.333 29.89 283.528 28.705 283.528 27.535C283.528 26.845 283.333 26.305 282.943 25.915C282.553 25.525 282.058 25.33 281.458 25.33C280.588 25.33 279.658 25.69 278.668 26.41C277.708 27.13 276.793 28.045 275.923 29.155C275.083 30.265 274.393 31.435 273.853 32.665C273.313 33.865 273.043 34.945 273.043 35.905C273.043 37.525 273.733 38.335 275.113 38.335ZM284.924 41.125C284.444 41.125 284.204 40.93 284.204 40.54C284.204 40.36 284.249 40.18 284.339 40C284.459 39.82 284.549 39.67 284.609 39.55L288.704 31.27C290.444 27.73 291.314 25.765 291.314 25.375C291.314 24.955 291.524 24.745 291.944 24.745C292.514 24.745 292.799 25.03 292.799 25.6C292.799 25.9 292.664 26.38 292.394 27.04C292.124 27.7 291.779 28.465 291.359 29.335C290.639 30.895 290.039 32.095 289.559 32.935C290.459 31.885 291.374 30.895 292.304 29.965C293.234 29.035 294.179 28.15 295.139 27.31C297.989 24.82 300.179 23.575 301.709 23.575C302.759 23.575 303.284 24.07 303.284 25.06C303.284 26.02 302.969 26.5 302.339 26.5C302.039 26.5 301.814 26.245 301.664 25.735C301.574 25.375 301.364 25.195 301.034 25.195C300.524 25.195 299.534 25.75 298.064 26.86C296.444 28.06 294.809 29.485 293.159 31.135C291.539 32.785 289.814 34.885 287.984 37.435L285.734 40.585C285.614 40.735 285.494 40.855 285.374 40.945C285.284 41.065 285.134 41.125 284.924 41.125Z" fill="black"/>
</svg>
